{"glyphs":{"0":{"ha":888,"x_min":36,"x_max":854,"o":"m 783 806 q 826 685 811 744 q 847 563 840 625 q 847 447 854 504 q 824 316 843 382 q 772 186 806 250 q 758 161 765 174 q 740 139 750 149 q 606 28 682 67 q 451 -15 531 -11 q 293 15 371 -18 q 154 119 215 49 q 136 142 143 131 q 122 167 129 154 q 88 242 100 204 q 72 297 76 265 q 56 369 61 333 q 46 440 50 406 q 38 575 36 508 q 57 708 39 642 q 147 875 82 801 q 297 997 211 949 q 446 1045 374 1043 q 582 1017 518 1047 q 697 932 646 988 q 783 806 749 876 m 583 278 q 626 447 619 361 q 619 624 632 533 q 600 694 613 660 q 571 764 588 728 q 499 842 538 824 q 424 849 461 860 q 351 802 386 838 q 289 718 315 767 q 260 624 268 675 q 258 606 258 615 q 256 588 258 597 q 257 507 254 547 q 265 426 260 467 q 275 369 269 399 q 289 313 281 340 q 310 259 297 285 q 343 211 324 233 q 358 198 350 204 q 374 186 365 192 q 386 179 379 182 q 400 172 393 176 q 410 169 406 169 q 422 167 415 169 l 446 167 q 460 170 453 169 q 474 172 468 171 q 493 183 485 178 q 511 192 501 188 q 527 205 519 199 q 543 218 535 211 q 564 248 554 233 q 583 278 574 263 z "},"1":{"ha":519,"x_min":24,"x_max":500,"o":"m 482 1006 q 497 953 497 979 q 499 837 500 894 q 493 721 497 779 q 472 410 486 565 q 444 90 457 254 q 441 63 444 76 q 428 36 438 49 q 421 25 425 31 q 413 15 417 19 q 391 -3 403 4 q 367 -12 379 -10 q 352 -15 360 -12 q 338 -17 344 -17 q 315 -15 325 -18 q 294 -7 306 -11 q 278 1 286 -4 q 261 15 269 6 q 239 47 246 29 q 232 68 235 58 q 231 90 229 78 q 256 417 240 254 q 282 747 271 579 q 255 727 268 738 q 228 708 242 717 q 218 698 224 701 q 207 689 213 694 q 158 663 182 668 q 144 660 151 660 q 131 657 138 660 q 76 672 103 657 q 65 680 69 675 q 56 689 60 685 q 33 725 39 706 q 25 744 26 733 q 24 764 24 754 q 25 786 24 775 q 33 806 26 797 q 56 842 39 825 q 92 871 74 856 q 131 901 111 886 q 232 974 181 938 q 335 1043 283 1010 q 389 1058 358 1058 q 444 1043 419 1058 q 482 1006 467 1028 z "},"2":{"ha":717,"x_min":39,"x_max":692,"o":"m 50 692 q 85 810 58 751 q 153 915 113 868 q 247 996 194 963 q 356 1041 299 1029 q 473 1039 413 1053 q 590 979 533 1025 q 653 902 629 947 q 685 805 678 857 q 681 695 692 753 q 639 579 669 638 q 581 490 614 535 q 510 397 547 444 q 436 295 474 349 q 364 182 399 242 l 542 182 q 569 177 556 182 q 596 165 583 172 q 607 158 601 161 q 618 149 613 154 q 644 104 635 131 q 646 90 646 97 q 649 74 646 82 q 639 32 649 51 q 618 -1 632 13 q 582 -25 606 -15 q 563 -31 572 -28 q 542 -33 553 -35 l 515 -33 l 294 -33 q 267 -34 279 -33 q 242 -33 254 -35 q 222 -31 231 -33 q 204 -28 213 -29 l 197 -28 q 192 -25 194 -25 q 177 -20 185 -24 q 163 -12 169 -17 q 161 -11 163 -12 q 138 8 150 -6 q 133 10 135 8 q 128 16 131 13 q 124 21 125 19 q 121 25 124 19 q 117 35 118 31 q 101 64 103 49 q 100 74 100 68 q 100 82 100 79 q 122 177 100 133 q 188 279 144 221 q 272 389 229 333 q 354 501 315 444 q 425 618 393 558 q 475 742 457 678 q 469 802 486 781 q 422 827 451 824 q 360 817 393 831 q 307 775 326 804 q 276 713 288 743 q 256 639 264 682 q 252 585 253 613 q 254 531 251 557 q 239 476 254 499 q 221 454 231 464 q 199 438 211 444 q 175 428 188 432 q 161 425 168 425 q 147 424 154 425 q 125 425 135 424 q 104 433 115 426 q 71 454 85 440 q 50 489 53 468 q 40 531 39 511 q 39 551 39 540 q 39 575 39 563 q 42 632 40 603 q 50 692 44 661 z "},"3":{"ha":700,"x_min":31,"x_max":672,"o":"m 667 304 q 669 282 668 293 q 672 260 671 271 q 671 228 672 244 q 667 197 669 213 q 662 179 664 188 q 654 160 660 171 q 641 132 647 146 q 625 106 635 118 q 604 83 614 94 q 582 61 594 72 q 563 48 574 54 q 544 35 553 42 q 535 31 539 33 q 525 25 532 28 q 378 -17 458 -11 q 217 -11 297 -24 q 162 -1 189 -6 q 108 10 135 3 q 63 35 82 15 q 54 44 58 40 q 46 53 50 49 q 31 99 31 76 q 33 112 31 106 q 35 125 35 118 q 53 158 39 143 q 82 181 65 171 q 101 190 92 188 q 122 194 111 192 q 144 195 133 196 q 165 192 154 194 q 219 179 192 185 q 275 171 247 174 q 315 167 294 168 q 357 168 336 167 q 380 174 369 171 q 403 179 390 176 q 452 226 443 203 q 453 292 461 250 q 443 307 446 300 q 435 321 440 314 q 417 336 426 328 q 397 353 408 344 q 364 372 381 364 q 328 388 347 379 q 297 397 313 393 q 264 411 281 401 q 253 418 258 414 q 243 425 249 422 l 239 428 q 224 444 229 439 q 215 461 219 450 q 210 476 211 472 q 207 490 210 479 q 203 509 204 501 q 210 532 203 517 l 210 536 q 217 550 214 542 q 224 563 219 558 q 230 571 226 568 q 236 576 233 574 q 245 588 242 583 q 253 596 249 592 q 271 617 261 607 q 289 636 281 626 q 323 672 307 654 q 354 707 339 689 q 390 749 369 719 q 419 808 411 779 q 413 854 428 836 q 339 863 397 872 q 327 856 333 860 q 315 849 321 851 q 294 831 303 842 q 278 806 283 819 q 269 786 271 796 q 264 768 267 776 q 256 744 261 756 q 239 725 250 733 q 228 718 235 721 q 217 713 222 715 q 165 699 193 699 q 151 700 158 699 q 138 701 144 701 q 99 717 115 706 q 74 744 83 728 q 66 761 69 751 q 63 779 63 771 q 63 817 54 800 q 65 827 64 822 q 68 836 65 832 q 93 897 76 867 q 103 916 97 907 q 117 932 110 925 q 140 957 128 944 q 165 981 151 969 q 183 995 174 989 q 201 1008 192 1001 l 221 1018 q 232 1024 226 1021 q 244 1029 238 1026 q 267 1037 256 1032 q 290 1044 279 1042 q 303 1048 297 1047 q 317 1051 310 1049 q 342 1054 329 1053 q 365 1057 354 1056 q 433 1053 400 1057 q 493 1042 464 1050 q 527 1028 511 1035 q 558 1014 543 1022 q 579 999 569 1007 q 599 985 589 992 q 609 973 604 979 q 619 960 614 967 l 624 956 q 625 953 625 954 q 629 946 628 949 q 633 940 631 943 q 640 926 636 933 q 646 910 643 918 q 649 898 649 903 q 650 886 650 893 q 653 874 651 879 q 654 863 654 868 q 651 838 654 850 q 646 815 649 826 q 643 792 646 806 q 629 759 636 775 q 615 728 622 743 q 593 689 604 706 q 567 650 581 668 q 538 614 553 632 q 504 573 522 592 q 467 535 486 554 q 479 529 471 535 q 510 512 496 522 q 538 492 524 501 q 553 479 546 486 q 571 465 561 472 q 593 442 582 454 q 615 415 604 431 q 627 401 622 408 q 638 382 632 393 q 651 353 644 367 q 661 322 658 339 q 665 313 663 317 q 667 304 667 310 z "},"4":{"ha":782,"x_min":36,"x_max":761,"o":"m 726 883 q 740 869 735 876 q 749 851 746 863 q 760 815 761 836 q 755 735 757 775 q 750 657 753 696 q 742 379 743 517 q 737 240 738 310 q 739 99 736 171 q 726 53 739 75 q 710 31 719 40 q 661 1 692 8 q 647 -1 654 0 q 633 -4 640 -1 q 592 3 613 -4 q 574 12 581 6 q 558 26 567 18 q 543 40 549 32 q 535 56 538 49 q 526 74 528 64 q 524 92 524 83 q 523 151 524 122 q 525 213 522 181 q 430 208 485 211 q 319 207 375 206 q 211 215 263 208 q 126 240 160 222 q 112 250 118 244 q 100 260 106 256 q 94 264 94 265 q 81 276 86 271 q 71 289 75 282 q 67 296 68 293 q 63 301 65 299 q 53 316 57 308 q 47 331 50 324 q 47 334 47 333 q 46 338 46 335 q 44 342 44 339 q 40 361 42 353 q 38 381 38 369 q 38 403 36 392 q 42 426 40 415 q 44 439 43 433 q 47 451 44 444 q 102 573 68 508 q 172 706 136 638 q 238 844 207 774 q 281 985 268 914 q 325 1044 292 1025 q 394 1063 358 1064 q 460 1040 431 1061 q 494 978 490 1019 q 483 857 507 926 q 419 713 458 788 q 337 568 379 639 q 271 444 294 497 q 262 420 260 428 q 274 409 264 413 q 301 406 285 406 q 336 406 318 406 q 429 406 383 404 q 524 413 475 407 q 525 470 524 440 q 529 528 526 500 q 535 667 532 599 q 544 808 539 736 q 558 858 543 832 q 575 878 567 869 q 619 906 594 899 q 633 908 626 908 q 647 911 640 908 q 692 904 672 911 q 710 897 701 901 q 726 883 719 892 z "},"5":{"ha":781,"x_min":19,"x_max":757,"o":"m 714 521 q 731 483 724 501 q 742 443 738 464 q 726 260 757 347 q 619 106 696 172 q 588 80 604 92 q 553 57 571 68 q 499 29 525 39 q 459 16 479 22 q 417 6 439 10 q 401 1 408 3 q 385 -3 393 0 q 357 -5 371 -3 q 328 -8 343 -7 q 283 -7 304 -8 q 238 -3 261 -6 q 166 14 201 4 q 94 35 131 24 q 49 57 72 39 q 42 66 44 61 q 33 75 39 71 q 19 121 19 94 q 22 134 22 128 q 24 146 22 140 q 42 178 26 161 q 69 200 54 192 q 90 208 81 206 q 110 211 99 211 q 129 213 118 214 q 151 208 140 213 q 215 190 183 199 q 281 178 247 181 q 342 178 313 174 q 373 183 357 179 q 404 190 389 188 l 457 217 l 497 254 q 511 276 504 265 q 525 299 518 288 q 545 384 547 350 q 524 438 543 418 q 474 467 506 458 q 406 475 443 475 q 331 469 369 475 q 261 454 293 463 q 205 445 233 446 q 152 454 176 444 q 110 485 128 464 q 86 542 92 506 q 83 589 82 565 q 90 639 85 613 q 96 686 93 663 q 101 733 99 710 q 108 780 104 757 q 114 826 111 803 q 119 883 117 854 q 126 939 121 911 q 146 986 129 965 q 188 1021 163 1007 q 247 1042 214 1035 q 314 1050 279 1050 q 340 1049 328 1050 q 367 1049 351 1049 q 472 1047 419 1049 q 576 1044 524 1046 q 626 1031 604 1044 l 649 1018 q 675 976 669 1000 q 678 965 678 971 q 679 953 678 960 q 678 935 679 943 q 671 917 676 926 q 649 888 664 900 q 633 876 640 881 q 615 869 626 872 q 576 861 600 861 q 543 863 561 861 q 507 864 525 864 q 446 865 476 864 q 385 865 415 865 l 322 865 q 321 851 321 858 q 318 835 321 844 q 310 764 315 799 q 301 690 306 729 q 299 670 301 679 q 296 650 297 661 q 335 656 315 653 q 374 660 354 658 q 447 660 411 663 q 519 650 483 657 q 560 640 542 647 q 597 626 579 633 q 610 619 604 624 q 622 613 617 615 q 644 598 633 606 q 661 583 654 590 q 694 547 682 567 q 706 534 701 540 q 714 521 710 528 z "},"6":{"ha":813,"x_min":46,"x_max":783,"o":"m 749 476 q 763 442 756 458 q 775 410 771 426 q 783 336 783 372 q 780 303 783 319 q 774 267 776 286 q 767 244 771 256 q 757 219 763 233 q 672 99 729 150 q 541 21 614 49 q 388 -10 468 -7 q 233 13 307 -12 q 165 53 196 31 q 137 77 150 64 q 111 106 124 90 q 75 171 85 133 q 65 195 68 183 q 60 219 63 207 q 53 257 57 239 q 49 296 50 275 q 47 344 46 319 q 50 393 49 368 q 58 454 54 425 q 69 513 63 483 q 103 619 81 568 q 150 721 125 669 q 268 888 197 810 q 313 934 290 911 q 360 979 335 957 q 400 1012 379 994 q 444 1046 421 1029 q 489 1068 464 1061 q 503 1069 496 1068 q 518 1072 511 1069 q 559 1065 540 1072 q 593 1046 578 1057 q 615 1015 611 1033 q 623 999 619 1008 q 625 981 626 990 q 623 963 626 972 q 615 947 619 954 q 593 918 610 928 q 574 905 585 913 q 556 889 564 897 q 496 841 524 867 q 440 788 468 815 q 430 773 436 781 q 418 760 424 765 q 369 691 392 726 q 326 617 346 656 l 326 615 q 373 619 350 617 q 419 621 396 621 q 450 620 435 621 q 479 617 465 619 q 520 613 499 615 q 561 607 542 611 q 576 603 569 604 q 590 599 583 601 q 616 590 603 594 q 640 578 629 585 q 683 553 664 568 q 694 543 689 547 q 704 535 700 539 q 730 506 718 521 q 749 476 742 492 m 525 228 q 567 302 551 258 q 558 390 582 346 q 508 431 542 419 q 433 442 475 442 q 348 438 392 443 q 267 432 304 433 l 267 426 q 260 347 261 386 q 263 268 258 308 q 278 219 269 240 q 283 208 281 214 q 292 199 285 203 l 308 182 q 321 176 314 179 q 335 171 328 174 q 349 167 342 169 q 367 163 357 165 l 403 163 q 424 168 414 165 q 446 174 435 171 q 469 185 458 179 q 489 197 479 190 q 508 211 499 203 q 525 228 518 219 z "},"7":{"ha":729,"x_min":13,"x_max":703,"o":"m 596 561 q 669 533 643 561 q 699 469 694 506 q 685 399 703 433 q 629 354 668 365 q 576 344 606 347 q 510 338 546 342 q 494 336 503 338 q 476 335 486 335 q 433 197 456 265 q 389 60 411 128 q 361 11 382 32 q 350 3 354 7 q 340 -6 346 -1 q 313 -15 326 -12 q 283 -18 300 -18 q 269 -17 276 -18 q 256 -17 263 -17 q 237 -8 247 -12 q 219 3 226 -4 q 194 33 201 14 q 184 52 188 42 q 181 74 181 63 q 182 114 174 97 q 215 221 197 168 q 249 326 233 274 q 251 332 251 328 q 228 332 240 332 q 207 333 217 332 q 151 349 174 333 q 140 354 144 351 q 131 364 136 357 q 114 385 119 374 q 104 413 108 397 q 100 426 101 419 q 99 440 99 433 q 110 481 99 464 q 131 514 115 499 q 146 528 138 524 q 165 538 154 533 q 207 547 181 547 q 249 544 228 544 q 292 544 269 544 l 321 544 q 348 635 338 603 q 369 695 358 667 q 394 760 381 724 q 428 864 407 796 q 407 867 418 867 q 385 868 396 868 q 254 869 319 871 q 119 864 189 868 q 67 879 93 864 q 57 888 63 885 q 44 896 51 892 q 27 917 33 907 q 18 943 21 928 q 15 958 15 951 q 13 972 14 965 q 14 994 13 983 q 22 1013 15 1004 q 44 1047 28 1033 q 60 1060 53 1054 q 79 1069 68 1067 q 98 1078 88 1076 q 119 1079 108 1079 q 140 1081 131 1079 q 158 1082 149 1082 q 235 1083 199 1083 q 313 1083 272 1083 q 351 1083 332 1083 q 389 1082 369 1082 q 434 1078 411 1079 q 481 1074 457 1076 q 519 1064 500 1071 q 557 1046 539 1057 q 573 1036 565 1043 q 588 1025 581 1029 q 593 1019 590 1021 q 599 1015 596 1018 q 610 999 606 1008 q 621 982 615 990 q 638 946 632 961 q 640 940 640 943 q 643 929 640 936 q 647 889 643 911 q 644 875 647 879 q 640 832 644 853 q 632 801 638 815 q 622 771 626 786 q 599 703 607 724 q 585 666 592 682 q 572 628 579 650 q 547 557 564 606 q 596 561 575 557 z "},"8":{"ha":768,"x_min":40,"x_max":728,"o":"m 713 442 q 719 424 717 433 q 724 407 721 415 q 728 347 728 375 q 726 317 728 332 q 721 286 725 301 q 708 240 718 263 q 689 194 699 217 q 667 161 678 176 q 643 131 656 146 q 567 56 608 88 q 538 39 551 47 q 507 24 524 31 q 499 19 503 21 q 490 15 494 17 q 467 5 479 8 q 446 -3 456 1 q 422 -7 433 -6 q 400 -11 411 -8 q 363 -15 381 -14 q 326 -17 346 -17 q 301 -14 313 -15 q 279 -11 290 -12 q 267 -8 272 -8 q 257 -7 263 -8 q 240 -1 247 -4 q 222 4 232 1 q 206 10 214 7 q 190 17 197 14 q 183 22 186 21 q 175 26 179 24 q 156 38 165 33 q 139 50 147 43 q 119 71 128 61 q 100 92 110 81 q 79 118 88 103 q 63 154 68 139 q 56 168 58 158 q 51 183 53 175 q 47 199 50 190 q 42 228 43 214 q 40 256 40 242 l 40 288 q 44 317 42 303 q 50 342 47 331 q 56 358 54 349 q 63 375 58 367 q 76 403 69 390 q 92 429 83 415 q 118 461 103 446 q 137 485 126 472 q 161 508 147 497 q 184 533 172 522 q 211 556 196 544 q 201 561 204 557 q 175 582 189 568 q 154 601 164 590 q 136 622 144 611 q 126 635 131 629 q 119 647 122 642 q 106 675 113 663 q 94 703 99 688 q 89 732 92 718 q 85 761 86 746 q 85 778 85 769 q 86 796 85 788 q 91 824 89 811 q 96 853 93 838 q 101 867 99 860 q 108 881 104 874 q 135 932 117 904 q 142 943 138 936 q 153 957 147 950 q 171 978 161 968 q 190 996 181 988 q 213 1014 200 1006 q 239 1029 226 1022 q 271 1046 254 1042 q 299 1058 285 1051 q 329 1067 313 1064 q 390 1072 357 1072 q 428 1072 408 1076 q 458 1069 443 1071 q 489 1063 474 1067 q 517 1055 503 1060 q 544 1042 532 1050 q 570 1027 558 1035 q 593 1008 582 1019 q 613 991 604 1001 q 629 971 621 981 q 637 960 633 964 q 644 949 640 956 q 665 900 658 924 q 672 873 669 885 q 678 849 675 861 q 680 819 681 833 q 678 792 679 806 q 672 765 675 778 q 665 739 669 751 q 656 710 663 724 q 635 668 646 688 q 611 628 624 649 q 597 610 604 619 q 582 593 589 601 q 599 581 590 586 q 617 569 608 576 q 631 557 624 563 q 644 546 639 551 q 660 528 653 538 q 674 511 667 519 q 681 503 678 508 q 689 496 683 499 q 692 488 690 492 q 697 481 694 483 q 705 460 700 469 q 713 442 710 451 m 306 761 q 311 739 307 749 q 315 731 313 735 q 321 724 318 726 q 335 713 328 717 q 350 703 342 708 q 360 697 356 700 q 372 692 365 694 q 377 688 374 689 q 383 683 381 686 q 391 692 388 688 q 400 701 394 696 q 425 733 413 717 q 447 765 438 749 q 458 804 457 789 l 458 835 q 456 847 457 842 q 453 857 456 853 q 449 864 450 861 q 446 871 447 867 q 441 873 443 872 q 436 875 439 874 q 432 878 435 878 q 428 881 429 878 q 411 885 417 881 q 403 884 407 885 q 393 881 399 883 q 374 878 381 881 q 365 874 368 875 q 354 871 361 872 q 345 861 351 864 q 335 853 339 858 q 325 839 331 846 q 317 825 319 832 q 310 808 313 815 q 306 790 307 800 l 306 761 m 418 199 q 440 215 431 206 q 458 232 450 224 q 490 281 481 256 q 500 305 497 293 q 507 331 503 317 l 507 367 q 503 381 506 374 q 500 394 501 388 q 494 401 497 397 q 489 411 492 406 q 476 424 482 418 q 463 433 469 429 q 446 443 454 440 q 418 457 432 449 q 409 450 413 453 q 400 446 406 447 q 352 407 376 426 q 307 367 328 388 q 274 317 288 342 q 267 299 269 306 q 263 281 264 292 l 263 242 q 266 228 264 236 q 271 213 268 221 q 277 205 274 208 q 283 196 281 201 q 288 191 285 193 q 294 186 292 189 q 300 183 297 185 q 307 179 303 182 q 317 177 311 178 q 329 174 322 176 l 357 174 q 371 178 364 176 q 385 183 378 179 q 403 190 394 186 q 418 199 411 194 z "},"9":{"ha":768,"x_min":33,"x_max":732,"o":"m 696 831 q 717 761 711 796 q 728 690 724 726 q 731 633 731 663 q 731 576 732 604 q 724 506 728 542 q 713 436 719 471 q 678 326 703 382 q 649 263 665 294 q 613 201 633 232 q 570 151 593 175 q 519 106 547 126 q 467 65 496 83 q 407 33 438 47 q 343 10 375 21 q 275 -7 311 -1 q 236 -11 256 -8 q 194 -14 217 -14 q 153 -9 175 -11 q 113 -3 132 -7 q 87 6 99 0 q 64 22 75 11 q 56 32 61 26 q 46 43 50 38 q 33 94 33 65 q 38 121 33 110 q 57 156 42 142 q 86 182 68 172 q 126 193 103 193 q 169 192 150 197 l 176 192 q 231 192 204 189 q 263 197 246 193 q 296 207 279 201 q 329 224 313 214 q 361 242 346 233 q 419 297 394 268 q 444 331 432 313 q 464 368 456 349 l 458 368 q 406 368 429 365 q 390 369 397 368 q 375 372 382 369 q 349 374 361 374 q 322 378 336 375 q 299 385 310 382 q 274 392 288 389 q 238 408 256 400 q 204 425 219 415 q 172 448 188 436 q 143 472 156 460 q 99 535 117 504 q 88 558 92 546 q 76 582 83 569 q 71 594 74 588 q 67 607 68 600 q 64 617 64 611 q 61 631 64 624 q 58 655 60 642 q 54 682 57 668 q 53 707 51 694 q 54 733 54 719 q 60 772 57 753 q 68 810 63 790 q 82 844 75 826 q 99 879 89 863 q 110 903 104 893 q 125 924 115 913 q 147 953 136 939 q 171 981 157 968 q 193 997 183 990 q 214 1010 203 1003 q 225 1017 219 1014 q 236 1024 231 1021 q 260 1035 247 1031 q 286 1044 272 1039 q 299 1047 293 1046 q 311 1050 304 1049 q 337 1056 324 1054 q 363 1057 350 1057 l 390 1057 q 432 1052 413 1056 q 471 1044 451 1049 q 509 1029 490 1038 q 543 1010 528 1021 q 576 988 560 999 q 607 964 592 976 q 617 953 613 958 q 626 943 621 947 q 642 922 633 932 q 657 901 650 913 q 678 867 669 885 q 696 831 688 850 m 390 572 q 464 572 426 567 q 490 576 476 574 q 514 582 503 579 q 512 674 517 628 q 489 769 507 721 q 476 790 482 779 q 464 807 471 800 q 438 832 456 822 q 424 842 431 839 q 410 849 417 844 q 397 852 403 851 q 385 856 392 853 l 365 856 q 358 853 363 856 q 351 850 354 851 q 342 847 346 849 q 332 842 338 846 q 322 831 326 836 q 311 822 317 825 q 299 803 304 813 q 286 782 293 793 q 278 758 282 771 q 272 731 275 746 l 272 679 q 285 639 274 660 q 299 614 292 631 q 308 606 304 610 q 318 599 313 601 q 331 590 325 593 q 344 582 338 586 q 367 576 354 579 q 390 572 379 574 z "},"\u0000":{"ha":0,"x_min":0,"x_max":0,"o":""},"\r":{"ha":414,"x_min":0,"x_max":0,"o":""}," ":{"ha":414,"x_min":0,"x_max":0,"o":""},"~":{"ha":919,"x_min":42,"x_max":882,"o":"m 864 643 q 875 601 875 625 q 874 563 882 585 q 866 542 869 551 q 858 525 863 533 q 847 501 854 513 q 832 478 839 489 q 819 463 825 471 q 806 449 813 456 q 803 443 804 446 q 800 439 801 440 q 790 430 794 433 q 779 419 786 426 q 765 408 772 414 q 750 396 757 401 q 744 392 746 393 q 739 389 742 390 q 715 376 728 382 q 690 368 703 371 q 664 358 676 360 q 644 355 653 356 q 624 353 635 354 l 610 353 l 597 353 l 590 353 q 572 355 581 354 q 557 358 564 356 q 543 361 550 360 q 531 364 536 363 q 508 374 519 368 q 486 386 496 379 q 482 388 483 386 q 478 390 481 389 q 464 401 471 396 q 450 413 457 407 q 421 443 433 428 q 396 474 408 458 q 358 511 372 501 q 329 515 343 521 q 299 491 315 510 q 257 443 283 472 q 249 431 253 436 q 243 419 246 426 q 203 381 229 396 q 191 376 197 378 q 179 369 185 374 q 122 369 150 361 q 108 376 114 374 q 96 381 103 378 q 64 407 79 392 q 53 426 57 417 q 46 446 50 435 q 42 467 43 457 q 46 488 42 476 q 49 508 46 499 q 57 526 53 517 q 61 533 60 529 q 64 540 63 538 q 100 586 85 563 q 109 597 106 592 q 119 610 113 603 l 163 653 q 204 686 183 671 q 217 695 211 692 q 229 704 224 699 q 254 716 242 711 q 282 725 267 721 q 293 731 286 729 q 307 733 300 733 q 325 738 317 736 q 340 739 333 739 q 344 740 343 739 q 347 740 346 740 q 363 739 357 740 q 380 738 371 739 q 397 733 389 736 l 401 733 q 407 732 404 733 q 413 731 410 731 q 444 718 428 722 q 449 715 447 715 q 454 713 451 714 q 474 699 465 706 q 493 686 483 692 q 522 655 508 671 q 547 624 535 639 q 569 596 558 610 q 593 569 579 582 q 596 568 594 569 q 600 567 597 567 l 601 567 l 611 567 q 624 569 618 567 q 629 574 626 572 q 636 578 632 575 q 642 585 639 581 q 653 593 646 590 q 660 608 656 600 q 669 624 665 615 q 696 665 676 647 q 706 674 701 669 q 717 681 710 678 q 742 692 729 689 q 771 697 756 696 q 785 694 778 696 q 800 693 792 693 q 820 687 811 692 q 836 675 829 682 q 851 660 844 668 q 864 643 858 651 z "},"¤":{"ha":1218,"x_min":61,"x_max":1181,"o":"m 1161 250 q 1179 217 1175 233 q 1181 205 1181 210 q 1181 194 1181 200 q 1179 175 1181 183 q 1171 157 1178 167 q 1161 140 1164 149 q 1133 125 1151 131 q 1104 118 1117 118 q 1072 125 1089 118 q 1050 140 1057 129 q 1044 147 1046 143 q 1038 151 1042 150 q 1016 176 1026 165 q 994 199 1006 186 q 979 219 986 208 q 967 239 972 229 q 953 218 960 228 q 939 199 946 208 q 931 191 936 196 q 922 182 925 186 q 906 167 915 175 q 888 151 897 158 q 860 130 875 140 q 831 110 846 119 q 799 94 815 101 q 765 79 782 86 q 743 72 754 75 q 719 64 732 68 q 706 63 713 63 q 693 61 700 63 q 664 57 678 58 q 638 53 650 56 l 608 53 q 582 57 596 56 q 553 61 568 58 q 528 65 540 63 q 501 71 515 68 q 497 74 499 74 q 493 76 496 74 q 476 83 485 79 q 457 90 467 88 q 449 95 454 93 q 440 100 443 97 q 410 118 424 107 q 385 140 397 129 q 369 155 376 147 q 354 169 361 163 q 342 185 346 175 q 325 203 332 194 q 313 224 318 213 q 310 225 310 224 l 310 226 q 303 214 306 219 q 297 201 301 208 q 279 170 288 185 q 260 140 271 156 q 231 101 247 119 q 199 64 215 83 q 167 46 183 50 q 155 43 160 43 q 144 43 150 43 q 106 53 121 43 q 97 59 101 57 q 88 64 92 61 q 74 90 79 72 q 68 105 69 97 q 67 121 67 113 q 74 151 67 139 q 88 175 78 168 q 102 191 94 182 q 117 207 110 200 q 147 254 133 231 q 172 303 161 278 q 201 408 193 354 q 201 517 207 464 q 172 622 193 575 q 147 672 161 649 q 117 718 133 696 q 83 756 101 736 q 64 790 69 769 q 63 801 64 796 q 61 811 61 806 q 63 831 61 821 q 71 849 65 842 q 78 856 75 853 q 83 867 81 860 q 110 881 94 878 q 139 889 124 889 q 169 881 157 889 q 182 876 176 879 q 194 867 188 872 q 201 859 197 863 q 208 851 206 856 q 220 838 214 844 q 233 824 226 831 q 251 801 243 813 q 267 778 258 790 q 303 713 289 747 q 315 688 310 700 q 326 660 321 675 q 358 697 342 679 q 392 729 374 715 q 421 752 407 740 q 450 772 435 764 q 469 783 460 779 q 489 792 478 786 q 520 806 504 799 q 553 817 536 813 q 590 824 572 822 q 625 829 607 826 q 644 826 639 829 l 649 826 q 660 829 656 829 q 671 829 665 829 l 693 829 q 706 826 699 826 q 724 824 715 824 q 743 821 733 824 q 765 816 754 819 q 788 810 776 813 q 810 801 799 806 q 832 790 821 796 q 851 781 846 785 q 862 774 857 778 q 871 768 867 771 q 881 761 875 764 q 895 749 888 754 q 910 739 903 744 q 919 731 915 735 q 926 725 924 728 q 942 778 933 753 q 957 831 950 803 q 965 848 961 839 q 979 864 969 857 q 986 870 982 868 q 994 876 990 872 q 1035 889 1014 889 q 1044 886 1039 886 q 1053 883 1049 886 q 1081 871 1068 879 q 1103 849 1094 861 q 1108 835 1106 842 q 1110 819 1110 828 q 1110 788 1114 806 q 1102 764 1106 776 q 1092 739 1099 751 q 1069 656 1079 697 q 1051 571 1058 614 q 1051 558 1051 564 q 1050 543 1051 551 q 1048 495 1047 519 q 1051 447 1049 471 q 1072 368 1057 407 q 1088 338 1079 353 q 1107 310 1096 322 q 1133 279 1119 293 q 1161 250 1146 265 m 743 313 q 763 331 754 322 q 782 349 772 340 q 794 369 789 360 q 807 390 800 379 q 813 412 810 401 q 818 433 815 422 l 818 479 q 813 502 815 492 q 804 524 810 513 q 795 541 800 533 q 785 558 790 549 l 763 581 q 745 591 753 586 q 728 600 738 596 q 670 612 703 611 q 606 603 638 613 q 546 577 574 594 q 501 533 518 560 q 488 513 494 522 q 479 494 482 504 q 472 474 475 483 q 467 453 469 464 l 467 411 q 472 390 469 400 q 479 368 475 379 q 490 347 485 357 q 501 326 494 336 l 531 297 q 545 288 538 292 q 561 282 553 285 q 578 277 569 279 q 597 272 588 275 q 644 272 621 268 q 699 286 674 276 q 722 299 711 292 q 743 313 732 306 z "},"`":{"ha":360,"x_min":46,"x_max":315,"o":"m 297 1014 q 314 986 310 1001 q 315 976 314 981 q 315 967 315 971 q 307 935 315 949 q 302 928 304 932 q 297 922 300 925 q 290 914 294 917 q 281 908 285 911 q 257 903 267 901 q 233 908 246 901 q 215 922 224 913 q 204 933 210 926 q 193 944 199 939 q 165 972 182 954 q 128 1010 147 990 q 92 1047 110 1029 q 64 1074 75 1064 q 49 1103 53 1085 q 46 1119 49 1114 q 54 1151 46 1136 q 59 1158 57 1154 q 64 1164 61 1161 q 72 1174 67 1171 q 83 1179 76 1176 q 104 1185 94 1185 q 128 1179 114 1185 q 138 1174 133 1176 q 146 1164 143 1171 q 159 1154 153 1160 q 172 1143 165 1149 q 199 1116 182 1133 q 235 1079 217 1099 q 271 1042 254 1060 q 297 1014 288 1024 z "},"?":{"ha":699,"x_min":22,"x_max":676,"o":"m 646 946 q 673 860 669 906 q 669 763 676 815 q 663 737 665 750 q 654 710 660 724 q 642 687 647 699 q 633 664 638 675 q 619 636 625 651 q 601 612 610 625 q 582 585 593 599 q 543 537 563 561 q 507 489 524 513 q 446 397 469 443 q 436 372 439 385 q 431 346 433 360 l 431 335 q 415 288 431 311 q 407 278 410 282 q 401 271 404 274 q 356 247 383 254 q 342 244 349 244 q 329 243 336 244 q 308 244 318 243 q 290 251 297 246 q 257 271 271 256 q 236 299 240 281 q 229 316 232 307 q 229 335 226 325 q 229 346 229 340 q 231 358 229 351 q 233 383 233 372 q 236 407 233 394 q 243 428 239 417 q 254 451 247 440 q 282 513 264 479 q 294 530 289 521 q 306 549 299 539 q 333 585 319 568 q 363 621 347 601 q 414 685 389 653 q 458 756 439 718 q 467 779 464 767 q 472 803 469 792 q 474 822 474 813 q 474 840 474 832 q 467 863 471 853 q 458 879 464 871 q 446 890 449 885 q 435 897 439 893 q 425 903 431 900 q 408 906 415 904 q 393 908 400 907 q 357 908 376 910 q 338 904 349 907 q 317 899 328 901 q 299 892 308 896 q 282 879 290 888 q 269 868 275 872 q 256 856 263 864 q 244 840 250 847 q 235 825 239 832 q 230 806 232 814 q 224 789 228 799 l 224 749 q 208 701 224 724 q 202 693 206 697 q 193 682 199 689 q 150 660 181 669 q 136 659 143 660 q 122 658 129 658 q 83 665 99 658 q 67 672 75 668 q 53 682 60 676 q 32 713 39 694 q 24 731 25 722 q 22 749 22 739 l 22 775 q 24 802 22 790 q 28 826 26 814 q 31 840 28 833 q 36 856 33 847 q 38 867 36 861 q 43 882 40 874 q 55 905 50 893 q 67 928 60 917 q 74 940 71 935 q 82 951 78 944 q 99 970 90 961 q 118 990 107 979 q 128 1000 122 996 q 139 1008 133 1004 q 160 1025 149 1018 q 181 1038 171 1032 q 219 1058 200 1049 q 257 1074 238 1067 q 315 1089 286 1085 q 397 1093 356 1096 q 415 1092 406 1093 q 436 1089 425 1090 q 442 1088 439 1089 q 449 1086 446 1086 q 463 1083 456 1085 q 478 1079 469 1082 q 497 1072 488 1075 q 514 1065 506 1069 q 519 1063 517 1064 q 526 1060 522 1061 q 538 1054 532 1057 q 549 1049 543 1051 q 566 1038 560 1043 q 579 1025 572 1032 q 590 1017 589 1022 q 609 1000 601 1008 q 624 979 617 992 q 633 969 629 975 q 639 960 636 964 q 646 946 643 956 m 432 110 q 433 97 433 103 q 436 85 433 92 q 428 49 436 65 q 407 21 419 31 q 392 8 400 14 q 374 1 385 3 q 335 -7 360 -7 q 285 6 306 -7 q 274 13 278 8 q 265 21 269 18 q 248 38 254 28 q 236 60 242 49 q 235 73 236 67 q 235 85 235 79 q 236 103 235 94 q 243 119 238 113 q 253 136 247 128 q 265 151 258 144 q 296 168 276 161 q 335 178 314 178 q 388 164 365 178 q 397 157 392 160 q 407 151 403 154 q 422 131 414 140 q 432 110 429 121 z "},"_":{"ha":1003,"x_min":40,"x_max":963,"o":"m 961 50 q 962 36 961 43 q 963 21 963 29 q 961 0 963 11 q 956 -18 960 -11 q 946 -38 953 -29 q 933 -54 939 -47 q 917 -67 925 -61 q 899 -76 908 -74 q 878 -85 888 -83 q 857 -86 868 -86 l 700 -86 l 425 -86 l 149 -86 q 119 -83 133 -86 q 93 -74 106 -79 q 82 -62 88 -67 q 72 -54 76 -57 q 54 -31 60 -43 q 42 -8 49 -19 q 41 7 42 0 q 40 21 40 14 q 42 43 40 32 q 50 65 43 54 q 59 82 53 74 q 72 100 65 90 q 88 113 79 107 q 107 119 96 118 q 127 128 117 125 q 149 129 138 132 l 303 129 l 578 129 l 857 129 q 884 124 871 129 q 911 113 897 119 q 922 106 917 110 q 933 100 926 103 q 961 50 953 81 z "},"]":{"ha":500,"x_min":25,"x_max":469,"o":"m 460 985 q 463 969 463 978 q 463 951 463 960 q 469 807 469 878 q 463 664 469 736 q 453 517 460 589 q 439 371 446 446 q 424 226 431 297 q 414 81 417 154 q 413 45 414 63 q 410 13 413 28 q 408 -12 410 0 q 400 -36 407 -25 q 389 -64 396 -49 q 378 -75 383 -71 q 367 -83 374 -79 q 362 -89 365 -86 q 356 -93 358 -92 q 331 -110 342 -104 q 304 -119 319 -117 q 288 -128 297 -125 q 268 -133 279 -131 q 228 -149 247 -140 q 189 -164 208 -157 q 163 -174 175 -171 q 135 -178 150 -178 q 122 -175 128 -175 q 107 -172 115 -175 q 46 -133 65 -161 q 37 -118 39 -126 q 33 -101 35 -110 q 35 -67 25 -85 q 42 -51 38 -58 q 54 -36 46 -43 q 66 -24 58 -29 q 82 -14 74 -19 q 121 -1 101 -8 q 161 14 140 6 q 183 20 172 17 q 204 29 194 24 l 204 57 q 205 84 204 69 q 206 110 206 99 q 210 165 208 138 q 215 221 211 192 q 232 413 222 317 q 251 607 242 510 q 257 703 256 656 q 260 800 258 751 q 259 849 260 825 q 258 897 258 872 q 256 938 257 918 q 251 978 256 957 q 251 983 251 981 q 250 990 250 986 q 247 993 247 990 q 240 996 246 996 q 207 1014 224 1004 q 171 1032 190 1024 q 126 1056 147 1044 q 82 1078 104 1067 q 52 1101 63 1089 q 35 1129 42 1114 q 32 1166 28 1149 q 43 1196 36 1183 q 71 1222 54 1211 q 103 1238 88 1232 q 146 1238 128 1243 q 189 1225 171 1238 q 204 1218 194 1224 q 225 1208 214 1213 q 306 1167 265 1189 q 386 1118 346 1146 q 404 1103 396 1111 q 422 1082 413 1096 q 431 1068 429 1076 q 449 1036 447 1054 q 456 1011 453 1025 q 460 985 458 997 z "},"\\":{"ha":685,"x_min":-24,"x_max":654,"o":"m 629 -78 q 617 -91 625 -85 q 603 -104 610 -97 q 568 -112 588 -110 q 531 -108 549 -114 q 501 -95 515 -106 q 476 -72 488 -85 q 422 32 449 -19 q 367 135 394 83 q 316 239 342 188 q 267 343 290 290 q 218 447 243 394 q 169 551 193 499 q 120 667 144 610 q 74 783 96 724 q 31 892 51 838 q -8 1000 10 947 q -18 1029 -17 1015 q -19 1064 -24 1044 q -12 1096 -19 1079 q 14 1122 0 1113 q 28 1133 21 1129 q 44 1140 35 1138 q 83 1141 64 1143 q 117 1131 101 1139 q 126 1122 122 1124 q 135 1115 131 1119 q 151 1097 146 1108 q 161 1076 157 1086 q 220 910 189 993 q 286 746 251 826 q 304 703 296 724 q 321 661 313 682 q 376 538 349 599 q 433 417 403 476 q 494 289 463 351 q 558 164 526 226 q 597 93 578 128 q 635 24 617 58 q 646 -49 654 -11 q 638 -65 642 -57 q 629 -78 635 -74 z "},"[":{"ha":511,"x_min":28,"x_max":496,"o":"m 419 4 q 456 -8 440 1 q 483 -32 471 -17 q 494 -65 493 -47 q 490 -100 496 -83 q 475 -128 489 -114 q 461 -141 468 -135 q 447 -154 454 -147 q 426 -158 436 -157 q 408 -160 417 -160 q 363 -160 385 -164 q 344 -155 356 -157 q 324 -147 333 -153 q 278 -137 300 -142 q 236 -125 257 -132 q 215 -118 225 -121 q 197 -112 204 -115 q 140 -93 167 -108 q 106 -74 121 -86 q 81 -46 92 -61 q 74 -28 78 -36 q 68 -12 69 -21 q 64 6 65 -3 q 61 22 63 15 l 61 94 q 61 244 61 168 q 58 394 61 319 q 52 546 56 471 q 44 694 49 621 q 42 769 43 732 q 36 846 40 806 q 35 883 36 864 q 31 922 33 903 q 31 981 28 951 q 40 1030 33 1006 q 63 1075 47 1054 q 80 1094 69 1085 q 101 1111 90 1104 q 128 1127 115 1121 q 153 1139 140 1133 l 307 1214 q 348 1223 328 1221 q 390 1224 368 1225 q 424 1207 410 1219 q 454 1183 439 1194 q 461 1167 457 1175 q 465 1151 465 1160 q 466 1134 467 1142 q 461 1115 465 1126 q 443 1086 457 1100 q 413 1065 429 1072 q 367 1042 389 1053 q 318 1021 344 1031 q 294 1010 307 1015 q 269 999 281 1004 q 257 991 263 996 q 240 982 251 986 q 236 975 240 979 q 238 937 235 956 q 242 897 240 918 q 246 842 243 869 q 251 786 249 814 q 258 594 254 690 q 264 400 263 497 q 268 303 267 351 q 269 206 269 254 l 269 107 l 269 60 l 269 47 q 297 38 285 42 q 325 32 310 35 q 373 19 350 25 q 419 4 396 13 z "},"Z":{"ha":629,"x_min":25,"x_max":597,"o":"m 590 97 q 592 83 592 90 q 597 67 593 76 q 594 47 597 56 q 588 25 590 38 q 565 -7 578 8 q 529 -32 553 -24 q 474 -42 504 -42 q 417 -44 444 -43 q 348 -52 381 -49 q 281 -60 315 -56 q 249 -62 265 -60 q 218 -65 233 -64 l 186 -65 q 167 -63 176 -64 q 144 -57 157 -62 q 126 -50 135 -54 q 108 -43 118 -46 q 63 20 76 -21 q 68 101 49 61 q 138 273 107 196 q 197 425 168 350 q 252 581 225 500 q 311 767 279 663 q 324 813 318 790 q 339 857 329 836 q 235 858 286 857 q 131 860 183 860 q 79 875 101 860 q 67 882 72 878 q 56 889 61 886 q 26 939 36 907 q 26 953 26 946 q 25 969 25 961 q 26 988 25 979 q 33 1008 28 997 q 44 1025 39 1017 q 56 1040 49 1033 q 72 1056 63 1050 q 92 1068 82 1061 q 111 1074 103 1072 q 131 1075 119 1075 l 168 1075 q 241 1074 204 1074 q 313 1074 278 1074 l 385 1074 q 431 1074 408 1074 q 476 1069 454 1074 q 541 1042 519 1065 q 569 985 563 1019 q 569 908 575 950 q 553 826 564 867 q 531 752 543 786 q 514 697 519 718 q 475 584 493 631 q 440 494 457 538 q 405 403 424 451 q 363 288 386 356 q 340 224 351 257 q 319 160 328 192 q 405 170 356 163 q 500 171 454 178 q 544 160 522 169 q 556 152 550 156 q 565 143 561 149 q 581 123 574 133 q 590 97 588 113 z "},"Y":{"ha":700,"x_min":25,"x_max":676,"o":"m 669 693 q 669 569 671 629 q 664 449 668 510 q 660 385 661 415 q 656 325 658 354 q 651 264 653 294 q 644 204 650 233 q 635 163 640 183 q 626 122 631 143 q 567 24 607 67 q 473 -43 526 -18 q 360 -74 419 -68 q 243 -62 300 -81 q 217 -53 229 -57 q 194 -42 204 -49 q 165 -33 179 -39 q 143 -17 151 -26 q 136 -6 139 -10 q 131 4 133 -1 q 117 57 115 28 q 119 69 118 63 q 122 82 121 75 q 131 99 125 90 q 143 114 138 107 q 158 128 150 121 q 178 139 167 135 q 198 144 186 142 q 219 146 210 147 q 241 147 229 149 q 263 142 253 144 q 290 133 275 139 q 321 125 304 128 q 375 131 354 118 q 408 166 396 143 q 426 217 421 189 q 432 274 431 246 q 433 285 433 281 q 433 297 433 290 q 408 290 422 292 q 382 288 394 289 q 231 284 306 268 q 107 354 157 300 q 64 423 78 385 q 44 504 50 461 q 28 731 32 617 q 31 967 25 846 q 35 992 32 981 q 47 1015 39 1004 q 57 1026 54 1021 q 67 1035 60 1031 q 88 1049 78 1043 q 114 1060 99 1056 l 144 1060 q 186 1049 168 1060 q 204 1040 197 1046 q 218 1026 211 1033 q 235 1010 229 1019 q 243 994 240 1001 q 247 976 246 986 q 246 954 249 965 q 247 908 246 931 q 244 861 247 885 q 247 726 247 801 q 253 581 246 651 q 269 507 257 531 q 303 479 281 483 q 360 485 325 475 q 447 510 394 494 q 450 589 449 549 q 453 669 451 629 q 456 824 456 746 q 454 979 457 901 q 459 1006 456 994 q 474 1029 463 1018 q 482 1038 476 1033 q 492 1047 488 1042 q 514 1063 503 1057 q 540 1071 525 1068 q 555 1071 547 1069 q 572 1072 563 1072 q 590 1069 581 1074 q 611 1063 600 1065 q 647 1039 632 1058 q 657 1024 653 1032 q 667 1006 661 1015 q 673 988 672 996 q 672 968 674 979 q 673 953 672 961 q 674 938 674 944 q 674 816 676 876 q 669 693 672 756 z "},"X":{"ha":703,"x_min":28,"x_max":682,"o":"m 479 1042 q 523 1078 493 1067 q 584 1087 553 1089 q 642 1068 615 1085 q 676 1021 669 1051 q 678 982 682 1001 q 665 946 678 963 q 642 906 654 926 q 618 865 631 886 q 543 725 581 794 q 474 583 506 656 q 460 555 467 568 q 447 529 453 542 q 478 468 463 499 q 508 407 493 438 q 583 260 544 332 q 657 117 621 188 q 671 93 668 106 q 676 67 674 81 q 673 53 674 60 q 672 39 672 47 q 643 -1 661 17 q 619 -18 631 -6 q 601 -24 613 -21 q 579 -26 590 -26 q 540 -24 560 -32 q 499 -7 515 -21 q 485 3 492 -3 q 475 18 478 8 q 468 30 471 25 q 463 38 465 35 q 418 122 439 82 q 378 207 397 163 q 359 241 368 224 q 343 274 350 258 q 338 269 339 271 q 335 264 338 267 q 296 156 315 211 q 257 49 276 101 q 247 24 253 35 q 228 6 240 14 q 218 -3 224 0 q 207 -8 213 -6 q 181 -19 193 -17 q 153 -22 168 -22 q 140 -22 147 -22 q 125 -21 132 -21 q 103 -14 114 -18 q 86 -3 93 -10 q 61 25 71 3 q 52 42 54 33 q 47 58 50 51 q 47 79 46 69 q 50 99 47 89 q 53 110 51 106 q 58 122 54 115 q 90 214 74 168 q 125 307 107 260 q 161 399 143 353 q 199 489 179 444 q 210 508 206 500 q 217 524 214 515 q 207 542 214 533 q 123 721 167 632 q 32 906 79 810 q 32 953 28 928 q 40 966 36 961 q 47 978 44 971 q 83 1011 61 1000 q 97 1017 90 1015 q 111 1022 104 1019 q 133 1025 122 1024 q 153 1022 143 1026 q 190 1011 175 1022 q 225 986 214 1001 q 237 972 232 979 q 244 953 242 964 q 284 860 264 907 q 331 769 304 814 q 357 819 344 793 q 383 869 369 844 q 430 956 406 913 q 479 1042 454 1000 z "},"W":{"ha":1083,"x_min":40,"x_max":1049,"o":"m 1036 756 q 1043 663 1042 710 q 1044 569 1044 617 q 1047 478 1046 525 q 1049 383 1049 432 q 1044 289 1047 338 q 1026 192 1042 240 q 1022 174 1025 183 q 1015 153 1019 164 q 1003 125 1010 139 q 986 99 996 111 q 978 89 981 93 q 974 81 976 85 l 944 51 q 929 39 940 47 q 912 26 921 33 q 890 13 903 18 q 872 6 881 10 q 853 -1 864 1 q 832 -7 842 -7 q 807 -10 818 -8 q 781 -8 796 -12 q 763 -8 772 -8 q 744 -7 753 -8 l 736 -7 q 693 10 715 3 q 685 13 690 11 q 678 17 681 14 q 644 42 661 25 q 635 47 639 44 q 628 53 632 50 q 621 59 625 56 q 614 67 617 63 q 601 83 608 75 q 586 99 593 90 q 576 113 582 104 q 564 131 571 122 q 550 158 557 144 q 535 186 543 171 q 515 143 528 160 q 503 124 510 133 q 493 104 497 114 q 453 61 482 81 q 440 48 447 54 q 426 36 432 42 q 388 11 411 24 q 368 5 378 8 q 347 -1 358 1 q 322 -8 333 -7 q 300 -8 311 -8 l 285 -8 q 233 -1 253 -8 q 215 5 224 1 q 196 13 206 8 q 169 31 182 19 q 146 53 157 42 q 125 76 135 64 q 104 100 115 89 q 84 145 93 124 q 68 190 75 167 q 59 239 63 214 q 51 289 56 264 q 46 373 49 331 q 40 457 43 415 q 40 544 40 500 q 42 633 40 588 q 48 810 43 721 q 64 989 53 899 q 81 1032 65 1013 q 89 1044 83 1038 q 99 1056 94 1050 q 119 1069 107 1063 q 144 1078 132 1075 q 159 1078 151 1078 q 174 1079 167 1079 q 196 1079 185 1082 q 214 1074 207 1076 q 233 1064 225 1069 q 247 1056 240 1058 q 262 1040 257 1049 q 269 1024 267 1031 q 279 989 282 1006 q 270 908 274 949 q 264 826 267 867 q 257 684 258 756 q 258 542 256 613 q 258 397 256 469 q 261 338 260 367 q 267 276 263 308 q 279 224 271 244 q 299 200 288 204 q 322 210 310 196 q 343 263 333 225 q 365 340 356 300 q 386 421 375 381 q 390 451 389 436 q 394 482 392 467 q 404 606 401 544 q 407 731 407 667 q 410 753 407 742 q 424 776 413 765 q 440 794 433 785 q 488 819 461 814 q 518 824 499 819 q 531 822 525 824 q 543 819 536 821 q 583 808 565 819 q 602 803 594 807 q 619 793 610 799 q 631 779 626 786 q 639 761 636 772 q 649 726 649 746 q 649 700 649 713 q 649 672 650 688 q 656 584 654 628 q 664 496 658 540 q 667 474 665 485 q 674 451 669 463 q 729 263 690 351 q 751 217 738 238 q 781 191 765 197 q 808 197 796 185 q 824 249 819 208 q 829 320 828 283 q 832 392 831 357 q 831 540 833 467 q 826 688 829 613 q 810 988 822 835 q 815 1009 811 999 q 828 1031 818 1019 q 843 1050 832 1042 q 867 1063 856 1057 q 893 1075 878 1069 q 906 1076 900 1076 q 922 1078 913 1076 q 942 1076 933 1078 q 961 1068 951 1075 q 994 1050 983 1063 q 1007 1036 1001 1044 q 1017 1019 1013 1028 q 1025 988 1028 1007 q 1026 963 1025 974 q 1028 939 1028 951 q 1032 848 1031 894 q 1036 756 1033 801 z "},"V":{"ha":767,"x_min":25,"x_max":756,"o":"m 535 1031 q 560 1085 540 1064 q 607 1114 581 1106 q 661 1119 633 1122 q 711 1099 689 1115 q 744 1056 733 1083 q 747 989 756 1028 q 697 785 721 889 q 649 579 672 682 q 625 484 636 532 q 603 389 614 436 q 578 294 592 340 q 554 199 565 247 q 531 110 546 154 q 525 92 531 103 q 516 70 521 81 q 503 50 511 60 q 492 33 499 40 q 479 17 486 26 q 463 1 475 11 q 442 -13 453 -7 q 415 -21 431 -19 q 372 -21 393 -26 q 332 -10 354 -21 q 311 10 321 -1 q 296 33 301 21 q 292 42 294 38 q 288 50 289 47 q 251 149 268 100 q 218 247 233 199 q 194 335 206 292 q 172 424 182 379 q 151 513 161 468 q 131 603 140 558 q 108 692 119 647 q 86 779 97 736 q 64 859 75 819 q 36 938 53 899 q 27 963 29 949 q 25 989 25 978 q 27 1003 26 996 q 29 1017 28 1010 q 40 1044 35 1032 q 60 1067 46 1056 q 70 1074 65 1071 q 81 1081 75 1076 q 101 1089 92 1088 q 121 1092 110 1090 q 163 1089 142 1096 q 184 1080 174 1083 q 201 1069 194 1076 q 215 1055 208 1065 q 226 1036 222 1044 q 243 993 232 1017 q 271 913 258 954 q 294 832 283 872 q 315 750 306 792 q 339 668 325 708 q 355 585 347 628 q 374 503 363 543 q 383 466 378 485 q 390 428 388 447 q 423 560 407 494 q 454 696 439 625 q 496 861 475 778 q 535 1031 517 944 z "},"U":{"ha":714,"x_min":32,"x_max":685,"o":"m 678 464 q 683 414 681 438 q 683 367 685 390 q 664 234 683 301 q 605 111 644 167 q 506 21 565 56 q 368 -14 447 -14 q 333 -15 351 -17 q 296 -10 315 -12 q 265 1 281 -6 q 232 11 250 7 q 214 24 225 18 q 194 35 203 29 q 167 55 179 44 q 140 81 156 65 q 133 90 138 83 q 121 101 128 96 q 113 117 117 110 q 101 131 108 124 q 93 149 99 140 q 81 169 88 158 q 45 308 56 232 q 33 465 35 385 q 39 625 32 544 q 56 778 46 706 q 66 884 61 831 q 78 990 71 938 q 103 1047 82 1022 q 160 1081 125 1071 l 190 1081 q 231 1074 206 1081 q 249 1065 240 1071 q 265 1051 258 1058 q 283 1022 275 1042 q 290 1002 288 1011 q 292 983 293 993 q 281 911 286 947 q 272 839 276 875 q 259 711 265 775 q 250 583 253 647 q 248 465 247 524 q 251 347 249 406 q 271 267 260 307 q 317 194 282 226 q 327 186 322 188 q 338 181 332 185 q 351 176 340 181 l 361 176 q 378 179 368 179 q 391 186 386 182 q 401 193 396 190 q 412 202 404 199 q 425 213 419 206 q 437 229 432 224 q 446 243 442 235 q 458 271 454 257 q 464 299 461 285 q 469 362 468 331 q 469 425 469 393 q 463 553 467 488 q 456 685 460 618 q 453 756 454 718 q 449 834 451 794 q 445 912 447 874 q 440 983 443 950 q 458 1032 442 1011 q 467 1041 464 1038 q 478 1050 471 1044 q 525 1074 494 1067 q 539 1074 532 1075 q 553 1076 546 1074 q 596 1067 576 1076 q 612 1059 603 1064 q 628 1044 621 1054 q 647 1014 643 1035 q 653 996 650 1006 q 653 976 657 986 q 656 958 654 969 q 658 935 657 947 q 658 911 658 922 q 658 893 658 900 q 664 786 661 839 q 669 678 667 733 q 674 571 672 625 q 678 464 676 517 z "},"T":{"ha":794,"x_min":32,"x_max":771,"o":"m 764 999 q 769 985 768 992 q 771 971 769 978 q 769 953 771 963 q 760 935 767 944 q 739 904 753 918 q 722 892 729 897 q 704 882 714 888 q 663 875 681 875 q 613 878 638 878 q 563 878 588 878 l 515 878 l 515 733 q 517 569 515 650 q 518 401 518 488 q 519 235 518 318 q 521 69 521 153 q 507 19 521 44 q 496 10 500 14 q 489 1 492 6 q 465 -15 478 -8 q 443 -24 453 -21 q 427 -26 435 -26 q 413 -28 419 -26 q 391 -26 401 -28 q 368 -19 381 -25 q 335 1 351 -15 q 315 33 325 10 q 308 69 308 46 q 308 163 308 117 q 303 257 307 208 l 303 586 q 301 728 301 657 q 301 869 301 799 q 267 866 285 868 q 231 861 250 864 q 181 853 206 857 q 133 852 157 850 q 87 865 108 854 q 47 899 65 875 q 42 909 46 903 q 38 919 39 915 q 33 940 33 931 q 33 960 32 949 q 47 997 33 979 q 60 1013 53 1004 q 78 1024 67 1021 q 92 1033 83 1031 q 113 1039 101 1036 q 183 1050 147 1046 q 253 1058 219 1054 q 356 1068 306 1065 q 454 1074 406 1071 q 559 1073 508 1074 q 663 1068 610 1072 q 689 1065 678 1068 q 715 1056 700 1061 q 739 1039 725 1051 q 764 999 758 1022 z "},"S":{"ha":686,"x_min":18,"x_max":660,"o":"m 643 306 q 651 258 651 282 q 654 239 654 253 q 650 217 651 228 q 647 197 649 207 q 645 186 647 190 q 642 178 643 182 q 639 172 639 175 q 638 165 639 169 q 630 151 633 158 q 622 136 626 144 q 619 128 621 133 q 615 121 617 124 q 601 102 608 111 q 586 86 593 93 q 579 80 582 83 q 572 72 576 76 q 553 60 563 65 q 538 47 544 54 q 528 42 532 44 q 518 38 525 39 q 488 23 504 31 q 457 8 472 15 q 434 3 446 6 q 410 -1 422 0 q 374 -7 393 -4 q 336 -11 356 -10 q 230 -11 283 -15 q 125 0 176 -7 q 71 14 94 0 q 62 21 67 17 q 51 29 57 25 q 33 49 40 40 q 24 71 26 58 q 22 83 24 78 q 19 96 19 89 q 22 117 18 107 q 29 135 25 126 q 38 151 32 144 q 51 165 43 158 q 66 177 58 172 q 83 186 74 182 q 125 194 104 194 q 151 190 136 192 q 179 189 165 189 q 264 183 221 185 q 347 183 307 181 q 372 188 360 186 q 396 194 383 190 q 408 201 403 197 q 421 207 413 204 q 428 214 424 211 q 435 219 432 217 q 438 225 436 222 q 439 231 439 228 q 442 235 442 233 q 443 239 442 236 l 443 253 q 440 265 442 260 q 436 276 439 269 q 428 290 432 283 q 417 306 424 297 q 392 327 404 317 q 369 347 381 338 q 356 358 360 351 q 302 389 328 374 q 250 421 276 404 q 214 444 231 432 q 182 469 197 457 q 158 489 169 479 q 139 510 147 499 q 92 574 110 543 q 80 597 85 585 q 69 622 75 610 q 64 635 67 629 q 60 649 61 642 q 58 662 58 656 q 56 675 58 668 q 52 700 53 688 q 50 725 51 713 q 51 767 50 747 q 56 806 53 786 q 60 833 58 819 q 69 860 63 846 q 80 883 75 871 q 92 906 85 894 q 97 917 94 913 q 104 929 100 922 q 112 940 108 933 q 121 949 115 946 q 135 969 128 960 q 153 988 143 979 q 164 997 160 994 q 174 1007 168 1000 q 196 1021 185 1014 q 218 1035 207 1028 q 242 1046 229 1040 q 268 1056 256 1051 q 281 1058 274 1057 q 294 1063 288 1060 q 321 1067 308 1065 q 347 1071 333 1068 l 375 1071 q 404 1067 390 1068 q 431 1064 418 1065 q 457 1056 444 1061 q 496 1043 476 1051 q 531 1024 515 1035 q 551 1008 540 1017 q 572 993 561 1000 q 590 976 582 986 q 606 954 597 965 q 624 924 617 939 q 639 890 632 908 q 657 817 653 854 q 651 744 660 778 q 639 720 644 729 q 622 700 633 711 q 614 694 618 697 q 603 685 610 690 q 547 672 578 672 q 534 675 540 675 q 521 676 528 675 q 485 693 499 681 q 457 719 467 704 q 447 757 447 739 q 447 793 442 774 q 447 811 449 799 q 445 820 447 815 q 442 832 443 825 q 431 850 433 840 q 423 855 426 851 q 415 861 419 858 q 399 871 410 865 q 388 874 393 872 q 378 876 382 875 l 353 876 q 342 874 347 875 q 331 871 336 872 q 314 861 319 865 q 304 853 310 857 q 294 844 299 850 q 283 828 289 836 q 275 811 278 821 q 266 787 269 799 q 261 763 263 775 q 261 715 257 739 q 266 694 263 704 q 274 675 269 683 q 281 657 276 664 q 293 642 286 650 q 317 619 304 631 q 343 597 329 607 q 351 593 344 594 q 388 567 369 578 q 426 546 407 557 q 475 513 450 529 q 522 478 500 496 q 565 442 546 463 q 600 399 585 421 q 613 381 608 390 q 621 364 618 372 q 634 335 628 350 q 643 306 640 321 z "},"R":{"ha":739,"x_min":32,"x_max":715,"o":"m 688 828 q 696 802 692 815 q 703 774 700 789 q 712 735 708 754 q 715 694 715 717 q 712 655 715 675 q 703 615 708 635 q 696 588 700 601 q 688 564 692 575 q 650 492 672 526 q 624 458 638 474 q 597 428 610 443 q 575 407 586 417 q 551 390 564 397 q 514 365 532 378 q 476 342 496 351 q 435 324 456 332 q 390 311 414 317 q 380 307 383 308 q 371 303 376 306 q 404 274 386 288 q 440 246 422 260 q 525 200 478 218 q 558 189 540 193 q 594 182 576 185 q 640 156 618 175 q 648 147 644 153 q 657 138 651 142 q 672 90 672 114 q 669 78 669 83 q 667 65 668 72 q 659 47 664 54 q 647 31 654 39 q 617 6 639 17 q 599 -3 607 -1 q 579 -7 590 -4 q 558 -7 568 -7 q 538 -4 549 -7 q 510 3 524 0 q 482 8 496 6 q 444 23 463 15 q 407 40 426 31 q 365 61 385 49 q 322 89 344 74 q 293 108 307 97 q 265 131 279 119 q 253 142 254 139 l 253 85 q 239 36 253 58 q 229 26 233 32 q 222 18 225 21 q 175 -7 201 -3 q 161 -9 168 -7 q 147 -11 154 -11 q 126 -10 136 -12 q 106 -4 117 -7 q 88 4 97 0 q 72 18 79 8 q 53 46 56 31 q 43 65 46 57 q 43 85 40 74 q 43 180 43 132 q 40 278 43 228 q 40 445 40 361 q 38 613 40 529 q 34 778 35 696 q 32 940 33 860 q 44 1007 32 978 q 92 1053 56 1036 q 133 1061 113 1061 q 149 1061 140 1061 q 164 1063 157 1061 q 229 1066 197 1065 q 293 1065 261 1067 q 338 1060 315 1063 q 382 1056 361 1058 q 414 1049 399 1053 q 444 1040 429 1046 q 469 1031 456 1036 q 496 1022 482 1025 q 510 1015 503 1018 q 524 1008 517 1011 q 537 1000 531 1004 q 550 993 543 996 q 572 977 561 986 q 594 960 583 968 q 647 899 622 932 q 669 865 660 882 q 688 828 679 847 m 456 574 q 488 622 474 599 q 497 647 494 635 q 503 671 500 658 q 503 718 504 696 q 488 765 499 744 q 465 804 479 786 q 451 817 458 811 q 435 829 444 822 q 415 843 426 836 q 392 853 404 850 q 319 872 357 864 q 304 873 311 872 q 292 874 297 874 l 243 874 q 243 817 243 846 q 244 761 243 789 q 248 620 247 690 q 250 479 249 550 q 262 480 256 479 q 275 481 268 481 q 315 490 294 485 q 354 501 335 494 q 382 515 367 508 q 413 533 397 522 q 435 552 425 542 q 456 574 444 563 z "},"Q":{"ha":850,"x_min":28,"x_max":849,"o":"m 815 60 q 844 18 836 40 q 846 5 846 11 q 849 -7 846 -1 q 845 -33 849 -19 q 833 -57 842 -46 l 815 -75 q 783 -93 804 -89 q 764 -100 774 -99 q 744 -101 754 -101 q 722 -100 732 -101 q 701 -93 713 -99 q 671 -75 682 -87 q 661 -67 665 -71 q 624 -28 642 -47 q 588 8 606 -10 q 571 26 578 22 q 558 22 564 24 q 546 18 553 19 q 522 6 535 11 q 499 -4 510 1 q 483 -8 490 -7 q 471 -11 476 -8 q 457 -12 467 -12 q 436 -15 446 -14 q 415 -15 426 -15 q 389 -15 403 -21 q 333 -11 360 -15 q 308 -3 319 -8 q 283 8 296 1 q 248 26 264 15 q 217 47 232 36 q 197 63 206 54 q 178 82 188 72 q 154 112 165 97 q 132 142 143 126 q 112 177 121 161 q 96 211 103 193 q 51 340 67 274 q 31 475 36 407 q 31 601 28 538 q 32 631 31 617 q 36 663 33 646 q 43 702 39 682 q 53 743 47 722 q 60 773 56 758 q 71 801 65 788 q 88 839 79 821 q 108 872 97 857 q 132 904 119 890 q 157 933 144 918 q 176 951 165 940 q 196 968 186 961 q 317 1038 254 1014 q 440 1064 379 1063 q 556 1044 500 1065 q 654 979 611 1024 q 716 893 692 940 q 755 793 740 846 q 776 684 769 740 q 783 574 782 628 q 782 508 783 542 q 776 440 781 475 q 772 398 775 419 q 765 353 768 376 q 759 323 763 336 q 753 294 756 310 q 735 233 746 263 q 708 172 724 203 q 714 169 708 169 q 721 159 717 164 q 728 150 725 154 q 771 104 749 126 q 815 60 793 82 m 331 213 q 344 199 338 206 q 357 185 350 192 q 368 181 364 183 q 378 174 372 178 q 393 169 386 174 q 413 172 407 169 q 440 179 428 172 q 447 183 443 179 q 442 192 447 183 q 415 233 428 211 q 388 279 401 256 q 362 323 375 300 q 336 368 349 346 q 327 391 331 379 q 324 417 324 403 q 326 429 326 424 q 329 440 326 435 q 338 464 332 456 q 353 483 343 472 q 364 490 360 486 q 374 497 368 494 q 414 507 394 507 q 435 510 425 511 q 457 506 446 508 q 476 500 468 504 q 492 490 485 496 q 507 478 500 485 q 519 463 514 472 q 537 428 528 444 q 556 392 546 411 q 558 389 558 390 q 561 385 558 388 q 563 401 563 390 q 567 431 565 417 q 571 461 568 446 q 575 535 574 488 q 574 635 576 583 q 562 733 571 686 q 535 808 553 781 q 476 858 511 842 q 404 868 442 874 q 331 833 367 863 q 269 749 294 804 q 255 702 261 725 q 244 657 249 679 q 242 635 242 646 q 240 614 242 625 q 238 522 238 568 q 244 431 238 476 q 263 351 251 390 q 292 274 275 313 q 309 242 300 257 q 331 213 318 228 z "},"P":{"ha":731,"x_min":21,"x_max":700,"o":"m 686 732 q 694 688 690 710 q 700 646 697 667 l 700 579 q 695 550 697 564 q 690 522 693 536 q 688 506 690 514 q 685 490 686 497 q 663 426 679 460 q 644 390 653 407 q 622 354 635 372 q 605 333 615 343 q 585 314 594 324 q 577 303 582 307 q 565 293 572 299 q 554 283 560 288 q 542 275 549 278 q 496 242 524 258 q 415 208 457 222 q 401 204 408 207 q 388 199 394 201 q 377 198 381 199 q 368 197 374 197 q 345 194 356 194 q 322 190 335 193 l 268 190 q 271 133 269 161 q 274 79 272 106 q 261 29 274 51 q 252 19 257 22 q 244 10 247 15 q 222 -6 233 0 q 196 -14 211 -12 q 181 -16 189 -14 q 165 -18 172 -18 q 145 -17 156 -19 q 125 -12 135 -14 q 89 10 103 -4 q 67 40 75 24 q 57 79 57 58 q 51 174 54 126 q 44 271 47 222 q 35 444 39 358 q 31 617 32 531 q 29 781 28 700 q 31 943 31 861 q 29 947 31 944 q 26 956 28 950 q 24 968 26 963 q 22 981 22 974 q 24 1001 21 992 q 32 1017 28 1010 q 54 1049 39 1035 q 71 1060 63 1056 q 89 1069 79 1065 q 110 1075 100 1072 q 132 1078 119 1078 l 165 1078 l 236 1078 q 284 1072 260 1075 q 333 1067 308 1069 q 366 1061 349 1064 q 399 1054 383 1058 q 428 1044 413 1050 q 456 1035 443 1039 q 486 1019 471 1028 q 510 1006 499 1013 q 532 990 522 999 q 544 981 539 985 q 557 971 550 976 q 567 960 563 965 q 578 953 571 956 q 613 908 599 929 q 628 885 621 897 q 640 861 636 872 q 659 824 650 843 q 674 786 668 806 q 686 732 685 757 m 478 560 q 481 619 482 589 q 476 679 481 650 q 465 726 472 703 q 450 774 458 750 q 417 819 435 799 q 403 834 410 828 q 389 847 396 840 q 372 857 381 851 q 350 867 363 863 q 316 876 333 872 q 279 882 299 881 q 264 885 272 885 q 247 885 256 885 l 247 771 q 250 597 247 683 q 256 425 253 511 l 256 382 l 317 382 q 334 387 325 385 q 351 390 343 389 q 372 400 363 394 q 389 410 381 406 q 409 425 400 417 q 425 442 418 433 q 457 489 443 463 q 469 523 464 506 q 478 560 475 540 z "},"O":{"ha":872,"x_min":35,"x_max":838,"o":"m 756 907 q 810 747 796 829 q 831 571 824 664 q 831 394 838 482 q 824 341 828 368 q 813 286 819 314 q 804 249 810 267 q 790 211 799 231 q 776 183 783 197 q 757 158 768 169 q 738 133 749 143 q 718 111 728 122 q 703 97 711 103 q 688 83 694 90 q 662 65 675 74 q 636 47 649 57 q 617 40 626 44 q 597 32 608 35 q 535 8 568 19 q 515 5 525 7 q 494 0 504 3 q 425 -4 457 -4 q 403 -6 414 -7 q 382 -4 393 -4 q 344 0 363 -1 q 311 7 326 1 q 295 12 304 8 q 279 18 286 15 q 264 23 271 21 q 250 29 257 25 q 219 45 235 36 q 193 64 204 54 q 181 74 186 68 q 168 85 175 79 q 148 108 157 96 q 128 131 139 119 q 119 145 124 138 q 110 160 115 153 q 96 186 101 172 q 83 214 90 200 q 58 302 67 257 q 44 392 50 347 q 37 477 39 435 q 35 564 35 519 q 39 655 35 608 q 54 746 43 701 q 78 819 63 781 q 101 865 89 843 q 128 908 113 888 q 169 954 149 933 q 182 965 175 960 q 196 978 189 971 q 221 997 208 989 q 247 1014 233 1004 q 264 1022 256 1018 q 279 1032 272 1026 l 339 1054 q 359 1059 350 1057 q 378 1063 368 1061 q 401 1066 389 1065 q 425 1068 414 1067 l 443 1068 q 475 1069 458 1071 q 511 1065 492 1067 q 524 1061 519 1061 q 533 1058 528 1058 q 543 1057 539 1057 q 578 1050 561 1054 q 611 1039 594 1046 q 630 1028 621 1033 q 647 1019 639 1024 q 673 1001 661 1010 q 696 982 685 993 q 706 970 701 975 q 718 958 711 965 q 726 947 722 951 q 736 936 731 943 q 747 922 743 929 q 756 907 751 914 m 585 272 q 600 317 594 293 q 611 364 606 340 q 613 376 611 369 q 614 389 614 383 q 578 385 594 388 q 543 382 561 383 q 521 382 532 382 q 496 383 510 382 q 462 388 478 386 q 426 397 446 390 q 365 421 396 407 q 341 437 353 428 q 318 457 329 446 q 312 463 314 460 q 306 468 310 465 q 292 483 299 476 q 279 500 286 490 l 261 528 q 256 535 258 531 q 251 544 253 539 q 251 519 251 532 q 253 496 251 507 q 256 436 253 467 q 263 375 258 406 q 276 314 269 343 q 296 257 283 285 q 309 236 303 246 q 322 215 315 226 q 333 208 329 213 q 342 197 336 203 q 352 192 347 194 q 364 188 357 190 q 379 184 372 185 q 393 182 386 183 q 436 182 414 178 q 465 187 451 183 q 490 193 478 190 l 538 215 q 550 227 544 222 q 563 239 556 232 q 585 272 574 251 m 599 701 q 588 758 594 729 q 568 813 581 786 q 525 862 546 851 q 487 865 504 872 q 456 835 469 857 q 434 787 442 814 q 424 733 426 760 q 429 686 422 706 q 435 653 431 669 q 447 621 440 636 q 468 590 454 610 q 474 585 471 588 q 481 579 478 582 q 494 572 488 574 q 514 567 504 572 q 533 567 522 567 q 551 571 543 568 q 575 574 564 572 q 599 579 586 575 q 614 581 604 581 l 599 701 z "},"N":{"ha":869,"x_min":39,"x_max":831,"o":"m 825 1001 q 826 981 825 990 q 829 960 826 971 q 830 790 829 875 q 829 618 831 704 q 823 449 826 533 q 814 278 819 364 q 811 235 811 256 q 808 194 811 214 q 807 172 807 183 q 807 151 807 161 q 803 124 804 138 q 796 96 801 111 q 779 61 789 78 q 754 33 769 44 q 729 13 744 21 q 697 1 714 6 q 650 -2 674 -4 q 606 14 626 0 q 593 22 600 18 q 579 33 586 26 q 565 46 576 35 q 549 61 557 53 q 535 78 542 69 q 526 92 529 85 q 517 110 522 100 q 431 256 468 181 q 357 406 393 331 q 309 517 333 463 q 263 625 285 571 q 259 524 260 575 q 258 425 258 474 q 266 253 261 339 q 279 82 271 168 q 264 35 279 63 q 246 17 256 29 q 226 2 238 8 q 199 -7 214 -4 q 182 -9 189 -8 q 168 -12 175 -10 q 147 -10 157 -12 q 126 -4 136 -7 q 92 17 107 4 q 69 47 75 31 q 60 64 63 54 q 58 82 58 74 q 51 179 56 132 q 44 274 47 226 q 40 444 40 360 q 42 615 39 528 q 49 785 44 700 q 64 956 53 869 q 78 1004 64 979 q 91 1017 85 1011 q 108 1029 97 1024 q 124 1040 115 1036 q 144 1046 133 1043 q 203 1046 172 1054 q 219 1041 211 1043 q 236 1036 228 1039 q 240 1033 239 1033 q 243 1031 240 1033 q 279 1007 264 1022 l 307 979 q 312 973 308 976 q 318 964 315 969 q 338 933 328 949 q 356 901 347 917 q 428 766 394 835 q 492 629 461 697 q 546 509 519 568 q 600 390 572 450 q 604 525 603 458 q 608 658 606 592 q 610 831 611 746 q 606 1001 608 917 q 622 1050 606 1029 q 631 1059 626 1056 q 639 1069 635 1063 q 688 1092 661 1088 q 715 1096 701 1096 q 738 1094 726 1096 q 758 1089 750 1093 q 777 1080 768 1085 q 793 1069 786 1075 q 815 1038 810 1056 q 824 1021 822 1031 q 825 1001 825 1011 z "},"M":{"ha":1060,"x_min":43,"x_max":1025,"o":"m 1014 803 q 1005 621 1008 711 q 1004 439 1001 531 q 1010 258 1004 347 q 1025 78 1015 168 q 1013 28 1025 49 q 1004 18 1008 22 q 994 7 1000 14 q 972 -8 985 -1 q 946 -18 960 -14 q 931 -19 939 -18 q 917 -19 924 -19 q 896 -18 906 -19 q 876 -12 886 -17 q 843 7 858 -6 q 826 22 832 14 q 818 40 821 31 q 808 78 808 60 q 799 178 803 126 q 792 279 794 229 q 787 397 788 338 q 786 515 786 456 q 783 506 785 510 q 778 499 781 501 q 700 351 739 424 q 621 206 661 279 q 582 172 606 186 q 568 168 575 171 q 556 164 561 165 q 497 164 526 153 q 484 168 490 165 q 471 172 478 171 q 463 176 467 176 q 460 178 461 178 q 458 179 460 178 q 457 181 457 179 q 426 206 438 190 q 407 239 408 221 q 374 309 390 275 q 342 379 358 343 q 301 465 321 424 q 261 549 281 507 q 261 493 261 521 q 260 436 261 465 q 260 267 260 351 q 261 97 260 183 q 247 49 261 71 q 240 39 243 43 q 231 29 238 35 q 181 4 214 8 q 167 3 175 4 q 153 0 160 1 q 132 2 142 0 q 114 7 122 4 q 78 29 90 17 q 54 60 63 42 q 44 97 44 78 q 44 192 44 146 q 43 286 43 239 q 47 626 43 456 q 53 795 50 711 q 61 964 56 879 q 78 1013 61 992 q 94 1033 85 1024 q 117 1050 104 1043 q 169 1061 146 1061 q 199 1058 186 1061 q 225 1050 213 1056 q 261 1022 246 1036 q 288 990 279 1006 q 304 958 299 976 q 329 910 318 935 q 350 863 340 886 q 419 720 386 790 q 483 578 451 650 q 506 527 494 551 q 528 479 517 503 q 602 619 565 550 q 676 758 639 688 q 749 906 713 832 q 821 1054 786 981 q 849 1081 831 1071 q 867 1092 857 1088 q 888 1099 876 1096 q 901 1100 893 1100 q 915 1103 908 1100 q 929 1100 922 1100 q 943 1099 936 1100 q 963 1092 954 1096 q 982 1081 972 1088 q 1001 1064 996 1074 q 1013 1049 1010 1057 q 1021 1031 1017 1042 q 1022 1017 1021 1024 q 1024 1006 1024 1011 q 1018 903 1021 954 q 1014 803 1015 853 z "},"L":{"ha":554,"x_min":32,"x_max":529,"o":"m 528 133 q 528 118 528 126 q 529 103 529 110 q 528 83 529 93 q 521 64 526 72 q 512 45 518 53 q 500 31 506 38 q 483 15 492 21 q 465 6 475 10 q 444 -1 454 1 q 422 -4 433 -4 q 407 -4 415 -4 q 392 -6 399 -4 q 264 -6 328 -7 q 249 -6 257 -6 q 232 -4 240 -6 q 207 -1 219 -4 q 179 4 194 1 q 156 10 167 6 q 132 21 146 14 q 92 53 111 32 q 63 91 75 68 q 44 136 50 114 q 39 163 40 150 q 35 188 38 175 l 35 214 q 33 275 32 243 q 35 339 35 307 q 42 645 35 492 q 56 954 49 799 q 71 1008 56 982 q 80 1020 76 1015 q 88 1029 83 1025 q 135 1056 110 1050 q 149 1059 142 1058 q 163 1061 156 1060 q 185 1060 174 1061 q 204 1051 196 1058 q 223 1042 214 1047 q 239 1029 232 1038 q 260 994 254 1014 q 268 975 267 985 q 269 954 269 965 q 265 849 268 901 q 260 744 263 797 q 257 674 258 699 q 255 628 256 649 q 253 583 254 608 q 251 513 253 558 q 249 470 250 489 q 249 434 249 451 q 249 398 249 417 q 249 356 249 379 l 249 264 q 248 235 249 249 q 249 208 247 222 q 285 206 268 206 q 319 206 301 206 q 372 207 347 206 q 422 211 397 208 q 451 208 438 211 q 478 197 464 204 q 488 190 483 193 q 500 179 493 186 q 516 159 510 171 q 528 133 522 147 z "},"K":{"ha":724,"x_min":26,"x_max":704,"o":"m 672 150 q 701 99 697 126 q 692 49 704 72 q 653 11 679 26 q 594 -4 628 -4 q 556 2 575 -4 q 522 21 538 8 q 516 26 519 24 q 510 29 513 28 q 470 63 490 46 q 431 99 450 81 q 388 147 410 122 q 343 194 365 171 q 312 234 328 214 q 281 275 296 254 q 270 291 275 282 q 261 307 265 300 q 253 191 257 249 q 243 75 250 133 q 228 29 243 51 q 211 11 224 24 q 164 -11 190 -7 q 150 -13 157 -11 q 136 -15 143 -15 q 113 -12 125 -15 q 93 -7 101 -10 q 75 1 82 -4 q 61 11 68 6 q 35 39 44 22 q 26 75 26 57 q 35 176 32 125 q 40 276 39 226 q 49 457 47 367 q 49 638 50 547 q 44 817 49 728 q 33 999 39 907 q 67 1063 32 1036 q 113 1086 85 1081 q 127 1087 119 1086 q 142 1088 135 1088 q 183 1082 163 1088 q 201 1073 192 1078 q 217 1063 210 1068 q 239 1033 233 1050 q 248 1017 244 1026 q 251 999 251 1008 q 256 897 254 947 q 263 796 258 846 q 263 730 263 764 q 264 664 264 696 q 382 788 335 715 q 449 951 429 860 q 451 976 451 963 q 451 1003 451 989 q 468 1046 453 1025 q 476 1056 472 1051 q 485 1065 479 1060 q 532 1088 506 1083 q 547 1090 540 1090 q 560 1092 553 1090 q 603 1085 585 1092 q 622 1077 614 1082 q 638 1065 631 1072 q 660 1038 653 1050 q 666 1021 663 1029 q 668 1003 669 1013 l 668 988 q 646 849 668 917 q 585 721 624 782 q 495 607 546 660 q 386 513 444 554 q 381 510 383 511 q 376 508 378 508 q 389 487 383 497 q 403 465 394 476 q 440 407 419 436 q 483 346 460 378 q 523 293 503 319 q 567 242 543 267 q 574 235 571 239 q 582 228 578 231 q 626 187 603 207 q 672 150 650 167 z "},"I":{"ha":569,"x_min":40,"x_max":547,"o":"m 542 106 q 545 92 544 99 q 547 78 546 85 q 546 56 547 67 q 538 36 544 44 q 528 17 533 26 q 514 1 524 8 q 499 -11 507 -6 q 481 -19 492 -17 q 461 -28 471 -26 q 440 -29 451 -29 l 376 -29 q 262 -31 318 -28 q 150 -40 206 -35 q 121 -36 133 -40 q 96 -25 108 -32 q 85 -18 90 -21 q 74 -8 79 -15 q 46 39 56 7 q 44 53 46 46 q 43 68 43 60 q 44 89 40 79 q 51 107 47 99 q 74 142 57 126 q 90 156 81 150 q 107 165 99 161 q 128 172 118 169 q 150 175 138 175 q 169 176 158 175 q 192 176 181 176 q 192 247 192 213 q 193 317 192 282 q 193 451 193 392 q 193 570 193 511 q 193 695 193 629 q 193 849 193 761 q 173 850 183 849 q 153 851 163 851 q 88 874 119 851 q 47 929 56 896 q 47 944 47 936 q 46 960 46 951 q 46 980 43 969 q 54 999 49 990 q 75 1035 58 1019 q 110 1057 89 1049 q 153 1067 132 1067 q 181 1065 167 1067 q 213 1063 196 1063 q 310 1063 260 1060 q 422 1068 361 1065 q 478 1053 451 1068 q 488 1044 482 1049 q 499 1036 493 1040 q 515 1015 507 1026 q 525 990 522 1003 q 527 976 526 983 q 531 961 528 968 q 528 940 531 950 q 521 918 525 929 q 511 901 517 910 q 499 885 506 892 q 463 864 483 869 q 422 854 447 854 q 408 851 413 854 q 408 683 408 760 q 408 531 408 607 q 406 373 407 456 q 406 185 406 290 l 440 185 q 493 169 467 185 q 503 160 499 164 q 514 153 508 157 q 542 106 536 133 z "},"J":{"ha":888,"x_min":35,"x_max":844,"o":"m 825 793 q 831 711 829 751 q 836 632 833 671 q 837 469 844 551 q 806 306 829 386 q 788 262 797 285 q 768 219 779 239 q 715 140 747 181 q 692 116 704 128 q 667 94 681 104 q 594 42 636 65 q 568 29 582 35 q 540 17 554 24 q 525 12 533 14 q 510 8 517 10 q 487 3 497 6 q 465 -1 476 0 q 442 -2 453 -1 q 419 -3 431 -3 q 390 -2 404 -3 q 360 0 375 -1 q 344 4 351 3 q 331 8 338 6 q 302 19 315 14 q 276 31 289 24 q 261 36 269 33 q 246 46 253 39 q 222 63 233 54 q 199 79 210 71 q 175 103 186 90 q 156 125 167 114 q 139 149 146 136 q 130 163 133 156 q 122 176 126 169 q 103 219 113 197 q 92 264 94 242 q 87 312 89 288 q 88 360 85 336 q 105 421 88 396 q 148 458 122 446 q 203 471 174 471 q 256 458 232 471 q 293 422 279 446 q 301 360 307 397 q 301 306 296 335 q 325 257 306 278 q 334 245 329 250 q 343 236 339 240 q 359 227 351 231 q 374 219 367 224 q 407 210 389 214 l 438 210 q 457 216 449 213 q 475 222 465 219 q 498 233 488 228 q 518 246 508 239 q 538 263 529 254 q 557 283 546 272 q 576 315 567 299 q 590 349 585 331 q 609 400 601 372 q 621 456 617 428 q 624 614 631 535 q 613 776 617 693 q 609 824 611 800 q 606 871 607 847 q 581 868 593 869 q 557 864 568 867 q 453 851 504 857 q 349 838 401 844 q 245 824 296 831 q 143 810 194 817 q 68 838 96 810 q 38 903 40 867 q 60 976 35 940 q 143 1025 85 1011 q 201 1033 172 1029 q 258 1040 229 1038 q 453 1065 350 1051 q 649 1092 557 1078 q 703 1094 675 1096 q 756 1082 732 1093 q 794 1049 779 1071 q 810 993 810 1028 q 811 974 810 985 q 813 956 813 964 q 819 873 815 914 q 825 793 822 832 z "},"}":{"ha":626,"x_min":29,"x_max":596,"o":"m 586 489 q 592 477 589 483 q 594 464 594 471 q 594 439 596 453 q 588 423 590 432 q 579 404 586 414 q 571 395 575 399 q 563 385 567 392 q 552 380 557 382 q 540 372 547 378 q 535 372 536 372 q 531 369 533 371 q 519 364 526 367 q 508 354 513 361 q 500 349 503 351 q 493 343 497 346 q 488 335 490 340 q 483 326 486 331 q 474 307 476 317 q 471 289 472 297 q 469 237 468 261 q 469 188 469 213 q 466 127 469 157 q 458 69 463 97 q 451 47 454 58 q 443 25 447 36 q 429 -6 436 10 q 411 -35 422 -21 q 383 -65 403 -49 q 363 -83 374 -78 q 343 -93 353 -87 q 308 -115 325 -107 q 272 -131 292 -122 q 219 -142 246 -139 q 164 -150 192 -146 q 108 -150 136 -161 q 97 -146 103 -149 q 85 -142 92 -143 q 56 -119 67 -133 q 39 -85 46 -104 q 38 -49 29 -68 q 41 -31 38 -39 q 50 -15 44 -24 q 59 1 53 -4 q 75 13 65 6 q 108 28 92 24 q 160 35 135 31 q 210 47 186 39 q 217 52 213 50 q 225 57 221 54 q 238 65 231 58 q 242 73 239 68 q 247 83 244 78 q 258 124 254 103 q 261 159 260 142 q 263 196 263 176 q 263 276 258 235 q 268 306 267 292 q 272 338 269 321 q 276 356 274 346 q 282 378 279 367 q 303 417 293 397 q 329 457 314 438 q 274 550 289 497 q 269 582 271 567 q 263 611 267 597 q 263 653 258 631 q 276 738 268 696 q 296 824 285 779 q 296 878 297 849 q 290 896 293 886 q 282 914 288 906 q 269 941 275 929 q 251 964 264 953 q 213 999 232 983 q 174 1033 193 1015 q 153 1044 163 1039 q 138 1056 144 1050 q 116 1068 125 1058 q 100 1089 107 1078 q 95 1101 97 1093 q 89 1111 93 1108 q 100 1182 78 1151 q 110 1197 104 1190 q 124 1208 117 1203 q 143 1219 135 1215 q 163 1226 151 1222 q 204 1228 182 1229 q 222 1223 214 1226 q 239 1217 229 1219 q 303 1176 271 1197 q 364 1131 335 1154 q 385 1111 374 1119 q 404 1089 397 1103 q 426 1060 414 1075 q 449 1031 439 1046 q 467 997 460 1014 q 483 964 475 981 q 492 940 489 953 q 499 914 494 928 q 503 876 501 894 q 504 838 504 857 q 499 799 501 818 q 490 760 497 779 q 481 710 488 735 q 469 663 474 686 q 469 615 468 638 q 470 606 469 611 q 472 594 471 601 q 480 587 478 590 q 486 578 482 583 q 505 561 496 569 q 525 544 514 553 q 532 539 529 542 q 540 535 535 536 q 572 510 560 525 q 581 500 578 506 q 586 489 583 494 z "},"|":{"ha":315,"x_min":31,"x_max":294,"o":"m 188 1083 q 229 1075 208 1085 q 265 1050 250 1065 q 285 1017 276 1038 q 294 975 294 996 q 269 460 279 719 q 247 -79 260 201 q 239 -119 246 -100 q 214 -154 232 -139 q 179 -177 199 -171 q 140 -185 160 -183 q 63 -154 96 -185 q 40 -120 49 -142 q 33 -79 31 -99 q 42 101 39 25 q 48 237 46 178 q 52 343 50 296 q 56 436 54 390 q 60 531 58 482 q 65 642 63 579 q 72 785 68 704 q 82 975 76 865 q 113 1050 82 1017 q 147 1075 126 1067 q 188 1083 167 1083 z "},"{":{"ha":596,"x_min":39,"x_max":583,"o":"m 529 1203 q 558 1177 544 1193 q 574 1146 571 1161 q 576 1110 583 1128 q 574 1091 576 1100 q 568 1075 571 1082 q 553 1060 560 1067 q 538 1049 546 1053 q 522 1037 531 1042 q 504 1031 514 1032 q 458 1023 479 1028 q 417 1011 436 1018 q 396 1003 406 1008 q 375 992 386 999 q 367 985 371 988 q 356 979 364 982 q 351 967 353 971 q 346 954 346 957 l 346 917 q 368 840 354 876 q 380 790 375 817 q 389 738 385 763 q 389 717 389 728 q 388 696 389 707 q 382 666 385 681 q 374 636 379 651 q 358 606 364 621 q 340 579 351 590 q 331 566 336 572 q 318 553 325 560 q 342 529 331 542 q 361 503 354 517 q 375 486 374 496 q 385 465 379 475 q 394 443 392 454 q 400 416 397 429 q 406 392 403 403 l 406 363 q 403 338 406 351 q 399 311 401 324 q 392 252 396 282 q 383 194 388 222 q 378 163 381 179 q 375 132 376 147 q 374 111 375 121 q 374 90 374 101 q 375 88 375 89 q 379 81 376 82 q 384 73 381 75 q 390 68 388 71 q 413 56 403 63 q 438 43 424 50 q 446 41 440 42 q 454 39 451 40 q 481 30 469 36 q 506 14 493 24 q 512 5 508 8 q 519 -3 515 1 q 533 -40 531 -21 q 532 -75 536 -58 q 524 -94 529 -86 q 513 -110 518 -101 q 500 -123 507 -117 q 482 -132 493 -129 q 442 -144 464 -142 q 401 -143 424 -151 q 362 -128 382 -136 q 322 -114 342 -121 q 300 -103 313 -110 q 276 -90 288 -97 q 245 -69 260 -79 q 219 -47 231 -60 q 206 -29 213 -37 q 193 -12 199 -21 q 181 8 185 -1 q 172 29 178 18 q 165 52 168 39 q 160 76 163 65 q 158 92 158 86 q 158 107 158 99 q 167 165 160 133 q 174 215 169 186 q 183 273 179 243 q 190 333 188 303 q 190 388 192 363 q 190 392 190 390 q 189 397 189 394 q 181 406 183 406 q 160 424 176 415 q 126 443 143 435 q 93 463 108 451 q 53 496 67 474 q 39 543 39 518 q 53 589 39 567 q 93 624 67 611 q 102 632 96 628 q 114 639 108 636 q 158 676 139 654 q 172 693 167 688 q 178 707 175 704 q 177 726 178 718 q 174 742 176 733 q 163 793 171 768 q 147 843 154 818 q 138 879 140 863 q 131 915 136 896 q 131 952 129 935 q 138 989 132 969 q 148 1024 142 1006 q 163 1057 154 1042 q 172 1067 169 1063 q 179 1076 175 1072 q 192 1095 186 1086 q 210 1111 199 1104 q 269 1157 232 1138 q 294 1167 283 1163 q 317 1176 306 1172 q 354 1191 335 1185 q 394 1203 374 1197 q 419 1209 407 1206 q 446 1215 431 1213 q 504 1215 472 1217 q 516 1208 511 1211 q 529 1203 521 1206 z "},"z":{"ha":725,"x_min":26,"x_max":703,"o":"m 689 179 q 694 167 692 172 q 699 154 697 161 q 702 132 701 143 q 703 113 703 121 q 699 91 703 101 q 689 69 696 81 q 668 44 681 54 q 639 29 656 35 q 603 20 622 24 q 565 14 585 17 q 439 1 501 6 q 310 -7 376 -4 q 278 -8 294 -7 q 246 -8 263 -8 l 215 -8 q 203 -7 206 -8 q 184 -6 196 -7 q 164 -1 172 -6 q 151 4 160 1 q 136 14 142 7 l 131 14 q 120 22 126 18 q 108 33 114 26 q 97 44 103 36 q 85 60 92 53 q 74 90 76 76 q 69 124 72 104 l 69 131 q 72 149 72 140 q 74 164 72 157 q 76 171 75 167 q 79 178 76 175 q 86 195 82 186 q 96 215 90 204 q 101 227 97 221 q 107 240 104 233 q 164 345 135 293 q 225 446 193 397 q 286 546 257 496 q 346 644 315 596 q 381 705 365 674 q 414 768 397 736 q 290 767 353 769 q 164 754 226 765 q 107 754 138 750 q 95 760 100 757 q 81 768 90 763 q 43 806 54 782 q 40 817 42 811 q 35 831 38 824 q 31 875 26 851 q 35 893 31 883 q 43 913 39 903 q 72 942 53 933 q 107 961 85 956 q 137 967 122 964 q 167 971 151 969 q 297 981 233 978 q 426 981 360 983 q 490 976 458 981 q 534 972 511 976 q 578 958 557 967 q 616 934 599 949 q 643 900 633 919 q 653 883 650 893 q 660 863 657 874 q 663 845 661 856 q 663 824 665 835 q 660 797 661 810 q 654 774 658 785 q 642 745 647 758 q 629 718 636 732 q 575 613 604 664 q 514 511 546 563 q 453 408 485 458 q 390 303 422 357 q 363 258 375 282 q 335 210 350 235 q 451 217 393 214 q 567 231 508 221 q 634 223 603 235 q 689 179 665 211 z "},"y":{"ha":731,"x_min":35,"x_max":710,"o":"m 675 735 q 697 697 696 717 q 707 657 710 678 l 707 626 q 703 507 707 567 q 697 386 700 447 q 688 260 693 324 q 671 133 682 197 q 662 78 667 106 q 649 25 657 51 q 628 -39 640 -7 q 601 -101 617 -71 q 581 -144 593 -124 q 557 -183 569 -164 q 522 -230 542 -207 q 481 -272 503 -253 q 454 -297 468 -286 q 426 -318 440 -307 q 408 -331 418 -325 q 389 -344 399 -337 q 325 -372 358 -361 q 282 -387 300 -383 q 224 -387 251 -397 q 160 -339 186 -375 q 156 -326 158 -332 q 150 -312 153 -321 q 146 -292 147 -301 q 147 -271 144 -282 q 151 -249 147 -260 q 160 -229 154 -239 q 189 -201 172 -212 q 224 -183 203 -185 q 240 -176 232 -179 q 257 -169 249 -174 q 285 -156 272 -164 q 310 -140 297 -149 q 340 -113 325 -128 q 367 -82 356 -99 q 394 -39 381 -61 q 418 8 408 -17 q 438 63 429 35 q 453 122 446 90 l 453 121 q 417 94 433 107 q 381 72 400 82 q 356 61 368 65 q 329 53 343 57 q 308 50 318 51 q 286 49 297 49 l 272 49 q 245 51 260 49 q 219 58 231 53 q 171 79 193 65 q 142 103 156 89 q 132 111 133 107 q 114 130 122 119 q 99 150 106 140 q 91 163 94 157 q 83 175 88 168 q 63 226 68 200 q 52 271 56 249 q 46 315 49 293 q 40 383 42 349 q 36 453 39 418 q 37 592 35 524 q 46 731 39 661 q 61 785 46 761 q 67 797 64 792 q 76 807 69 801 q 130 837 99 831 q 193 832 161 843 q 211 822 203 828 q 226 807 219 817 q 242 791 236 800 q 250 774 247 782 q 257 753 254 763 q 260 731 260 743 q 254 685 257 707 q 251 639 251 663 q 249 555 249 597 q 250 472 249 513 q 263 344 250 390 q 297 291 275 297 q 349 321 318 285 q 417 440 379 357 q 424 458 421 447 q 432 476 428 468 q 465 581 449 529 q 497 686 482 632 q 529 737 506 714 q 585 763 553 760 q 615 763 599 764 q 654 750 635 763 q 675 735 664 740 z "},"x":{"ha":707,"x_min":25,"x_max":690,"o":"m 569 583 q 531 513 550 547 q 489 444 513 479 q 478 426 486 436 q 465 404 471 415 q 468 399 467 401 q 472 393 469 396 q 517 331 494 361 q 564 271 540 301 q 611 210 588 240 q 660 149 635 181 q 669 125 665 136 q 672 101 672 114 q 670 87 671 93 q 667 74 669 81 q 642 31 663 51 q 631 22 635 25 q 622 15 626 18 q 582 0 603 3 q 559 -1 569 -1 q 535 1 549 -1 q 517 11 526 8 q 500 21 507 14 q 483 35 490 28 q 468 50 476 42 q 464 56 465 53 q 458 63 463 60 q 413 124 435 94 q 365 183 390 154 q 358 194 361 190 q 351 203 356 199 q 340 185 344 194 q 329 167 335 176 q 291 95 310 131 q 253 26 272 60 q 211 -10 236 4 q 199 -13 204 -11 q 185 -18 193 -15 q 126 -18 156 -29 q 114 -13 121 -15 q 100 -10 107 -11 q 84 2 92 -4 q 71 17 76 8 q 56 50 57 32 q 48 69 50 58 q 50 89 46 79 q 54 108 50 100 q 63 126 58 115 q 68 135 67 131 q 71 144 69 140 q 113 215 92 181 q 156 283 133 249 q 188 340 171 311 q 221 396 204 368 q 193 439 204 419 q 151 504 171 471 q 111 569 131 538 q 76 636 94 604 q 40 700 57 668 q 31 727 35 715 q 25 753 26 739 q 28 779 28 767 q 40 802 33 792 q 58 821 47 813 q 68 829 64 825 q 78 838 72 833 q 121 847 96 847 q 138 851 128 853 q 160 847 149 850 q 181 841 171 844 q 201 831 192 838 q 216 817 208 824 q 226 804 224 811 q 232 793 231 797 q 236 783 233 789 q 274 719 256 753 q 310 654 292 686 q 324 628 318 639 q 336 604 329 617 q 365 652 351 628 q 392 700 379 676 q 433 770 413 736 q 472 840 453 804 q 546 893 501 886 q 626 881 590 900 q 676 824 663 863 q 660 743 690 786 q 655 731 657 736 q 650 724 653 726 q 610 653 629 689 q 569 583 590 618 z "},"w":{"ha":1126,"x_min":38,"x_max":1085,"o":"m 1078 626 q 1080 544 1078 585 q 1083 463 1082 503 q 1085 385 1085 424 q 1082 307 1085 346 q 1074 256 1079 283 q 1063 203 1069 229 q 1053 169 1060 188 q 1043 133 1047 151 l 1039 119 q 1028 100 1033 110 q 1017 79 1024 90 l 1001 57 l 963 15 q 945 6 954 11 q 929 -6 936 0 q 926 -8 926 -6 q 922 -10 925 -10 q 905 -17 914 -14 q 889 -24 896 -19 q 881 -25 886 -25 q 874 -25 876 -25 q 856 -27 865 -26 q 838 -28 846 -28 l 828 -28 q 809 -27 818 -28 q 790 -25 800 -26 q 782 -24 788 -25 q 772 -19 774 -24 q 756 -15 764 -17 q 738 -6 749 -12 q 714 9 725 0 q 688 29 703 18 q 674 38 681 35 q 663 49 667 42 q 639 75 644 63 q 617 98 629 86 q 599 121 606 110 l 564 182 q 547 216 556 197 q 531 253 539 235 q 510 206 522 229 q 485 158 497 182 q 469 129 478 143 q 451 100 461 115 q 432 81 442 92 q 413 58 422 69 q 400 45 406 51 q 390 36 394 39 q 376 25 382 32 q 336 1 361 10 q 331 -5 333 -3 q 324 -10 328 -7 q 307 -16 317 -14 q 290 -19 297 -18 q 282 -24 289 -24 l 278 -25 q 261 -26 269 -25 q 247 -26 253 -26 l 235 -26 q 222 -26 229 -26 q 207 -25 214 -25 l 201 -24 q 194 -19 196 -24 q 178 -15 188 -18 q 161 -6 168 -12 l 157 -6 q 146 3 151 0 q 132 11 140 6 q 124 18 129 17 q 107 42 115 32 q 93 65 99 53 q 81 93 86 81 q 69 121 75 106 q 53 188 58 151 q 44 271 46 231 q 40 354 43 311 q 40 432 40 394 q 38 510 39 469 q 38 584 38 547 q 40 661 39 621 q 44 813 39 736 q 63 864 44 840 q 70 872 65 868 q 78 883 75 876 q 101 900 88 893 q 126 911 114 907 q 142 912 135 911 q 157 913 150 913 q 200 904 181 917 q 219 897 211 903 q 236 883 226 892 q 257 853 251 868 q 266 833 264 843 q 268 813 268 824 q 265 747 265 779 q 263 683 264 715 l 263 454 q 265 397 264 425 q 265 339 265 368 q 270 263 265 283 q 284 247 275 242 q 306 278 293 251 q 333 346 318 306 q 362 427 350 386 q 385 511 374 468 q 418 681 403 592 q 449 725 428 704 q 456 729 453 726 q 464 733 458 732 q 469 738 467 736 q 472 743 471 740 l 475 743 l 476 743 q 481 746 478 743 q 493 751 488 749 q 507 754 499 753 q 529 759 518 758 q 550 758 540 760 q 572 755 561 758 q 592 746 582 751 q 622 718 610 736 q 633 703 628 713 q 640 685 639 693 q 654 641 647 664 q 669 593 661 618 q 690 516 679 556 q 711 436 700 476 q 750 303 721 367 q 798 224 778 236 q 832 235 818 213 q 854 304 846 257 q 865 406 863 351 q 861 615 871 510 q 842 829 851 721 q 857 882 843 856 q 868 891 864 886 q 876 903 872 896 q 899 918 888 913 q 926 929 911 924 q 941 931 933 929 q 957 932 949 932 q 1001 922 981 932 q 1019 914 1008 918 q 1036 903 1029 910 q 1048 887 1042 894 q 1057 869 1054 879 q 1063 829 1067 847 q 1066 808 1065 818 q 1067 792 1067 799 l 1078 626 l 1078 626 z "},"v":{"ha":728,"x_min":17,"x_max":711,"o":"m 697 831 q 707 788 707 810 q 706 744 711 767 q 702 728 704 738 q 699 711 700 718 q 689 670 694 693 q 678 623 683 647 q 667 576 672 599 q 657 535 661 553 q 641 463 650 499 q 622 390 632 428 q 605 326 615 358 q 583 261 594 294 q 567 218 576 239 q 550 174 558 197 q 536 142 543 158 q 519 114 529 126 q 513 100 517 107 q 503 86 510 93 q 496 74 497 81 q 482 58 492 64 q 476 49 481 53 q 469 42 472 44 q 464 35 467 39 q 460 29 461 31 q 448 22 454 25 q 436 11 442 18 q 433 8 433 11 q 431 8 432 8 q 426 7 429 7 q 412 -1 419 1 q 397 -6 404 -3 l 396 -7 l 389 -7 q 373 -11 382 -10 q 357 -12 364 -12 l 356 -12 q 344 -12 351 -12 q 332 -11 338 -12 q 319 -9 325 -11 q 307 -6 314 -7 q 288 2 299 -3 q 269 11 276 7 q 258 22 263 18 q 246 29 253 25 q 242 30 243 29 q 240 31 242 31 q 238 35 240 35 q 235 39 236 36 q 223 54 228 46 q 213 72 218 63 q 206 79 208 75 q 201 86 204 83 q 194 105 199 94 q 186 124 190 115 q 181 138 185 129 q 176 154 178 147 q 156 226 165 192 q 135 299 146 261 q 113 369 124 335 q 96 442 103 404 q 77 513 86 476 q 60 583 68 549 q 41 658 49 621 q 24 731 33 694 q 24 785 17 758 q 30 798 26 790 q 36 813 33 806 q 53 833 43 824 q 74 850 63 843 q 87 855 81 851 q 100 860 93 858 q 140 864 114 867 q 182 850 161 864 q 213 822 200 840 q 223 806 219 815 q 231 785 226 797 q 247 719 238 753 q 264 650 257 686 q 295 529 279 590 q 328 408 311 468 q 344 347 335 378 q 363 289 354 317 l 363 282 q 379 322 371 303 q 394 364 388 342 q 422 462 410 413 q 443 561 433 511 q 458 619 450 588 q 473 683 465 650 q 488 746 481 715 q 500 801 494 776 q 509 828 503 817 q 529 850 515 840 q 538 860 533 856 q 550 867 543 864 q 576 878 561 875 q 603 881 590 881 q 617 880 610 881 q 632 879 625 879 q 653 872 644 876 q 667 860 661 868 q 684 847 678 854 q 697 831 690 839 z "},"u":{"ha":843,"x_min":35,"x_max":822,"o":"m 793 574 q 807 342 801 458 q 822 96 813 225 q 806 42 822 67 q 798 31 801 36 q 789 19 794 25 q 767 3 781 8 q 743 -8 754 -3 q 729 -10 736 -8 q 714 -11 722 -11 q 672 -1 692 -11 q 654 8 663 3 q 639 19 646 13 q 615 57 621 35 q 609 75 613 65 q 607 96 606 85 q 604 132 606 115 q 603 167 603 149 q 588 146 596 157 q 572 124 579 135 q 559 111 565 117 q 547 99 553 106 q 536 85 543 92 q 521 75 529 79 q 499 57 510 65 q 472 42 488 49 q 457 35 465 38 q 438 24 449 28 q 418 17 428 21 q 402 12 411 14 q 386 8 393 10 q 356 3 371 6 q 325 0 342 0 q 318 1 322 0 q 307 4 314 1 q 265 8 286 4 q 236 17 250 13 q 210 31 222 22 q 185 44 197 35 q 164 60 174 53 q 152 72 157 67 q 142 81 147 76 q 124 103 132 92 q 107 124 115 114 q 101 137 104 131 q 94 150 99 143 q 83 176 88 163 q 74 203 78 190 q 65 234 69 219 q 58 264 61 249 q 51 311 54 288 q 47 358 49 335 q 43 400 44 379 q 40 444 42 421 q 36 613 35 525 q 41 697 39 656 q 49 781 43 738 q 63 836 49 813 q 72 847 67 842 q 79 858 76 851 q 101 873 90 867 q 128 882 113 879 q 142 885 135 885 q 156 888 149 886 q 176 886 167 888 q 197 879 186 885 q 216 870 207 875 q 232 858 225 865 q 253 821 244 844 q 261 802 260 813 q 263 781 263 792 q 258 730 260 756 q 253 678 256 704 q 250 587 251 632 q 251 494 249 542 q 255 414 253 454 q 263 333 257 374 q 271 293 267 314 q 282 253 275 272 q 289 242 286 247 q 296 231 292 238 q 304 222 299 225 q 311 218 306 219 q 321 215 317 218 l 333 215 q 346 219 340 218 q 358 222 351 219 q 370 228 364 225 q 382 236 376 232 q 413 268 400 251 q 443 317 429 292 q 471 369 457 342 q 494 440 483 406 q 519 513 510 476 q 538 589 529 550 q 557 663 549 626 q 574 738 565 700 q 603 785 582 767 q 624 801 615 793 q 644 812 635 808 q 665 815 654 815 q 693 815 679 817 q 731 801 713 815 q 742 792 738 796 q 753 785 747 789 q 778 750 768 772 q 783 731 782 740 q 785 710 785 721 q 789 642 788 676 q 793 574 790 607 z "},"t":{"ha":700,"x_min":19,"x_max":683,"o":"m 471 217 q 501 268 481 250 q 548 291 522 286 q 599 289 574 296 q 645 265 625 282 q 674 223 665 249 q 675 165 683 197 q 667 142 672 153 q 656 118 663 131 q 610 56 640 86 q 553 6 590 29 q 542 1 547 4 q 531 -7 538 -3 q 506 -16 518 -11 q 481 -26 494 -21 q 456 -30 469 -29 q 429 -33 443 -31 q 406 -33 417 -35 q 328 -19 367 -33 q 303 -10 317 -14 q 282 1 290 -6 q 261 13 271 6 q 242 28 251 21 q 225 45 232 35 q 211 65 218 56 q 194 91 200 79 q 185 115 189 103 q 175 144 178 131 q 169 174 172 158 q 151 315 157 244 q 147 458 146 386 l 147 479 q 136 478 140 478 q 128 478 132 478 q 62 501 88 478 q 28 557 36 525 q 33 620 19 589 q 86 667 46 651 q 120 675 103 674 q 157 679 138 676 q 158 702 157 690 q 161 725 158 714 q 165 855 164 790 q 163 986 167 919 q 185 1041 167 1019 q 226 1073 203 1063 q 277 1082 250 1083 q 326 1069 304 1081 q 363 1038 349 1058 q 378 986 378 1017 q 378 842 381 914 q 372 686 375 769 q 424 691 399 689 q 476 694 449 693 q 529 683 503 694 q 540 675 535 681 q 551 667 546 669 q 578 625 571 644 q 579 610 579 617 q 581 597 579 604 q 574 558 581 574 q 563 541 569 547 q 551 526 557 535 q 535 515 544 519 q 514 507 525 510 q 496 500 506 501 q 476 499 486 499 q 437 494 456 496 q 399 490 418 493 q 379 489 389 490 q 358 488 369 488 q 359 373 357 431 q 369 257 361 315 q 374 233 372 243 q 378 213 375 224 q 397 173 383 182 q 426 168 411 164 q 453 186 440 172 q 471 217 467 200 z "},"s":{"ha":665,"x_min":38,"x_max":635,"o":"m 439 696 q 339 731 379 739 q 281 688 299 722 q 271 605 264 653 q 311 519 278 557 q 333 498 322 507 q 353 479 343 489 l 353 478 q 356 476 353 476 q 416 436 385 456 q 475 397 447 417 q 515 368 494 383 q 551 336 535 353 q 603 269 578 304 q 631 189 628 235 q 602 79 635 124 q 519 6 569 35 q 409 -34 469 -22 q 297 -46 349 -46 q 244 -46 269 -49 q 192 -39 218 -43 q 115 -18 151 -32 q 68 10 86 -7 q 51 32 61 24 q 38 86 38 60 q 40 101 39 93 q 43 115 40 108 q 61 150 46 136 q 74 167 67 161 q 89 181 81 174 q 110 188 100 185 q 131 192 119 192 q 174 189 154 194 q 209 176 190 182 q 247 167 228 171 q 279 161 251 163 q 335 163 307 160 q 379 176 364 165 q 372 208 394 188 q 367 213 368 213 q 328 240 347 226 q 290 265 308 253 q 240 298 264 282 q 192 333 215 314 q 176 349 185 340 q 161 368 168 357 q 144 386 151 376 q 131 406 138 396 q 123 416 126 411 q 115 428 119 421 q 86 493 100 457 q 72 536 78 517 q 65 573 67 554 q 61 610 64 592 l 61 656 q 65 683 64 671 q 68 708 65 696 q 69 718 68 713 q 72 729 71 724 q 76 741 75 735 q 81 753 78 747 q 89 776 85 764 q 99 800 93 788 q 119 831 108 815 q 142 863 129 847 q 149 870 146 865 q 158 879 153 875 q 173 891 165 885 q 188 903 181 897 q 200 908 193 907 q 218 919 207 915 q 242 930 231 925 q 265 939 253 935 q 277 942 271 940 q 290 943 283 943 q 315 947 303 946 q 340 949 328 949 l 363 949 q 390 944 378 946 q 415 940 403 943 q 453 928 435 936 q 490 914 471 921 q 511 901 500 908 q 533 888 522 894 q 565 867 550 879 q 593 843 579 856 q 622 794 615 821 q 625 781 625 788 q 626 767 625 774 q 614 713 626 738 q 603 701 607 706 q 593 692 599 696 q 579 679 586 685 q 561 669 572 674 q 541 661 551 663 q 519 660 531 660 q 497 661 507 660 q 476 669 488 663 q 443 692 458 679 q 440 693 442 693 q 439 696 439 693 z "},"r":{"ha":674,"x_min":39,"x_max":658,"o":"m 279 731 q 379 785 326 772 q 482 785 432 797 q 576 736 532 772 q 649 643 619 700 q 649 586 658 614 q 643 573 646 579 q 639 560 640 567 q 601 521 624 533 q 588 516 594 518 q 575 510 582 514 q 532 508 554 503 q 511 512 521 510 q 490 521 501 514 q 475 533 482 528 q 463 547 468 539 q 449 569 453 560 q 426 574 444 578 q 413 565 419 569 q 399 554 406 561 q 354 510 374 535 q 306 420 324 465 q 279 317 288 375 q 272 220 272 269 q 278 121 272 171 q 263 64 278 90 q 246 43 254 56 q 223 26 235 33 q 199 15 211 18 q 185 15 192 15 q 171 14 178 14 q 149 14 160 11 q 129 22 138 17 q 110 30 119 25 q 94 43 101 35 q 82 58 88 50 q 74 78 76 67 q 65 97 67 88 q 64 121 64 107 q 54 190 57 154 q 49 261 51 225 q 41 385 43 324 q 42 510 39 447 q 47 637 42 575 q 58 763 51 699 q 74 817 58 790 q 81 828 76 822 q 90 838 86 833 q 144 867 111 858 q 206 860 176 875 q 242 838 229 850 q 263 801 257 822 q 272 763 272 786 q 269 743 269 753 q 268 724 269 733 q 274 728 271 726 q 279 731 276 729 z "},"q":{"ha":769,"x_min":31,"x_max":761,"o":"m 729 804 q 750 772 742 794 q 757 756 753 765 q 761 735 761 746 q 750 628 754 682 q 743 519 746 574 q 733 324 738 421 q 722 131 728 228 q 715 -63 717 33 q 710 -258 713 -160 q 678 -331 710 -307 q 607 -356 646 -356 q 533 -331 568 -356 q 494 -258 499 -307 q 496 -149 494 -204 q 499 -40 497 -94 q 501 31 501 -4 q 504 104 501 67 q 446 94 482 101 q 366 83 410 88 q 276 76 322 78 q 190 82 231 75 q 117 107 149 89 q 72 160 86 125 q 70 161 72 161 q 68 163 68 161 q 64 169 65 165 q 61 175 63 172 q 49 199 54 188 q 40 226 43 211 q 35 253 36 240 q 32 282 33 265 q 31 313 31 297 q 31 344 31 329 q 31 381 31 364 q 33 414 31 397 q 67 558 43 488 q 142 692 90 629 q 200 750 164 724 q 268 796 232 778 q 297 806 283 800 q 324 815 310 813 q 354 820 339 818 q 385 824 369 822 q 431 824 408 826 q 476 819 453 822 q 508 814 493 818 q 540 803 524 810 q 550 800 544 801 q 563 796 556 799 q 572 804 568 800 q 596 821 583 815 q 621 831 608 826 q 636 832 629 832 q 650 833 643 832 q 690 825 676 833 q 711 817 703 822 q 729 804 719 813 m 307 581 q 269 496 279 547 q 251 400 258 444 q 258 317 244 346 q 304 279 272 289 q 388 278 336 269 q 511 307 440 286 q 522 451 519 381 q 531 593 524 521 q 471 616 501 607 q 410 626 440 625 q 353 617 381 628 q 307 581 326 607 z "},"o":{"ha":857,"x_min":29,"x_max":829,"o":"m 800 650 q 810 622 806 638 q 817 596 814 607 q 828 454 829 524 q 824 413 825 432 q 818 371 822 393 q 812 342 814 357 q 807 317 810 328 q 799 290 803 301 q 792 265 796 279 q 778 229 785 247 q 760 194 771 211 q 749 171 756 182 q 736 147 743 160 q 721 128 729 138 q 703 107 713 118 q 694 99 699 103 q 685 88 689 94 q 668 72 679 83 q 648 58 658 65 q 626 47 638 51 q 608 35 618 40 q 588 24 597 31 q 553 11 571 17 q 519 1 535 6 q 508 -1 514 -1 q 494 -3 501 -1 q 444 -8 472 -8 q 396 -8 419 -12 q 359 -4 378 -7 q 325 4 340 -1 q 289 12 306 7 q 256 24 272 17 q 234 35 244 31 q 214 47 224 40 q 184 69 199 58 q 154 93 169 81 q 139 113 146 103 q 122 132 132 122 q 108 153 115 142 q 88 186 96 168 q 74 221 81 204 q 54 268 61 244 q 40 353 44 308 q 44 506 29 428 q 86 660 60 585 q 114 720 100 692 q 147 774 128 749 q 283 885 206 847 q 443 921 361 922 q 603 879 525 919 q 742 757 682 839 q 768 717 757 735 q 786 683 779 700 q 800 650 793 667 m 610 417 q 615 507 617 461 q 593 601 614 553 q 579 627 586 615 q 563 650 572 639 q 522 687 546 671 q 470 711 497 703 q 415 717 443 719 q 361 701 386 715 q 343 685 350 693 q 329 671 336 678 q 309 641 318 656 q 293 610 300 626 q 288 599 290 603 q 283 589 286 594 q 253 439 263 514 q 272 286 244 364 q 285 263 279 272 q 300 242 290 253 q 326 217 314 226 q 341 208 333 211 q 356 199 349 204 q 377 194 367 196 q 399 192 388 193 q 449 192 421 185 q 469 194 458 193 q 490 201 479 196 q 506 208 497 204 q 521 217 514 211 q 534 229 528 224 q 546 242 540 235 q 562 266 554 254 q 576 292 569 278 q 583 311 581 300 q 599 365 592 339 q 610 417 607 390 z "},"p":{"ha":764,"x_min":22,"x_max":738,"o":"m 704 710 q 725 632 718 672 q 732 578 731 606 q 733 524 733 551 q 728 388 738 454 q 690 263 718 321 q 615 156 663 204 q 499 74 568 107 q 465 63 482 67 q 433 58 447 60 q 381 51 407 53 q 332 47 356 50 l 271 47 q 276 -73 274 -15 q 281 -189 278 -131 q 249 -267 281 -235 q 226 -283 239 -278 q 203 -296 214 -289 q 188 -297 194 -296 q 174 -297 181 -297 q 151 -296 163 -297 q 131 -287 140 -294 q 112 -279 119 -285 q 97 -267 104 -274 q 75 -233 83 -253 q 69 -211 72 -222 q 65 -189 65 -200 q 61 -73 64 -131 q 56 47 58 -15 q 51 255 56 151 q 42 468 46 358 q 35 679 39 574 q 22 892 31 785 q 37 938 24 917 q 71 973 50 958 q 115 994 92 988 q 163 997 139 1000 q 205 978 186 993 q 233 933 224 963 q 239 892 240 911 q 240 886 239 889 q 240 881 240 883 q 244 884 243 883 q 249 888 246 885 q 362 931 304 922 q 473 925 419 939 q 575 877 526 911 q 661 792 624 843 q 687 752 676 774 q 704 710 697 731 m 515 443 q 515 583 524 510 q 492 668 511 638 q 442 707 472 699 q 374 701 411 715 q 299 649 338 686 q 276 613 286 631 q 253 576 265 596 q 251 575 253 575 q 257 418 254 497 q 263 260 260 339 q 351 263 310 260 q 426 280 393 265 q 483 327 460 294 q 514 418 506 360 q 515 429 515 422 q 515 443 515 436 z "},"n":{"ha":904,"x_min":36,"x_max":890,"o":"m 860 182 q 870 121 865 150 q 883 60 875 92 q 883 4 890 32 q 877 -8 879 -1 q 871 -21 875 -14 q 855 -44 864 -33 q 833 -61 846 -54 q 822 -66 828 -64 q 810 -71 815 -68 q 767 -72 790 -76 q 726 -61 744 -72 q 694 -33 707 -50 q 684 -15 688 -25 q 676 4 681 -6 q 657 99 664 53 q 644 197 650 147 q 633 296 639 246 q 626 372 631 335 q 619 450 622 410 q 607 542 615 514 q 584 571 599 571 q 548 543 569 571 q 494 467 526 515 q 438 372 465 421 q 383 274 411 322 q 338 179 360 225 q 294 85 315 133 q 289 72 292 78 q 285 58 286 65 q 264 22 276 35 q 251 6 260 13 q 235 -7 243 -1 q 208 -17 224 -8 q 194 -18 201 -18 q 179 -21 186 -18 q 139 -11 160 -21 q 126 -5 132 -8 q 114 4 121 -1 q 89 32 94 14 q 64 131 69 79 q 50 242 58 183 q 40 383 43 313 q 39 525 36 453 q 48 678 42 601 q 65 832 54 754 q 93 879 74 857 q 104 887 100 882 q 114 896 108 892 q 171 908 140 908 q 185 908 178 908 q 199 907 192 907 q 235 888 222 900 q 263 858 253 874 q 274 817 274 836 q 272 774 278 794 q 269 758 272 764 q 263 702 265 731 q 258 643 261 674 q 254 561 256 603 q 253 478 253 519 q 274 516 264 497 q 297 554 285 535 q 334 613 317 585 q 371 667 351 640 q 400 703 386 686 q 429 736 414 719 q 442 746 436 740 q 453 757 447 751 q 476 777 464 768 q 500 793 488 786 q 586 826 542 822 q 670 813 631 829 q 741 764 710 797 q 785 683 772 731 q 794 652 790 669 q 806 618 799 635 q 821 536 814 578 q 833 453 828 494 q 840 381 836 417 q 849 310 844 346 q 853 246 850 278 q 860 182 856 214 z "},"m":{"ha":1113,"x_min":42,"x_max":1069,"o":"m 1057 669 q 1063 620 1061 644 q 1068 572 1065 596 q 1069 501 1069 536 q 1069 429 1069 465 q 1069 262 1069 351 q 1068 94 1069 172 q 1053 42 1068 68 q 1045 31 1050 35 q 1036 21 1040 26 q 1015 3 1025 10 q 989 -7 1004 -4 q 975 -9 982 -7 q 961 -12 968 -11 q 940 -10 950 -12 q 919 -4 931 -7 q 885 21 901 4 q 864 54 869 35 q 856 73 858 63 q 854 94 854 83 q 855 128 854 108 q 856 167 856 147 q 856 205 856 186 q 857 236 857 224 l 857 436 q 857 523 857 479 q 851 610 857 567 q 833 674 844 661 q 806 674 821 686 q 776 635 792 663 q 744 578 760 607 q 737 555 742 567 q 728 531 732 543 q 699 426 713 479 q 671 321 686 374 q 663 301 667 310 q 651 283 658 292 q 621 256 642 267 q 608 251 614 253 q 594 246 601 249 q 581 244 588 244 q 567 242 574 244 q 525 251 543 242 q 503 265 511 253 q 479 287 488 274 q 465 317 471 300 q 457 351 460 333 q 451 386 454 369 q 413 553 432 508 q 376 589 394 599 q 342 526 358 579 q 314 398 326 472 q 292 240 301 324 q 279 86 283 157 q 271 51 278 67 q 251 18 264 36 q 239 3 246 8 q 224 -8 232 -3 q 210 -14 217 -11 q 197 -19 204 -17 q 183 -21 190 -19 q 169 -22 176 -22 q 147 -22 158 -25 q 128 -17 136 -19 q 115 -10 121 -12 q 106 -1 110 -7 q 89 13 96 4 q 75 31 82 21 q 71 42 74 35 q 67 57 68 49 q 55 149 60 101 q 50 246 50 197 q 47 319 47 282 q 47 392 47 356 q 47 465 47 428 q 46 538 47 503 q 45 688 46 614 q 42 836 44 763 q 46 865 42 853 q 58 890 50 878 q 66 901 63 896 q 75 913 69 907 q 98 930 86 924 q 121 940 110 936 q 135 942 129 940 q 150 943 142 943 q 171 942 161 946 q 192 935 181 939 q 225 913 214 928 q 241 897 236 906 q 250 879 246 888 q 257 858 254 868 q 257 836 260 849 q 260 770 260 804 q 260 703 260 736 q 260 705 260 704 q 261 708 261 706 q 270 716 265 711 q 278 724 275 721 q 294 737 285 732 q 310 747 303 742 q 314 751 311 750 q 319 756 317 753 q 341 765 329 761 q 364 774 353 769 q 376 778 369 778 q 388 782 382 779 q 414 784 401 783 q 438 785 426 785 q 457 783 447 783 q 476 779 467 782 q 488 776 482 779 q 501 770 494 774 q 515 764 508 767 q 519 763 518 764 q 524 763 521 763 q 526 759 525 761 q 531 757 528 757 q 549 743 539 750 q 567 726 560 736 l 575 718 q 596 753 589 736 q 650 819 622 789 q 714 871 678 849 q 727 878 721 875 q 740 885 733 882 q 765 894 753 889 q 793 903 778 900 q 814 906 803 906 q 836 908 825 907 l 847 908 q 864 907 856 907 q 882 906 872 907 q 890 903 886 906 q 894 901 892 903 q 901 900 897 900 q 920 893 910 897 q 939 885 931 889 q 955 872 946 878 q 971 858 964 865 q 976 853 974 856 q 982 847 979 850 q 994 831 988 839 q 1006 815 1000 824 q 1013 803 1008 808 q 1021 790 1017 797 q 1031 764 1025 776 q 1042 736 1036 751 q 1051 703 1047 719 q 1057 669 1054 686 z "},"a":{"ha":874,"x_min":33,"x_max":851,"o":"m 782 307 q 805 210 790 258 q 836 115 819 161 q 851 63 851 89 q 849 49 850 56 q 846 35 849 42 q 819 -12 840 6 q 810 -20 815 -17 q 799 -29 806 -24 q 758 -43 781 -43 q 737 -44 747 -44 q 715 -39 726 -43 q 695 -33 704 -37 q 679 -21 686 -28 q 651 8 661 -7 q 635 53 643 31 q 615 99 626 75 q 597 163 604 132 q 591 182 593 172 q 586 201 589 192 q 574 187 579 194 q 561 172 568 179 q 531 142 547 156 q 500 113 515 128 q 444 72 476 93 q 426 58 435 65 q 406 46 417 51 q 383 35 393 39 q 360 26 372 31 q 347 22 353 24 q 335 17 340 19 q 324 15 328 17 q 305 13 315 14 q 286 10 294 13 l 261 10 q 237 15 249 13 q 215 19 225 17 q 193 28 204 24 q 172 36 182 32 q 162 40 165 38 q 156 46 158 43 q 135 60 144 54 q 115 78 126 67 q 110 84 113 81 q 104 90 108 88 q 90 109 97 100 q 76 129 82 118 q 71 137 72 132 q 67 146 69 142 q 56 168 61 157 q 49 192 51 179 q 44 203 46 197 q 40 215 43 210 q 36 243 38 231 q 33 268 35 256 l 33 321 q 38 359 35 340 q 44 397 42 378 q 49 419 47 408 q 54 440 51 431 q 65 481 58 460 q 78 521 71 501 q 100 574 89 549 q 125 624 111 599 q 157 670 140 647 q 193 714 174 693 q 207 730 200 721 q 221 746 214 739 q 247 767 233 756 q 274 789 261 778 q 292 800 283 793 q 308 811 300 807 q 342 828 325 821 q 378 843 360 836 q 401 852 389 849 q 425 858 414 856 q 450 863 438 861 q 475 864 463 864 q 488 867 482 867 q 501 867 494 867 q 513 867 507 867 q 524 864 518 867 q 547 863 535 864 q 572 858 560 861 q 584 856 579 858 q 594 853 589 854 q 616 842 606 846 q 636 833 626 839 q 667 815 653 826 q 694 793 682 804 q 703 786 699 790 q 711 779 707 782 q 718 768 713 776 q 729 762 725 765 q 739 756 733 758 q 765 724 760 743 q 775 706 772 715 q 781 686 778 697 q 781 665 782 675 q 776 643 781 654 q 775 628 775 636 q 772 614 775 621 q 771 590 771 601 q 768 568 771 578 q 772 354 763 458 q 776 332 775 343 q 782 307 778 321 m 526 525 q 541 587 536 560 q 539 630 546 614 q 509 649 532 646 q 442 640 486 653 q 415 626 429 633 q 389 610 401 619 q 339 557 364 588 q 286 467 307 514 q 282 456 283 461 q 279 446 281 451 q 262 388 268 417 q 249 332 256 360 q 248 270 246 294 q 261 235 250 246 q 292 231 272 225 q 344 263 313 238 q 352 269 349 267 q 360 274 356 271 q 397 309 379 290 q 428 347 414 328 q 438 358 435 351 q 444 369 442 364 q 480 428 464 397 q 511 490 496 458 q 519 507 515 500 q 526 525 522 514 z "},"b":{"ha":733,"x_min":29,"x_max":713,"o":"m 697 494 q 702 319 713 406 q 649 163 692 232 q 531 49 607 93 q 342 0 456 4 q 303 0 324 0 q 263 1 283 0 q 246 3 254 3 q 231 4 238 3 q 224 -1 229 1 q 176 -26 207 -21 q 161 -28 168 -28 q 146 -29 154 -28 q 106 -22 125 -29 q 89 -14 97 -19 q 71 -1 81 -8 q 49 31 60 6 q 42 46 46 38 q 39 65 39 54 q 38 169 39 118 q 38 272 38 221 q 33 454 35 363 q 32 638 32 546 q 29 823 29 731 q 29 1007 29 915 q 38 1043 29 1025 q 61 1076 46 1061 q 116 1099 83 1092 q 178 1094 149 1106 q 225 1060 207 1082 q 243 1007 243 1039 l 243 799 l 243 744 q 250 746 250 744 q 269 754 261 750 q 290 761 278 758 q 297 764 293 764 q 307 765 301 764 q 335 772 322 769 q 365 775 349 774 l 396 775 q 409 774 401 775 q 421 774 417 774 q 430 771 426 771 q 440 768 433 771 q 449 767 446 768 q 457 767 451 767 q 464 765 460 765 q 471 764 468 765 q 490 758 481 761 q 511 747 500 754 q 525 741 518 744 q 539 735 532 738 q 556 722 549 728 q 569 710 563 717 q 578 705 576 707 q 583 700 581 703 q 594 690 589 696 q 604 678 600 685 q 626 658 617 671 q 643 635 635 646 q 651 621 647 626 q 658 607 656 615 q 670 581 663 594 q 682 554 678 568 q 690 524 688 539 q 697 494 693 508 m 332 189 q 441 228 408 189 q 483 325 474 267 q 490 424 490 374 q 468 521 489 475 q 458 535 463 528 q 447 554 454 543 q 436 564 442 560 q 428 571 431 568 q 417 577 422 574 q 406 581 413 581 q 398 583 401 583 q 392 585 394 583 l 379 585 q 367 583 372 583 q 357 581 363 583 q 345 574 351 578 q 332 568 339 571 q 320 558 325 563 q 308 546 315 553 q 294 524 301 535 q 281 500 286 514 q 254 429 261 467 q 247 352 247 392 q 250 272 247 313 q 251 193 253 232 q 258 192 254 192 q 296 189 278 189 q 332 189 314 189 z "},"c":{"ha":689,"x_min":26,"x_max":668,"o":"m 650 186 q 665 150 661 169 q 665 110 668 131 q 653 72 663 90 q 626 40 643 54 q 588 21 607 25 q 570 16 578 18 q 551 10 563 14 q 517 3 536 7 q 481 -3 497 0 q 429 -8 454 -6 q 381 -12 404 -10 q 349 -14 364 -14 q 318 -14 333 -14 q 303 -14 310 -14 q 289 -12 296 -14 q 257 -8 272 -10 q 231 -4 242 -7 q 223 -3 226 -4 q 217 -3 219 -3 q 201 6 208 3 q 185 15 194 10 l 181 15 q 178 17 179 15 q 156 31 167 22 q 132 50 146 40 q 113 69 121 58 q 96 93 104 81 q 89 105 92 99 q 82 119 86 111 q 65 160 71 138 q 63 166 65 163 q 60 175 61 169 q 56 189 58 182 q 53 203 54 196 q 44 238 50 221 q 36 275 39 256 q 28 362 31 319 q 26 449 26 404 q 27 483 26 467 q 29 518 28 499 q 33 551 31 536 q 36 583 35 567 q 43 617 39 601 q 50 634 49 626 q 54 647 51 642 q 56 658 54 654 q 60 667 58 661 q 75 707 67 683 q 90 732 86 718 q 103 749 97 742 q 118 767 110 757 q 126 776 119 774 q 150 796 136 789 q 194 829 169 818 q 204 835 199 833 q 217 844 210 838 q 242 853 229 849 q 267 861 256 858 q 297 868 283 867 q 322 872 310 869 q 339 874 332 872 q 356 875 346 875 q 361 874 358 875 q 367 872 364 872 q 389 871 378 872 q 410 868 400 869 q 426 863 419 865 q 440 860 433 861 q 445 858 443 860 q 453 856 447 857 q 473 848 464 851 q 492 840 482 844 q 505 833 499 836 q 515 826 511 829 q 540 808 529 817 q 565 790 550 800 q 582 768 569 782 q 599 746 592 757 q 611 719 607 735 q 613 704 613 711 q 614 689 613 697 q 611 660 614 674 q 600 635 608 647 q 590 622 593 626 q 582 610 586 617 q 566 596 575 603 q 544 585 557 589 q 525 579 536 582 q 503 578 514 576 q 483 579 493 576 q 464 585 472 582 q 441 596 450 589 q 425 610 432 603 q 338 642 372 646 q 284 611 304 639 q 256 538 264 583 q 247 444 247 493 q 251 348 246 394 q 263 272 256 301 q 303 214 272 228 q 373 203 333 200 q 455 219 413 207 q 531 238 497 231 q 571 241 549 244 q 613 226 593 238 q 650 186 635 211 z "},"d":{"ha":772,"x_min":33,"x_max":757,"o":"m 543 1007 q 574 1066 543 1044 q 644 1089 606 1088 q 716 1070 682 1090 q 757 1007 750 1050 q 742 908 750 958 q 732 808 735 857 q 724 460 721 635 q 757 106 726 286 q 734 53 757 76 q 679 21 711 31 q 665 18 672 18 q 650 15 657 18 l 643 15 q 636 15 639 15 q 631 14 633 14 q 608 12 619 13 q 590 10 597 11 q 430 -17 513 -10 q 274 -8 347 -24 q 144 50 200 7 q 63 175 88 93 q 55 201 58 190 q 50 225 51 213 q 38 303 43 264 q 33 379 33 342 q 66 533 33 460 q 160 651 99 606 q 310 707 221 697 q 510 674 399 717 q 522 840 515 757 q 543 1007 529 922 m 499 392 q 470 433 489 410 q 428 475 451 456 q 378 508 404 494 q 327 522 351 521 q 283 506 303 522 q 251 450 263 489 q 241 388 244 421 q 240 324 238 356 q 252 263 243 292 q 278 213 261 233 q 338 170 300 181 q 414 160 375 160 q 485 168 453 161 q 532 179 518 175 q 527 293 532 240 q 499 392 522 346 z "},"e":{"ha":767,"x_min":38,"x_max":746,"o":"m 735 232 q 746 190 746 210 q 735 150 746 169 q 714 114 728 128 q 693 97 703 106 q 672 82 683 89 q 618 41 646 60 q 558 7 590 22 q 503 -15 533 -6 q 442 -30 474 -25 q 379 -34 411 -35 q 318 -26 347 -33 q 290 -19 303 -21 q 267 -11 279 -15 q 246 0 256 -7 q 213 20 226 10 q 183 43 199 31 q 165 59 174 50 q 149 76 157 68 q 126 106 138 90 q 106 138 114 122 q 99 149 101 144 q 92 158 96 154 q 83 185 88 172 q 71 211 78 197 q 52 278 58 243 q 43 347 46 314 q 39 407 40 378 q 40 464 38 436 q 46 507 43 485 q 53 549 49 529 q 58 576 54 563 q 67 604 61 590 q 72 617 69 610 q 75 631 74 624 q 86 653 82 642 q 97 675 90 665 q 110 697 104 686 q 122 717 115 707 q 144 746 132 732 q 169 775 156 760 q 197 799 182 788 q 225 821 211 810 q 245 833 235 828 q 267 844 256 838 q 301 858 285 851 q 338 868 318 864 q 388 876 363 876 l 413 876 q 437 875 425 876 q 461 871 449 874 q 472 869 467 871 q 483 867 478 868 q 494 863 488 864 q 506 858 501 861 q 529 851 517 856 q 553 840 542 846 q 561 835 557 838 q 571 828 565 832 q 591 813 582 821 q 608 797 600 806 l 624 782 q 651 744 639 764 q 657 735 654 739 q 661 726 660 732 q 670 704 667 715 q 678 683 674 693 q 682 663 682 671 q 688 639 686 651 q 689 614 689 626 q 689 572 696 596 q 685 539 688 556 q 676 506 683 522 q 667 483 672 494 q 660 463 663 472 q 650 443 651 451 q 635 425 643 433 q 621 407 628 417 q 614 397 618 401 q 607 390 610 393 q 599 383 603 386 q 592 376 596 381 q 572 362 582 369 q 553 347 563 354 q 532 339 543 340 q 510 327 522 332 q 488 319 499 322 q 417 307 450 308 q 371 307 396 303 q 352 308 363 307 q 333 313 342 310 l 324 313 q 300 319 313 314 q 291 322 294 321 q 281 325 288 324 q 270 329 275 328 q 258 333 265 331 q 285 258 269 290 q 323 206 300 225 q 378 184 346 188 q 457 193 411 181 q 492 213 474 203 q 526 236 510 222 q 543 250 535 243 q 563 267 551 257 q 608 293 581 285 q 623 296 615 296 q 638 297 631 296 q 693 282 664 297 q 714 267 703 272 q 726 251 721 260 q 735 232 732 242 m 364 654 q 306 617 324 638 q 292 577 289 596 q 317 542 294 558 q 378 518 339 526 l 408 518 q 421 522 415 521 q 433 526 426 524 q 442 531 438 528 q 450 535 446 533 q 456 542 454 539 q 461 549 458 544 q 465 555 463 551 q 471 564 468 558 q 475 574 474 569 q 476 586 476 579 l 476 610 q 475 618 476 614 q 471 629 474 622 q 468 633 468 631 q 467 638 468 636 q 460 643 463 640 q 457 647 458 646 q 449 652 453 650 q 442 657 446 654 q 405 661 422 661 q 364 654 388 661 z "},"f":{"ha":733,"x_min":29,"x_max":721,"o":"m 685 904 q 701 885 694 897 q 713 858 708 872 q 715 811 721 835 q 695 767 710 788 q 658 735 681 747 q 610 722 636 722 q 588 725 599 722 q 565 731 578 728 q 549 740 557 735 q 532 757 542 746 q 515 772 525 764 q 496 788 506 779 q 433 817 460 815 q 389 802 407 818 q 360 756 371 786 q 344 692 350 726 q 335 624 338 658 q 333 565 333 590 l 333 503 q 358 504 344 504 q 386 506 371 504 q 455 515 419 510 q 524 524 490 519 q 601 511 565 531 q 638 476 624 500 q 656 426 653 453 q 650 373 660 399 q 614 332 640 347 q 540 310 582 314 q 463 300 499 306 q 405 296 433 297 q 347 292 376 294 q 353 226 349 257 q 361 164 357 196 q 367 114 364 139 q 378 63 371 89 q 378 4 382 33 q 372 -7 376 0 q 365 -21 368 -14 q 349 -43 358 -32 q 326 -61 339 -54 q 315 -65 322 -62 q 301 -69 308 -67 q 280 -73 292 -72 q 260 -72 268 -74 q 238 -68 249 -72 q 218 -61 226 -64 q 202 -47 208 -56 q 189 -32 196 -39 q 168 4 175 -14 q 163 38 168 21 q 146 158 154 97 q 131 279 138 219 q 86 296 110 279 q 72 303 78 299 q 61 310 67 307 q 45 333 53 322 q 35 360 38 344 q 31 374 32 367 q 29 388 31 381 q 31 410 29 399 q 39 429 32 421 q 49 447 44 440 q 61 464 54 454 q 97 486 74 476 q 109 490 103 489 q 118 494 115 492 q 118 588 118 540 q 124 683 118 635 q 142 777 129 731 q 178 867 154 824 q 197 910 185 890 q 212 931 204 921 q 226 953 219 942 q 235 963 232 958 q 246 969 239 967 q 263 986 254 981 q 283 999 272 992 q 294 1005 289 1003 q 304 1013 300 1007 q 329 1023 318 1018 q 356 1031 340 1028 q 394 1036 372 1036 q 401 1038 399 1036 q 410 1039 404 1039 q 438 1038 425 1039 q 464 1035 451 1036 q 492 1026 479 1029 q 520 1018 507 1022 q 544 1006 533 1014 q 557 1000 550 1003 q 572 994 564 997 q 607 972 590 985 q 642 944 624 958 q 663 924 651 933 q 685 904 674 915 z "},"g":{"ha":731,"x_min":28,"x_max":731,"o":"m 529 885 q 585 926 550 915 q 652 928 619 936 q 708 897 685 921 q 728 833 731 872 q 726 813 728 822 q 725 796 725 804 q 713 659 718 728 q 701 519 708 590 q 694 382 696 449 q 690 244 693 315 q 687 101 689 171 q 669 -39 685 32 q 664 -68 667 -53 q 656 -99 661 -83 q 647 -125 649 -114 q 635 -153 642 -139 q 621 -179 628 -168 q 609 -200 617 -190 q 594 -221 601 -210 q 571 -253 583 -237 q 543 -281 558 -269 q 523 -299 532 -292 q 500 -314 514 -307 q 492 -321 497 -318 q 482 -329 486 -324 q 448 -349 467 -340 q 410 -364 429 -357 q 372 -373 392 -371 q 333 -376 353 -375 q 310 -376 321 -381 q 281 -376 294 -376 q 257 -374 268 -375 q 231 -361 242 -367 q 208 -343 219 -356 q 200 -333 203 -339 q 193 -321 197 -328 q 179 -267 179 -299 q 180 -253 179 -260 q 181 -240 181 -246 q 189 -218 185 -226 q 200 -203 193 -210 q 214 -185 204 -192 q 231 -176 224 -179 q 269 -164 249 -164 q 310 -164 289 -160 q 359 -156 335 -169 q 403 -119 383 -142 q 438 -68 424 -96 q 456 -17 451 -40 q 446 -24 451 -21 q 429 -33 438 -25 q 356 -53 394 -49 q 278 -51 317 -57 q 205 -26 240 -44 q 142 26 169 -7 q 124 48 132 38 q 107 72 117 58 q 88 113 96 92 q 68 154 79 133 q 56 191 61 174 q 47 228 51 208 q 42 249 43 239 q 39 265 40 258 q 35 300 36 282 q 31 333 33 318 q 28 373 28 353 q 28 413 28 393 q 34 465 31 439 q 40 519 38 492 q 50 558 46 539 q 61 594 54 576 q 105 691 76 643 q 173 778 133 739 q 262 842 213 817 q 368 875 311 868 q 395 879 383 878 q 419 881 407 881 q 482 874 450 881 q 499 871 490 874 q 518 867 507 868 l 521 867 q 524 877 522 872 q 529 885 526 882 m 249 322 q 274 230 256 264 q 315 183 292 196 q 365 175 339 169 q 415 201 392 181 q 455 252 438 221 q 478 324 472 283 q 483 415 481 368 q 488 507 485 461 q 492 574 489 543 q 497 642 494 606 q 486 648 490 644 q 475 653 482 651 q 456 659 465 656 q 435 665 447 663 l 399 665 q 381 659 390 663 q 363 653 371 656 q 346 645 354 650 q 329 635 338 640 q 315 621 322 628 q 301 607 308 614 q 288 584 294 596 q 275 561 281 572 q 258 506 264 532 q 249 453 253 479 q 249 322 240 385 z "},"h":{"ha":788,"x_min":31,"x_max":757,"o":"m 639 -19 q 626 -17 632 -18 q 610 -17 619 -17 q 572 1 593 -15 q 559 14 564 7 q 547 28 554 21 q 538 46 540 38 q 533 63 536 54 q 533 82 532 72 q 538 100 533 92 q 547 251 549 171 q 517 406 544 332 q 483 462 501 447 q 446 471 465 476 q 407 446 426 465 q 370 401 388 426 q 338 351 353 376 q 315 308 324 325 q 310 294 313 301 q 306 281 307 288 q 274 183 285 232 q 268 79 263 135 q 259 43 268 60 q 235 11 250 26 q 192 -15 219 -8 q 178 -16 185 -15 q 164 -17 171 -17 q 121 -10 136 -17 q 104 -1 113 -7 q 88 11 96 4 q 64 42 69 26 q 57 60 61 50 q 56 79 53 69 q 38 337 40 206 q 32 621 35 468 q 31 792 31 706 q 31 965 31 878 q 35 992 31 979 q 46 1017 39 1006 q 64 1033 49 1024 q 110 1056 85 1054 q 123 1060 117 1060 q 136 1063 129 1061 q 158 1061 149 1063 q 179 1054 168 1060 q 213 1033 201 1047 q 235 1003 231 1025 q 242 965 243 988 l 242 771 q 243 669 243 719 q 246 565 243 618 q 333 636 281 608 q 446 669 386 664 q 564 653 506 674 q 667 578 622 632 q 710 496 693 542 q 738 399 728 450 q 753 297 749 349 q 757 197 757 244 q 757 151 757 176 q 753 99 757 125 q 739 49 749 72 q 711 10 729 26 q 702 1 707 4 q 690 -7 697 -3 q 667 -16 679 -14 q 639 -19 654 -18 z "},"i":{"ha":324,"x_min":50,"x_max":275,"o":"m 267 724 q 269 652 268 688 q 269 579 269 617 q 273 331 275 456 q 267 63 271 206 q 251 8 267 35 q 235 -12 243 -4 q 160 -44 206 -44 q 118 -36 139 -44 q 82 -12 97 -28 q 69 3 75 -6 q 61 19 64 11 q 54 41 56 31 q 53 63 53 51 q 56 135 54 99 q 57 208 57 171 q 58 337 58 274 q 58 467 58 400 q 57 596 58 532 q 53 724 56 660 q 61 764 53 744 q 84 799 69 783 q 118 823 99 814 q 160 832 138 832 q 181 830 169 833 q 203 824 192 826 q 235 801 219 817 q 257 767 251 785 q 267 724 267 747 m 82 967 q 52 1040 50 994 q 82 1117 54 1085 q 117 1140 94 1132 q 137 1147 126 1143 q 160 1149 147 1150 q 211 1133 185 1149 q 232 1117 224 1125 q 257 1084 249 1104 q 265 1042 265 1064 q 257 1000 265 1021 q 232 967 249 979 q 199 941 218 949 q 160 935 181 933 q 119 944 140 936 q 82 967 99 953 z "},"j":{"ha":338,"x_min":-285,"x_max":292,"o":"m 272 683 q 289 393 285 544 q 292 255 292 325 q 286 114 292 185 q 281 46 285 81 q 271 -24 278 11 q 258 -81 265 -51 q 243 -136 251 -110 q 229 -173 236 -154 q 214 -212 222 -192 q 201 -236 208 -224 q 188 -258 194 -249 q 157 -308 178 -283 q 132 -340 146 -325 q 107 -371 118 -356 q 94 -378 100 -375 q 85 -387 89 -381 q 63 -406 74 -397 q 40 -421 51 -414 q 1 -442 21 -435 q -37 -458 -18 -450 q -119 -476 -78 -474 l -150 -476 q -178 -474 -165 -475 q -207 -468 -192 -472 q -242 -448 -226 -461 q -271 -418 -257 -435 q -281 -392 -276 -406 q -285 -367 -285 -378 q -283 -350 -285 -357 q -281 -336 -281 -343 q -273 -316 -276 -325 q -264 -300 -269 -307 q -247 -283 -254 -290 q -231 -271 -240 -276 q -212 -263 -221 -268 q -190 -258 -203 -258 q -169 -256 -179 -256 q -147 -260 -160 -257 l -143 -260 l -125 -260 q -99 -256 -114 -257 q -83 -244 -92 -250 q -65 -235 -74 -239 q -40 -212 -51 -222 q -18 -189 -29 -201 q 4 -148 -7 -167 q 26 -110 15 -129 q 50 -30 42 -69 q 67 51 58 10 q 74 106 72 79 q 75 160 75 132 q 77 301 78 231 q 75 442 76 371 q 67 581 72 513 q 54 721 61 650 q 96 797 61 772 q 169 821 131 821 q 240 795 208 821 q 271 721 271 769 q 272 702 271 711 q 272 683 272 693 m 61 1018 q 56 1031 57 1026 q 54 1043 56 1036 q 56 1067 54 1058 q 64 1086 57 1075 q 86 1120 75 1106 q 121 1143 97 1135 q 140 1150 129 1147 q 163 1150 151 1153 q 217 1138 192 1150 q 227 1131 224 1133 q 238 1122 231 1128 q 256 1099 249 1111 q 269 1072 263 1088 q 263 1003 279 1035 q 217 954 246 971 q 151 940 188 938 q 86 971 115 942 q 71 992 78 981 q 61 1018 64 1003 z "},"k":{"ha":649,"x_min":43,"x_max":628,"o":"m 600 815 q 611 799 606 807 q 618 781 617 790 q 621 735 628 756 q 607 699 621 717 q 561 604 585 646 q 513 528 538 565 q 461 453 489 490 q 428 406 444 429 q 393 360 411 383 l 390 358 q 417 331 403 343 q 444 307 431 319 q 464 294 457 303 q 515 260 489 276 q 568 228 540 243 q 589 210 581 221 q 606 189 597 200 q 610 176 607 183 q 617 164 613 169 q 617 106 622 135 q 606 81 607 92 q 593 65 599 71 q 578 49 588 58 q 539 31 561 35 q 497 31 519 24 q 460 42 475 31 q 413 71 436 57 q 368 99 389 85 q 320 135 343 118 q 274 172 297 153 q 267 180 269 176 q 260 186 264 183 q 260 131 260 158 q 257 81 260 104 q 243 26 257 49 q 235 15 238 21 q 226 4 232 8 q 176 -25 206 -19 q 163 -26 171 -25 q 149 -26 156 -26 q 128 -26 138 -29 q 110 -21 118 -24 q 90 -10 99 -15 q 75 4 82 -6 q 62 19 68 10 q 50 39 56 29 q 45 59 47 50 q 43 81 43 68 q 46 185 46 133 q 46 292 46 238 q 48 476 47 383 q 49 663 49 568 q 53 851 50 757 q 56 1040 56 944 q 68 1090 56 1067 q 77 1103 74 1097 q 83 1114 81 1110 q 106 1130 94 1124 q 133 1143 118 1136 q 147 1144 140 1144 q 164 1147 154 1144 q 183 1144 172 1147 q 204 1135 193 1142 q 221 1126 211 1132 q 236 1114 231 1121 q 260 1079 253 1100 q 267 1060 265 1069 q 268 1040 268 1051 q 267 932 268 985 q 267 828 267 879 q 266 683 267 754 q 265 540 265 611 q 272 555 268 549 q 282 567 276 561 q 319 624 301 594 q 357 685 338 653 q 392 744 374 714 q 425 804 410 774 q 440 826 431 818 q 461 844 450 835 q 475 849 468 847 q 489 853 482 850 q 546 853 515 864 q 558 849 553 850 q 571 844 564 847 q 600 815 590 833 z "},"l":{"ha":343,"x_min":36,"x_max":338,"o":"m 321 150 q 335 114 333 135 q 333 69 338 93 q 328 56 331 63 q 321 43 325 50 q 294 13 315 29 q 277 1 288 6 q 258 -8 267 -4 q 215 -10 240 -12 q 176 6 193 -7 q 168 11 171 7 q 140 32 153 21 q 128 44 133 35 q 114 62 121 53 q 100 82 107 71 q 85 108 90 93 q 74 138 79 124 q 54 215 58 178 q 40 327 43 272 q 36 440 36 382 q 38 542 36 490 q 43 642 39 593 q 51 744 47 693 q 60 844 56 794 q 68 948 64 897 q 75 1051 72 999 q 90 1104 75 1078 q 99 1116 96 1110 q 107 1126 103 1122 q 130 1144 117 1138 q 154 1153 143 1150 q 168 1156 161 1156 q 183 1158 175 1157 q 204 1157 194 1158 q 225 1149 214 1156 q 243 1140 235 1144 q 258 1126 251 1135 q 272 1110 267 1118 q 281 1092 278 1103 q 288 1073 285 1083 q 290 1051 292 1063 q 283 965 286 1008 q 275 878 279 922 q 263 726 269 803 q 254 572 257 650 q 248 431 249 501 q 257 286 247 360 q 268 235 265 250 q 276 211 271 221 q 290 190 281 201 q 321 150 300 179 z "},"!":{"ha":344,"x_min":32,"x_max":358,"o":"m 328 1051 q 340 1037 335 1044 q 349 1022 346 1029 q 358 985 358 1004 l 338 847 q 322 724 331 785 q 306 600 314 663 q 293 477 299 539 q 279 353 288 415 q 265 306 279 325 q 258 296 261 300 q 249 286 256 292 q 200 264 231 269 q 188 261 196 261 q 172 260 179 261 q 151 261 161 260 q 133 268 142 263 q 99 286 113 275 q 75 317 83 299 q 69 333 72 325 q 65 353 65 342 q 73 422 69 389 q 81 492 76 456 q 94 615 88 554 q 108 739 101 676 q 126 862 117 801 q 144 985 136 922 q 158 1032 144 1011 q 167 1042 161 1038 q 176 1051 172 1046 q 197 1067 186 1063 q 222 1076 208 1071 q 237 1077 229 1076 q 251 1078 244 1078 q 272 1076 263 1078 q 292 1069 282 1075 q 312 1063 303 1068 q 328 1051 321 1058 m 242 122 q 245 108 243 115 q 247 94 247 101 q 236 53 247 71 q 228 34 233 43 q 215 18 222 25 q 199 6 208 11 q 179 -3 190 0 q 160 -11 171 -10 q 139 -12 150 -12 q 85 0 110 -12 q 74 11 78 7 q 64 18 69 15 q 38 64 44 38 q 34 79 35 71 q 32 94 33 88 q 33 115 32 104 q 42 138 35 126 q 64 169 51 157 q 99 192 75 182 q 139 201 117 201 q 194 186 168 201 q 204 178 199 183 q 215 169 210 174 q 231 148 224 158 q 242 122 238 138 z "},"\"":{"ha":506,"x_min":22,"x_max":478,"o":"m 36 1001 q 76 1034 51 1024 q 126 1042 100 1044 q 175 1027 151 1040 q 211 992 199 1014 q 226 924 225 971 q 217 828 226 878 q 188 735 208 778 q 140 681 168 693 q 101 670 121 672 q 65 674 81 668 q 40 697 49 681 q 35 743 31 714 q 42 785 38 763 q 43 828 46 807 q 33 889 43 856 q 22 958 22 922 q 26 981 22 971 q 36 1001 31 992 m 288 1001 q 327 1034 303 1024 q 377 1042 351 1044 q 426 1027 403 1040 q 463 992 450 1014 q 477 924 476 971 q 469 828 478 878 q 440 735 460 778 q 392 681 419 693 q 352 670 372 672 q 316 674 332 668 q 291 697 300 681 q 286 743 282 714 q 293 785 289 763 q 294 828 297 807 q 284 889 294 856 q 274 958 274 922 q 278 981 274 971 q 288 1001 282 992 z "},"#":{"ha":1157,"x_min":38,"x_max":1047,"o":"m 1044 786 q 1046 772 1044 779 q 1047 757 1047 765 q 1039 715 1047 736 q 1031 699 1038 708 q 1017 681 1024 689 q 1001 669 1010 674 q 982 658 992 664 q 961 651 971 653 q 940 650 951 650 q 894 647 917 649 q 849 642 872 646 q 840 592 844 617 q 829 539 836 567 q 851 540 840 539 q 874 540 863 540 q 900 538 886 540 q 928 526 914 535 q 940 517 935 521 q 950 510 944 514 q 967 488 960 499 q 976 461 974 476 q 978 448 976 454 q 979 433 979 442 q 978 413 979 422 q 974 393 976 404 q 963 374 968 382 q 950 357 957 367 q 934 345 943 350 q 914 336 925 340 q 894 327 904 329 q 874 325 883 325 q 833 324 853 324 q 793 321 814 324 q 772 187 782 251 q 756 53 763 122 q 743 26 749 38 q 725 6 738 15 q 715 -4 719 -1 q 704 -12 711 -7 q 677 -23 692 -19 q 649 -26 663 -26 q 634 -25 642 -25 q 621 -22 626 -25 q 601 -15 610 -19 q 583 -4 592 -11 q 568 10 576 3 q 556 26 560 18 q 544 67 544 43 q 546 111 540 89 q 560 206 553 160 q 575 301 567 253 q 504 294 539 299 q 433 288 469 290 q 419 183 425 235 q 403 79 413 132 q 392 53 400 64 q 376 31 385 43 q 364 23 368 28 q 354 15 360 18 q 327 3 339 8 q 299 -3 315 -3 q 284 0 292 -3 q 268 3 276 3 q 250 10 260 7 q 233 19 240 14 q 218 35 224 28 q 207 53 213 43 q 193 92 193 71 q 192 114 192 103 q 197 136 193 125 q 205 201 201 168 q 215 267 208 235 q 180 263 197 265 q 146 258 163 260 q 92 276 114 258 q 81 283 85 279 q 68 290 76 288 q 54 313 61 301 q 44 338 47 324 q 40 352 40 344 q 38 368 39 360 q 40 388 38 378 q 49 408 42 399 q 57 427 53 418 q 68 444 61 436 q 86 456 78 451 q 104 464 94 460 q 125 473 115 471 q 146 475 135 475 q 197 479 172 476 q 249 485 222 482 q 254 526 251 504 q 261 572 257 549 q 232 565 250 571 q 175 565 203 557 q 162 572 168 569 q 147 576 156 574 q 111 614 124 592 q 103 628 106 622 q 99 640 101 633 q 96 663 96 651 q 99 685 96 674 q 111 724 99 703 q 122 740 117 733 q 138 751 128 747 q 175 772 154 771 q 236 783 206 778 q 299 793 267 788 q 311 873 304 833 q 324 953 318 913 q 354 999 331 981 q 364 1008 360 1006 q 376 1014 368 1011 q 401 1029 389 1025 q 428 1033 413 1033 q 441 1032 435 1032 q 454 1029 447 1032 q 475 1021 465 1026 q 494 1008 485 1015 q 519 976 514 996 q 529 960 526 969 q 535 939 532 950 q 531 897 539 915 q 525 860 528 878 q 519 825 522 842 q 584 833 551 831 q 650 839 617 836 l 664 839 q 681 923 674 883 q 696 1003 689 963 q 707 1028 699 1017 q 722 1050 715 1039 q 733 1058 726 1053 q 744 1068 739 1064 q 769 1077 756 1075 q 799 1079 783 1079 q 813 1078 806 1079 q 826 1078 821 1078 q 864 1057 849 1074 q 890 1032 883 1046 q 901 1010 897 1021 q 906 989 906 1000 q 901 946 910 967 q 893 903 897 924 q 886 860 889 882 q 914 865 901 864 q 940 867 926 865 q 967 862 954 867 q 994 850 981 857 q 1006 842 1001 846 q 1017 835 1010 838 q 1034 810 1026 822 q 1044 786 1042 799 m 589 517 q 600 518 594 518 q 613 518 606 518 q 619 572 615 546 q 626 625 624 597 q 558 615 593 618 q 489 607 524 611 l 482 607 q 476 556 479 581 q 465 508 472 532 q 527 513 497 510 q 589 517 557 515 z "},"$":{"ha":669,"x_min":28,"x_max":663,"o":"m 489 706 q 462 719 476 714 q 431 732 447 725 q 424 636 426 685 q 415 539 421 588 q 522 489 474 524 q 603 410 571 454 q 643 309 638 361 q 626 213 649 257 q 554 138 604 168 q 429 100 504 107 q 408 97 418 97 q 389 96 397 97 q 385 20 386 57 q 382 -54 383 -17 q 375 -79 382 -69 q 360 -99 368 -89 q 336 -113 353 -110 q 304 -117 319 -117 q 275 -112 289 -118 q 250 -99 261 -106 q 236 -78 242 -92 q 231 -54 231 -65 q 233 22 232 -17 q 236 100 233 61 q 172 106 203 101 q 111 117 142 110 q 87 123 97 118 q 65 135 76 128 q 60 142 63 139 q 51 150 57 146 q 38 190 38 168 q 40 201 40 196 q 42 214 40 207 q 49 226 44 219 q 61 238 54 233 q 70 251 64 244 q 85 260 76 257 q 104 265 94 263 q 122 268 114 268 q 142 269 132 269 q 161 265 153 268 l 207 261 q 224 260 214 260 q 244 257 235 260 q 249 341 249 300 q 253 424 250 382 q 222 435 238 431 q 192 446 207 439 q 176 456 185 453 q 157 465 168 460 q 130 481 144 474 q 104 500 115 489 q 92 511 100 503 q 42 592 56 550 q 33 676 28 633 q 58 761 38 719 q 114 840 79 803 q 128 852 121 847 q 144 864 136 857 q 170 881 157 874 q 199 892 183 888 q 229 903 213 897 q 265 913 246 910 l 296 915 q 302 968 300 943 q 306 1019 304 993 q 319 1051 306 1035 q 332 1064 324 1057 q 383 1083 351 1083 q 414 1077 399 1083 q 440 1064 429 1071 q 456 1044 449 1057 q 461 1019 463 1031 q 453 960 456 990 q 450 897 451 929 q 456 896 453 896 q 463 894 460 896 l 528 872 q 581 847 556 860 q 629 818 606 833 q 656 771 650 799 q 643 721 663 743 q 635 713 639 718 q 629 706 632 708 q 614 697 622 700 q 597 689 606 693 q 578 683 586 685 q 561 681 569 681 q 540 683 547 681 q 521 689 532 685 q 505 697 513 693 q 489 706 497 700 m 260 601 q 265 599 263 600 q 269 594 267 597 l 269 600 q 274 675 271 638 q 281 750 278 713 l 276 747 q 243 716 257 736 q 224 674 229 696 q 227 633 219 653 q 260 601 235 614 m 396 256 q 440 268 428 256 q 449 298 451 281 q 434 333 447 315 q 403 361 421 350 l 396 256 z "},"%":{"ha":953,"x_min":31,"x_max":929,"o":"m 86 629 q 83 633 86 631 q 79 636 81 635 q 69 650 75 644 q 61 663 64 656 q 51 680 56 671 q 43 700 46 689 q 41 709 42 704 q 38 719 40 714 q 33 741 35 731 q 32 763 32 751 q 31 774 31 768 q 31 785 31 779 q 33 805 32 794 q 36 826 33 815 q 39 838 38 833 q 42 847 40 842 q 46 865 44 861 q 54 886 50 876 q 64 904 58 896 q 118 985 79 949 q 203 1038 157 1021 q 299 1046 250 1054 q 382 993 347 1038 q 389 985 385 989 q 397 978 393 982 q 410 960 404 968 q 421 942 415 953 q 440 904 431 926 q 444 892 443 897 q 446 882 446 888 q 451 860 449 871 q 454 839 453 850 q 456 826 454 832 q 457 814 457 821 q 453 792 454 804 q 450 769 453 781 q 447 760 447 764 q 446 749 447 756 q 439 727 443 738 q 431 706 435 717 q 425 696 428 701 q 418 686 422 690 q 407 668 414 676 q 394 651 400 660 q 386 644 390 649 q 378 636 382 639 q 363 622 371 628 q 346 608 356 615 q 335 605 340 607 q 325 603 331 603 q 307 591 317 596 q 288 583 297 586 q 277 581 282 582 q 265 579 272 581 q 222 575 244 575 l 213 575 q 197 576 204 576 q 181 579 189 576 q 158 586 164 582 q 146 590 151 588 q 133 594 140 592 q 133 597 133 597 q 132 599 132 597 q 124 601 126 599 q 119 604 122 603 q 107 611 113 607 q 94 624 101 615 q 86 629 89 626 m 290 804 q 290 829 292 814 q 276 868 286 858 q 252 873 265 878 q 226 853 239 868 q 203 818 213 838 q 199 804 200 811 q 194 788 197 797 l 194 765 q 197 760 196 763 q 197 751 197 757 q 201 746 201 747 q 203 744 203 746 q 207 743 204 743 q 209 742 208 742 q 211 740 210 742 q 215 739 213 740 q 219 738 217 738 l 231 738 q 238 739 235 738 q 246 742 242 740 q 254 747 250 744 q 261 751 258 749 q 275 764 268 760 q 280 772 278 768 q 286 779 282 776 q 288 792 288 786 q 290 804 289 797 m 922 351 q 926 331 925 340 q 929 310 928 321 l 929 288 q 926 268 928 279 q 924 247 925 257 q 917 226 921 232 q 910 207 914 215 q 900 189 906 199 q 890 170 896 179 q 878 154 883 161 q 855 131 868 140 q 828 113 842 121 q 820 106 825 107 q 811 101 815 104 q 805 100 808 101 q 799 97 801 99 q 787 90 793 94 q 771 85 781 86 q 738 76 756 78 q 706 71 721 75 l 685 71 q 662 72 674 71 q 640 76 650 74 q 628 76 633 76 q 617 79 624 76 q 611 83 614 82 q 601 85 608 85 q 588 91 596 88 q 572 99 581 94 q 554 110 564 104 q 536 124 544 117 q 528 131 533 128 q 522 138 524 135 q 508 157 515 149 q 494 176 501 165 q 492 183 494 181 q 485 199 488 192 q 479 213 483 206 q 474 235 475 224 q 470 257 472 247 q 468 278 468 267 l 468 301 q 471 322 469 311 q 475 343 472 332 q 485 364 478 358 q 489 381 486 374 q 494 396 492 388 q 499 404 494 400 q 505 414 501 408 q 513 426 508 419 q 515 429 514 428 q 518 435 515 431 q 606 506 556 486 q 708 520 656 526 q 810 485 761 514 q 896 408 860 456 q 907 389 900 403 q 915 369 913 379 q 922 351 918 360 m 701 235 q 714 238 710 236 q 725 242 718 239 q 736 247 732 244 q 744 251 740 249 q 749 257 747 254 q 753 261 750 260 q 759 267 757 264 q 763 274 761 271 q 758 315 769 299 q 726 338 746 331 q 686 344 707 346 q 657 333 665 343 q 642 306 647 322 q 636 275 636 290 q 645 248 636 260 q 674 235 654 236 l 701 235 m 690 761 q 630 670 661 715 q 567 581 599 625 q 505 490 535 536 q 446 401 475 444 q 383 310 413 354 q 324 218 354 265 q 268 123 296 169 q 217 26 240 76 q 197 5 210 14 q 169 -11 183 -4 q 104 -3 136 -19 q 82 21 89 6 q 67 46 71 29 q 65 79 63 67 q 75 110 65 97 q 82 122 78 117 q 88 135 86 128 q 142 229 115 182 q 197 321 168 276 q 256 415 226 369 q 318 506 286 461 q 378 595 349 550 q 442 685 408 640 q 503 774 474 729 q 563 865 533 819 q 622 958 592 913 q 679 1053 651 1004 q 700 1075 688 1065 q 725 1090 713 1085 q 760 1092 743 1094 q 792 1082 778 1089 q 803 1072 797 1079 q 814 1058 810 1065 q 823 1047 821 1054 q 828 1032 825 1039 q 829 1001 836 1017 q 826 983 828 990 q 819 968 825 976 q 813 957 817 963 q 807 944 810 951 q 749 853 778 897 q 690 761 719 808 z "},"&":{"ha":849,"x_min":35,"x_max":832,"o":"m 792 858 q 805 844 797 850 q 819 831 813 838 q 832 785 832 813 q 829 774 829 779 q 829 761 829 768 q 818 742 825 751 q 800 725 811 733 q 793 717 797 721 q 785 708 789 714 q 763 703 772 706 q 743 701 753 701 q 700 701 722 700 q 681 708 690 704 q 665 718 671 711 q 636 742 653 726 l 636 743 q 632 747 635 744 q 626 751 629 749 q 618 755 622 754 q 608 760 614 756 q 593 763 601 761 q 574 765 585 764 q 529 765 547 768 q 465 753 494 764 q 436 740 450 746 q 410 729 422 735 q 401 721 404 725 q 394 713 399 717 l 394 708 q 402 704 399 707 q 413 701 406 701 q 446 685 429 692 q 478 672 463 679 q 520 660 500 665 q 563 647 540 654 q 580 635 571 642 q 594 621 589 629 q 601 613 599 618 q 607 603 604 607 q 615 582 615 592 l 615 558 q 610 542 613 550 q 600 525 607 533 q 594 517 597 522 q 585 508 592 513 q 574 501 578 506 q 563 494 569 497 q 549 490 557 492 q 536 486 542 489 q 497 476 517 482 q 458 463 478 469 q 394 437 425 450 q 336 407 364 424 q 307 385 321 396 q 281 360 293 375 q 267 342 274 351 q 251 324 261 333 q 244 300 250 308 l 244 282 q 247 276 244 279 q 249 269 249 274 q 251 265 250 268 q 254 261 251 263 q 256 260 254 260 l 257 258 q 267 253 264 258 q 288 249 278 250 q 307 247 299 249 q 375 245 340 244 q 442 249 410 246 q 461 251 453 250 q 478 253 469 251 q 568 271 524 260 q 657 296 613 282 q 714 296 681 303 q 726 290 721 293 q 735 285 731 288 q 759 272 750 279 q 776 253 768 264 q 782 244 779 249 q 788 232 785 239 q 788 199 794 217 q 776 167 788 182 q 763 152 769 157 q 750 143 756 147 q 731 133 739 138 q 714 126 724 129 q 697 122 704 124 q 682 119 690 121 q 633 106 658 113 q 585 93 608 100 q 589 27 588 61 q 593 -42 590 -7 q 576 -85 593 -64 q 568 -93 572 -89 q 561 -103 564 -97 q 537 -117 547 -111 q 513 -125 526 -122 q 500 -126 507 -126 q 486 -128 493 -126 q 465 -126 475 -128 q 444 -121 456 -125 q 410 -103 428 -119 q 393 -74 397 -90 q 383 -60 385 -67 q 381 -42 381 -53 q 380 -19 381 -31 q 379 3 379 -8 q 377 36 378 18 q 374 72 376 54 l 336 72 q 320 73 329 72 q 303 74 311 74 q 274 75 288 74 q 244 82 260 76 q 167 103 201 86 q 153 108 160 106 q 143 115 147 111 q 122 128 133 122 q 103 143 111 133 q 85 158 92 150 q 72 175 79 167 q 61 196 65 186 q 50 215 57 206 q 41 247 43 229 q 38 279 39 264 q 36 291 35 285 q 38 301 38 297 q 38 318 38 308 q 40 335 39 328 q 43 341 43 338 q 43 347 43 344 q 47 359 46 354 q 51 369 49 364 q 64 390 58 381 q 72 411 69 400 q 85 434 79 424 q 103 451 92 444 q 128 479 117 467 q 153 503 140 492 q 196 533 172 518 q 261 572 224 554 q 264 573 264 572 q 265 574 264 574 q 258 579 263 576 q 249 583 253 582 q 226 602 238 592 q 207 624 215 613 q 199 640 203 631 q 189 656 194 649 q 186 672 186 667 q 181 690 182 681 q 179 708 179 700 q 181 730 181 721 q 186 749 182 739 q 194 768 189 758 q 201 785 199 778 q 206 792 204 788 q 210 801 207 796 q 225 817 217 810 q 242 832 233 825 q 254 843 244 838 q 265 850 261 846 q 272 858 268 854 q 291 869 282 864 q 308 882 300 875 q 331 890 322 886 q 351 900 340 894 q 374 908 363 904 q 400 917 386 913 q 403 918 400 917 q 403 927 403 921 q 401 940 403 933 q 399 990 400 964 q 396 1040 399 1015 q 407 1085 396 1063 q 424 1101 419 1092 q 447 1115 435 1108 q 471 1124 460 1121 q 485 1124 478 1124 q 500 1125 493 1125 q 521 1124 510 1125 q 540 1119 532 1122 q 559 1110 551 1114 q 574 1101 567 1106 q 588 1089 582 1096 q 596 1075 594 1082 q 603 1056 600 1064 q 604 1040 607 1049 q 607 1024 607 1031 q 607 1010 607 1017 q 610 974 608 993 q 613 935 613 954 l 615 935 l 635 935 q 655 928 646 931 q 671 922 664 926 q 702 914 686 919 q 731 900 718 908 q 749 891 740 896 q 765 882 757 886 q 772 875 768 878 q 779 869 776 872 q 787 864 785 867 q 792 858 789 861 z "},"'":{"ha":256,"x_min":22,"x_max":226,"o":"m 36 1001 q 76 1034 51 1024 q 126 1042 100 1044 q 175 1027 151 1040 q 211 992 199 1014 q 226 924 225 971 q 217 828 226 878 q 188 735 208 778 q 140 681 168 693 q 101 670 121 672 q 65 674 81 668 q 40 697 49 681 q 35 743 31 714 q 42 785 38 763 q 43 828 46 807 q 33 889 43 856 q 22 958 22 922 q 26 981 22 971 q 36 1001 31 992 z "},"(":{"ha":549,"x_min":28,"x_max":531,"o":"m 500 32 q 510 24 504 29 q 518 13 515 18 q 530 -22 529 -3 q 528 -57 531 -40 q 506 -89 519 -76 q 491 -103 499 -99 q 474 -114 483 -108 q 457 -122 467 -119 q 436 -126 447 -124 q 414 -127 425 -128 q 392 -122 403 -126 q 376 -119 385 -121 q 361 -115 368 -118 q 329 -107 343 -112 q 304 -97 318 -103 q 276 -86 290 -92 q 241 -65 258 -78 q 204 -37 224 -53 q 182 -20 193 -29 q 161 3 171 -11 q 133 34 146 19 q 110 68 119 49 q 88 108 99 88 q 69 149 76 128 q 61 181 67 165 q 50 213 56 197 q 29 375 35 297 q 29 526 28 450 q 39 678 31 601 q 52 760 43 719 q 72 842 61 801 q 99 919 83 882 q 138 989 115 957 q 182 1051 158 1022 q 233 1108 206 1081 q 255 1131 242 1119 q 281 1150 268 1143 q 319 1176 300 1165 q 361 1197 339 1186 q 442 1207 396 1215 q 480 1190 464 1203 q 504 1167 496 1178 q 513 1150 511 1160 q 514 1129 514 1140 q 511 1092 518 1111 q 504 1076 510 1083 q 492 1063 499 1069 q 465 1038 483 1047 q 447 1028 457 1033 q 426 1019 436 1024 q 397 995 410 1008 q 368 969 383 982 q 336 927 350 949 q 307 882 322 906 q 261 738 278 814 q 256 697 258 717 q 251 654 253 678 q 245 566 247 611 q 243 478 243 521 q 244 398 244 438 q 249 318 244 358 q 261 253 253 285 q 279 192 269 222 q 299 161 290 176 q 317 132 307 146 q 340 110 328 121 q 363 89 351 99 q 384 78 374 85 q 404 67 394 72 q 431 62 419 64 q 456 57 443 60 q 480 47 469 54 q 500 32 490 40 z "},")":{"ha":542,"x_min":29,"x_max":501,"o":"m 497 797 q 499 732 499 765 q 499 667 500 699 q 499 515 501 590 q 489 364 496 439 q 485 299 486 329 q 478 233 483 268 q 463 164 471 199 q 436 96 454 129 q 419 56 429 74 q 397 22 408 39 q 365 -10 382 6 q 331 -42 349 -26 q 309 -59 322 -53 q 285 -76 296 -65 q 268 -85 275 -82 q 254 -90 261 -87 q 237 -99 244 -93 q 224 -107 229 -104 q 196 -117 210 -112 q 165 -126 182 -122 q 85 -114 121 -137 q 51 -92 64 -107 q 32 -61 39 -78 q 30 -42 31 -51 q 32 -26 29 -33 q 46 10 35 -4 q 77 35 58 25 q 114 53 96 46 q 122 54 119 53 q 131 57 124 56 q 151 65 142 61 q 168 78 161 69 q 188 90 178 83 q 206 104 199 96 q 219 123 213 113 q 233 144 226 133 q 247 188 240 167 q 261 232 254 210 q 268 285 265 258 q 271 339 271 313 q 280 467 278 401 q 283 594 282 532 q 284 659 285 626 q 282 722 283 692 q 283 769 283 746 q 279 815 282 792 q 268 866 274 843 q 254 917 263 889 q 240 942 247 929 q 225 963 232 954 q 197 986 210 975 q 169 1010 185 997 q 144 1028 158 1018 q 114 1044 129 1038 q 80 1066 90 1053 q 63 1097 69 1079 q 60 1135 56 1117 q 76 1168 65 1153 q 88 1182 79 1175 q 104 1194 97 1189 q 143 1210 125 1207 q 163 1215 153 1214 q 183 1214 174 1215 q 205 1208 194 1211 q 226 1199 215 1206 q 254 1183 244 1194 q 295 1160 275 1172 q 335 1133 315 1149 q 359 1113 347 1125 q 382 1088 371 1100 q 413 1056 399 1071 q 436 1019 428 1040 q 469 943 460 981 q 488 872 483 908 q 497 797 493 836 z "},"*":{"ha":472,"x_min":40,"x_max":442,"o":"m 435 1003 q 438 994 438 997 q 442 986 439 992 q 439 967 442 972 q 436 958 438 964 q 432 950 435 953 q 418 939 426 940 q 406 928 413 933 q 393 919 400 922 q 361 895 376 907 q 331 871 346 883 q 343 863 338 868 q 357 851 349 857 q 380 833 368 843 q 404 811 392 822 q 410 802 407 807 q 417 790 414 797 q 418 779 417 782 q 417 767 418 774 q 411 753 415 760 q 404 743 406 747 q 395 738 399 739 q 388 735 392 736 q 379 731 385 732 q 369 731 374 731 q 351 735 361 731 q 338 743 340 738 q 315 765 326 754 q 292 782 304 775 q 292 744 292 763 q 289 706 292 725 q 282 682 289 693 q 278 677 279 679 q 275 671 278 675 q 266 665 271 668 q 254 660 261 663 q 243 658 244 660 q 222 664 229 658 q 215 666 219 664 q 206 671 211 668 q 201 680 203 676 q 199 688 200 683 q 196 697 197 692 q 194 706 194 701 q 197 737 197 721 q 199 768 197 753 l 197 765 q 159 737 178 751 q 121 708 140 722 q 101 693 114 699 l 88 693 q 76 694 82 693 q 64 700 69 696 q 59 704 61 703 q 54 708 57 706 q 46 722 46 714 q 40 740 40 732 q 46 758 40 749 q 49 767 46 763 q 54 774 51 772 q 88 801 71 789 q 121 826 106 813 q 143 844 132 835 q 167 863 154 854 q 149 871 157 867 q 132 878 140 875 q 106 889 118 883 q 81 899 93 894 q 58 908 68 901 q 56 915 57 913 q 53 919 54 917 q 47 931 47 924 q 46 946 46 938 l 46 956 q 56 971 51 967 q 69 983 60 981 q 86 989 81 989 q 97 990 93 992 q 104 989 101 989 q 144 975 125 982 q 183 961 164 968 q 194 954 189 957 q 203 949 199 951 l 203 996 q 206 1021 203 1014 q 215 1029 211 1025 q 238 1042 224 1040 q 249 1043 240 1043 q 268 1040 257 1044 q 282 1029 275 1040 q 292 1015 290 1021 q 296 1007 294 1011 q 297 996 297 1003 l 297 965 q 333 992 315 979 q 371 1019 351 1004 q 381 1024 375 1024 q 394 1025 388 1025 l 407 1025 q 419 1019 414 1022 q 429 1013 424 1017 q 433 1008 432 1010 q 435 1003 433 1006 z "},"+":{"ha":849,"x_min":35,"x_max":815,"o":"m 808 547 q 812 531 811 538 q 815 518 813 525 q 806 478 815 493 q 783 440 799 460 q 749 419 765 426 q 707 410 731 410 q 645 408 676 408 q 583 404 614 407 l 560 404 q 560 337 560 371 q 561 267 561 303 q 558 241 561 254 q 546 215 554 228 q 531 193 533 200 q 508 175 521 182 q 481 164 496 168 q 456 160 469 164 q 411 169 431 160 q 394 179 403 172 q 378 193 386 186 q 365 209 371 200 q 357 228 360 218 q 349 247 350 235 q 347 267 347 258 q 346 324 347 294 q 344 381 344 353 l 344 396 q 244 392 294 393 q 146 389 194 390 q 117 392 131 389 q 92 403 103 396 q 79 412 85 407 q 69 419 74 417 q 50 442 57 431 q 39 468 43 453 q 38 482 39 475 q 38 496 38 489 q 47 535 35 521 q 69 572 51 558 q 85 586 75 582 q 101 593 94 590 q 122 601 113 597 q 146 604 132 604 q 206 606 175 606 q 269 607 238 606 q 305 609 288 607 q 342 611 322 611 l 342 788 q 357 844 342 814 q 364 852 360 847 q 372 861 368 857 q 421 890 393 882 q 434 892 428 892 q 447 894 440 892 q 490 885 472 894 q 524 861 508 879 q 546 826 539 850 q 557 788 557 811 l 557 672 l 557 619 q 632 621 594 619 q 707 626 669 622 q 735 622 722 626 q 761 611 747 618 q 772 601 768 606 q 783 593 776 596 q 799 571 792 582 q 808 547 806 560 z "},",":{"ha":282,"x_min":32,"x_max":247,"o":"m 35 129 q 63 186 39 164 q 122 214 86 208 q 194 204 160 221 q 240 149 229 188 q 247 99 247 126 q 240 42 246 71 q 220 -13 233 14 q 189 -62 207 -40 q 154 -90 175 -81 q 114 -99 133 -100 q 79 -87 94 -99 q 61 -49 64 -75 q 60 -32 60 -39 q 63 -17 61 -25 q 65 -1 64 -10 q 65 22 65 7 q 58 45 64 35 q 47 67 53 56 q 36 92 40 78 q 35 129 32 107 z "},"-":{"ha":904,"x_min":39,"x_max":871,"o":"m 871 464 q 864 425 871 440 q 854 403 861 413 q 843 388 847 394 q 826 375 836 381 q 807 365 817 369 q 788 360 799 361 q 767 358 778 358 q 700 358 735 358 q 631 356 665 358 q 515 349 572 353 q 400 340 458 346 q 288 331 342 336 q 181 317 233 325 q 122 317 150 307 q 94 329 108 325 q 58 365 75 342 q 53 380 56 372 q 49 394 50 388 q 47 438 39 417 q 58 474 47 457 q 70 492 63 485 q 85 504 78 499 q 101 517 92 511 q 122 525 111 524 q 203 535 165 529 q 283 544 242 540 q 403 556 344 551 q 522 565 463 561 q 767 569 644 569 q 794 567 779 569 q 819 558 808 565 q 832 550 826 556 q 843 540 838 544 q 860 518 854 529 q 869 494 865 507 q 870 478 869 486 q 871 464 871 471 z "},".":{"ha":293,"x_min":42,"x_max":260,"o":"m 72 33 q 60 48 65 40 q 51 67 54 56 q 43 86 44 76 q 42 108 42 96 l 42 110 q 63 174 42 146 q 121 214 85 203 q 135 216 128 215 q 149 217 142 217 q 170 215 160 217 q 192 208 181 214 q 225 188 210 201 q 256 123 251 157 q 240 53 260 89 q 233 43 238 47 q 225 33 228 39 q 178 4 201 10 q 164 2 171 4 q 149 0 157 0 q 128 1 138 -3 q 107 8 118 6 q 72 33 88 15 z "},"/":{"ha":657,"x_min":24,"x_max":701,"o":"m 676 1106 q 685 1093 682 1101 q 693 1076 689 1085 q 682 1004 701 1039 q 644 935 664 969 q 606 864 625 900 q 542 739 574 801 q 481 611 510 676 q 423 490 450 551 q 368 367 396 429 q 351 325 360 346 q 333 282 343 304 q 267 118 299 201 q 208 -49 236 35 q 199 -69 204 -58 q 182 -87 193 -81 q 174 -94 178 -92 q 164 -103 169 -96 q 130 -113 149 -111 q 92 -112 111 -115 q 75 -106 82 -110 q 61 -94 68 -101 q 35 -68 47 -85 q 28 -36 28 -51 q 29 -1 24 -17 q 39 28 31 13 q 78 135 57 81 q 121 244 99 190 q 167 361 143 304 q 217 476 192 418 q 265 581 240 529 q 314 685 290 633 q 363 789 338 738 q 414 893 389 840 q 469 996 442 944 q 524 1100 496 1047 q 549 1123 535 1113 q 578 1136 563 1133 q 615 1140 596 1142 q 650 1132 635 1138 q 665 1119 657 1125 q 676 1106 672 1113 z "},";":{"ha":290,"x_min":33,"x_max":260,"o":"m 72 563 q 60 577 65 569 q 51 596 54 585 q 43 615 44 606 q 42 638 42 625 l 42 639 q 63 703 42 675 q 121 743 85 732 q 135 745 128 744 q 149 746 142 746 q 170 744 160 746 q 192 738 181 743 q 225 717 210 731 q 256 652 251 686 q 240 582 260 618 q 233 572 238 576 q 225 563 228 568 q 178 533 201 539 q 164 531 171 533 q 149 529 157 529 q 128 531 138 526 q 107 538 118 535 q 72 563 88 544 m 43 293 q 93 332 64 319 q 151 342 122 344 q 205 324 181 340 q 238 274 229 307 q 245 213 246 246 q 238 144 244 179 q 218 74 231 108 q 188 14 206 40 q 153 -20 174 -8 q 114 -31 133 -32 q 79 -16 94 -31 q 61 31 64 -1 q 60 80 58 57 q 61 139 63 103 q 53 178 60 158 q 42 217 47 197 q 35 256 36 238 q 43 293 33 275 z "},"<":{"ha":681,"x_min":33,"x_max":654,"o":"m 636 774 q 649 735 649 754 q 652 713 654 724 q 647 692 650 703 q 626 654 642 672 q 613 639 621 644 q 597 626 604 633 q 567 609 581 617 q 536 590 553 601 q 484 555 511 574 q 433 518 457 536 q 388 487 410 503 q 342 454 365 471 q 334 446 338 449 q 324 439 331 443 q 310 426 317 432 q 296 414 303 419 q 357 379 326 396 q 419 344 388 363 q 486 309 453 325 q 556 278 519 293 q 576 259 565 269 q 593 236 586 249 q 603 213 597 224 q 603 156 607 183 q 598 142 600 149 q 593 128 596 136 q 579 111 586 119 q 563 96 572 103 q 548 85 557 89 q 528 79 539 82 q 508 74 519 75 q 486 75 496 74 q 465 81 475 78 q 444 90 456 85 q 435 94 440 92 q 425 97 431 96 q 338 144 381 121 q 256 190 296 167 q 213 215 233 203 q 168 242 192 228 q 149 253 160 247 q 128 265 139 258 q 92 292 108 282 q 84 299 89 296 q 76 308 79 303 q 56 336 64 318 q 45 352 49 343 q 39 369 42 361 q 38 378 38 374 q 36 392 36 385 q 33 408 36 399 l 33 410 l 33 411 q 36 430 36 418 q 39 451 36 442 q 45 467 42 457 q 56 485 49 478 q 69 502 63 493 q 88 518 76 511 q 122 549 106 533 q 157 578 139 564 q 244 647 200 614 q 332 708 288 679 q 410 762 369 736 q 488 814 450 788 q 515 824 500 821 q 542 826 529 826 q 558 826 551 826 q 571 825 564 825 q 597 813 586 818 q 619 796 608 807 q 628 785 624 790 q 636 774 633 779 z "},"=":{"ha":892,"x_min":40,"x_max":839,"o":"m 65 592 q 60 603 63 597 q 54 614 57 610 q 53 658 44 638 q 65 697 53 678 q 77 714 71 707 q 94 731 83 721 q 109 740 101 738 q 131 749 117 743 q 206 758 168 754 q 282 767 244 763 q 394 774 340 772 q 507 776 449 776 q 619 776 563 778 q 733 771 675 775 q 786 756 761 771 q 807 739 799 747 q 824 718 818 731 q 836 693 831 706 q 838 678 836 683 q 839 665 839 672 q 829 624 839 638 q 807 588 828 606 q 792 574 800 579 q 774 567 783 569 q 753 558 764 561 q 733 556 742 556 q 672 562 701 558 q 611 565 643 565 q 501 565 556 567 q 393 560 446 564 q 288 553 339 557 q 185 542 238 549 q 131 542 156 532 q 117 546 124 544 q 103 550 110 547 q 83 567 93 557 q 65 592 72 578 m 821 411 q 824 398 824 404 q 828 385 825 392 q 817 342 828 360 q 796 307 807 319 q 778 295 786 300 q 760 286 771 290 q 740 278 750 279 q 718 276 729 276 q 656 275 688 276 q 596 274 625 274 q 483 266 538 269 q 374 257 429 263 q 274 248 325 254 q 175 235 224 242 q 117 235 147 229 q 105 241 111 239 q 93 246 99 243 q 72 263 82 254 q 54 286 63 272 q 49 299 51 293 q 43 310 46 304 q 40 334 40 324 q 42 356 40 344 q 45 376 42 367 q 54 396 49 385 q 82 425 65 413 q 99 437 89 433 q 117 443 110 440 q 195 453 158 449 q 272 461 232 458 q 384 472 329 468 q 497 481 439 476 q 605 488 550 485 q 718 490 660 490 q 748 487 733 490 q 774 475 763 483 q 785 467 779 472 q 796 460 790 463 q 811 438 804 449 q 821 411 818 426 z "},">":{"ha":629,"x_min":31,"x_max":601,"o":"m 596 475 q 598 456 597 464 q 601 439 599 449 q 599 426 601 432 q 597 414 597 419 q 596 403 596 410 q 594 390 596 397 l 594 389 q 589 376 592 382 q 583 361 586 371 q 583 358 583 358 q 582 357 582 358 q 575 348 581 351 q 565 338 569 344 q 558 326 563 332 q 547 314 553 319 q 526 299 536 307 q 510 288 517 292 q 433 231 472 258 q 354 179 394 204 q 275 131 314 156 q 193 83 236 106 q 167 72 181 76 q 139 67 154 67 q 125 71 132 69 q 111 72 118 72 q 61 97 86 76 q 49 121 57 110 q 35 158 35 139 q 38 204 31 185 q 44 222 39 213 q 57 242 50 231 q 67 255 60 250 q 85 267 75 260 q 122 288 104 278 q 160 310 140 297 q 223 349 190 329 q 288 390 256 368 q 325 417 307 404 q 365 444 343 429 l 365 446 q 295 506 331 478 q 228 561 260 533 q 217 570 222 567 q 208 576 213 574 q 153 615 181 599 q 99 651 126 632 q 77 669 88 661 q 60 692 67 678 q 56 703 57 697 q 51 715 54 710 q 51 772 38 743 q 56 785 54 779 q 60 800 57 792 q 72 816 67 808 q 89 831 78 824 q 106 840 96 836 q 126 847 115 844 q 147 851 136 850 q 168 850 158 851 q 188 845 179 847 q 206 836 196 843 q 226 825 217 835 q 312 765 271 796 q 394 701 353 733 q 431 672 413 686 q 463 642 449 658 q 499 613 482 625 q 532 582 517 600 q 540 574 536 578 q 549 565 543 569 q 562 547 556 556 q 575 526 568 538 q 586 507 582 518 q 594 485 590 496 q 596 475 594 478 z "},"¢":{"ha":689,"x_min":26,"x_max":668,"o":"m 368 1058 q 397 1056 382 1060 q 422 1046 411 1053 q 437 1029 431 1039 q 443 1008 443 1019 l 443 924 q 448 922 446 924 q 453 921 450 921 l 492 906 l 515 892 q 540 874 529 882 q 565 856 550 865 q 582 833 569 847 q 599 811 592 822 q 611 785 607 800 l 614 754 q 611 726 614 739 q 600 700 608 713 l 582 675 q 566 661 575 668 q 544 650 557 654 q 525 644 536 647 q 503 643 514 642 q 483 644 493 642 q 464 650 472 647 q 447 657 456 651 l 451 283 l 531 303 q 571 306 549 310 q 613 292 593 303 q 650 251 635 276 q 665 215 661 235 q 665 176 668 196 q 653 138 663 156 q 626 106 643 119 q 588 86 607 90 q 570 81 578 83 q 551 75 563 79 q 517 69 536 72 q 481 63 497 65 l 456 60 q 456 14 456 35 q 457 -25 457 -7 q 439 -67 460 -50 q 392 -86 419 -83 q 336 -75 360 -87 q 318 -58 325 -68 q 313 -36 311 -47 q 311 6 311 -15 q 311 51 311 28 q 289 53 296 51 l 231 61 q 223 62 226 61 q 217 63 219 63 l 185 81 l 181 81 q 178 82 179 81 q 156 97 167 88 q 132 115 146 106 q 113 135 121 124 q 96 158 104 146 q 89 170 92 164 q 82 185 86 176 q 65 225 71 203 q 63 231 65 228 q 60 240 61 235 l 53 268 q 44 303 50 286 q 36 340 39 321 q 28 427 31 385 q 26 514 26 469 q 27 548 26 532 q 29 583 28 564 q 33 617 31 601 q 36 649 35 632 q 43 682 39 667 q 50 699 49 692 q 54 713 51 707 q 56 723 54 719 q 60 732 58 726 q 75 772 67 749 q 90 797 86 783 q 103 815 97 807 q 118 832 110 822 q 126 842 119 839 q 150 861 136 854 q 194 894 169 883 q 204 901 199 899 q 217 910 210 903 l 267 926 q 301 935 285 932 l 301 996 q 317 1036 300 1017 q 368 1058 336 1056 m 263 338 q 280 298 268 313 q 308 276 292 283 l 304 696 q 262 631 275 676 q 247 531 249 585 q 250 424 244 476 q 263 338 256 371 z "},"€":{"ha":975,"x_min":39,"x_max":940,"o":"m 922 194 q 929 182 926 188 q 935 169 932 176 q 938 125 940 150 q 922 86 938 106 q 913 68 919 75 q 896 56 906 61 q 878 44 889 49 q 861 36 868 39 q 842 30 851 33 q 824 24 833 26 q 786 11 806 17 q 750 1 767 6 q 711 -6 731 -1 q 678 -9 694 -8 q 646 -12 661 -10 q 607 -15 626 -15 q 568 -10 588 -14 q 519 -4 544 -8 q 469 10 493 0 q 439 21 454 15 q 410 33 424 26 q 394 44 403 40 q 378 53 385 47 q 360 66 369 60 q 342 79 351 72 q 335 85 339 82 q 328 90 331 89 q 315 104 321 97 q 301 118 308 111 q 282 143 292 131 q 263 169 272 156 q 253 183 257 176 q 243 199 249 190 q 235 215 240 206 q 226 233 229 224 q 215 263 221 249 q 206 290 208 276 q 199 313 203 301 q 193 335 196 324 q 154 333 174 335 q 115 329 135 332 q 97 333 106 329 q 78 342 88 336 q 70 348 74 346 q 63 354 67 350 q 49 370 54 361 q 42 388 44 379 q 40 399 42 394 q 39 408 39 403 q 46 438 39 426 q 52 451 49 444 q 63 465 56 458 q 74 474 67 471 q 88 482 81 478 q 115 486 103 490 q 148 490 132 489 q 179 492 164 492 l 179 494 q 180 508 179 501 q 181 522 181 515 q 149 521 165 522 q 115 519 132 519 q 78 529 96 519 q 70 535 74 532 q 63 542 67 538 q 42 578 49 554 q 40 587 42 582 q 39 597 39 592 q 41 614 39 607 q 46 628 43 621 q 63 653 50 642 q 88 669 72 665 q 115 676 101 676 q 163 679 139 679 q 207 682 186 679 l 207 683 q 219 715 213 700 q 233 746 226 731 q 241 762 238 753 q 250 781 244 771 q 289 833 267 807 q 303 847 296 840 q 317 858 310 853 q 329 871 322 868 q 348 885 339 878 q 368 900 357 893 q 384 912 375 907 q 400 919 393 917 q 419 930 410 926 q 436 938 428 933 q 466 951 451 944 q 496 963 481 957 q 535 974 517 968 q 574 982 553 979 q 607 988 589 986 q 642 992 625 989 q 660 994 650 994 q 679 994 669 994 q 700 994 690 994 q 721 992 710 994 q 753 988 738 989 q 785 982 768 986 q 824 969 806 978 q 846 961 835 967 q 868 953 857 956 q 876 949 871 950 q 883 944 881 947 q 922 906 908 931 q 928 892 926 899 q 935 879 931 886 q 935 821 940 847 q 928 809 931 815 q 922 797 926 803 q 911 778 917 786 q 896 765 906 771 q 858 746 876 750 q 814 743 839 739 q 794 747 803 743 q 775 756 785 750 q 765 761 767 761 q 713 775 744 771 q 639 775 675 779 q 588 763 613 769 q 538 746 563 757 q 475 713 504 731 l 446 683 l 446 682 q 530 678 488 682 q 614 672 572 675 q 653 663 638 672 q 662 656 658 658 q 669 650 665 653 q 689 614 685 635 q 692 605 692 608 q 693 594 692 601 q 686 564 693 576 q 669 539 679 549 q 646 522 660 525 q 614 514 631 514 q 560 519 586 517 q 506 522 533 522 q 451 525 478 524 q 397 526 425 526 q 397 511 397 519 q 396 496 396 503 l 419 496 q 517 491 468 494 q 614 485 565 488 q 653 472 633 485 q 669 460 660 469 q 681 444 676 453 q 689 425 686 436 q 692 415 692 419 q 693 404 692 410 q 686 376 693 389 q 669 349 679 360 q 646 335 660 339 q 614 326 631 326 l 506 335 q 461 338 483 338 q 418 339 439 338 q 419 336 418 338 q 419 332 419 335 q 433 303 426 317 q 450 278 440 289 q 467 259 460 268 q 486 240 475 250 q 505 230 496 235 q 524 218 514 225 q 550 211 538 215 q 578 204 563 207 q 621 202 600 201 q 663 207 642 203 q 673 208 668 207 q 683 208 678 208 q 744 224 715 215 q 801 246 772 233 q 861 246 831 251 q 872 240 867 242 q 883 233 878 238 q 922 194 908 219 z "},"¥":{"ha":972,"x_min":47,"x_max":935,"o":"m 929 497 q 931 483 929 490 q 932 469 932 476 q 931 448 935 458 q 925 426 928 438 q 915 411 921 419 q 901 396 910 403 q 885 384 894 389 q 869 375 876 379 q 849 369 858 371 q 826 367 839 367 q 686 371 760 371 q 649 372 667 371 q 611 372 631 372 q 609 331 610 351 q 606 292 608 311 q 683 295 646 293 q 761 300 721 297 q 814 288 789 300 q 826 277 821 281 q 836 269 831 274 q 861 224 854 249 q 865 210 864 217 q 867 197 867 204 q 857 157 867 175 q 836 124 849 138 q 800 103 819 107 q 761 93 782 93 q 697 90 729 90 q 633 88 665 90 q 605 86 618 88 q 576 85 592 85 l 567 11 q 540 -33 557 -15 q 529 -42 535 -37 q 518 -50 524 -47 q 464 -64 490 -64 q 450 -62 457 -64 q 436 -61 443 -61 q 400 -43 413 -54 q 384 -29 392 -36 q 372 -12 376 -22 q 363 4 367 -6 q 360 25 360 14 q 359 47 358 36 q 363 67 360 57 q 364 77 363 72 q 365 88 365 82 q 270 92 318 90 q 175 99 222 94 q 122 111 144 99 q 101 128 114 121 q 74 175 79 150 q 69 201 74 189 q 72 222 69 211 q 78 239 75 232 q 101 275 83 260 q 135 296 115 289 q 175 304 149 304 q 304 296 243 297 q 347 293 325 293 q 393 293 369 293 q 397 331 396 311 q 400 371 399 351 q 292 369 346 371 q 188 364 239 368 q 132 378 157 364 q 111 394 121 388 q 96 416 103 406 q 85 439 89 426 q 82 453 82 446 q 81 467 82 460 q 82 488 81 478 q 90 508 83 497 q 111 539 96 524 q 126 552 118 546 q 146 560 135 558 q 165 568 154 567 q 188 569 176 569 l 328 578 l 400 578 q 374 605 388 592 q 349 632 361 618 q 283 693 317 663 q 217 753 250 724 q 149 810 183 782 q 78 865 115 838 q 51 911 58 886 q 50 924 50 918 q 47 938 50 931 q 61 989 47 965 q 78 1011 72 1001 q 114 1032 92 1025 q 153 1040 128 1040 q 174 1039 164 1040 q 196 1032 185 1038 q 213 1024 204 1029 q 228 1011 221 1018 q 267 981 247 996 q 307 947 288 965 q 375 890 342 919 q 440 829 408 861 q 477 797 458 814 q 511 763 496 779 q 540 795 526 779 q 567 829 554 811 q 597 862 582 844 q 626 896 611 879 q 684 967 654 932 q 742 1036 714 1001 q 788 1064 761 1056 q 817 1068 801 1064 q 844 1064 832 1068 q 871 1053 856 1060 q 881 1045 876 1049 q 892 1036 886 1042 q 913 1004 906 1024 q 922 965 922 989 q 913 924 922 943 q 904 908 910 917 q 892 893 899 900 l 826 813 q 767 743 796 776 q 711 675 739 710 q 669 625 689 649 q 626 579 650 601 q 726 576 675 578 q 826 572 778 575 q 879 558 857 572 q 891 549 886 553 q 901 542 896 546 q 929 497 922 519 z "},"×":{"ha":788,"x_min":26,"x_max":739,"o":"m 728 701 q 737 683 735 692 q 739 660 739 674 q 737 638 739 649 q 728 619 735 628 q 720 601 725 608 q 710 583 715 593 q 703 578 706 582 q 694 569 700 575 q 653 522 675 546 q 608 472 632 499 q 571 431 586 451 q 590 412 581 422 q 611 389 599 401 q 649 346 631 369 q 689 301 668 322 q 714 256 710 281 q 718 240 717 249 q 719 225 719 232 q 716 197 719 210 q 706 169 713 185 q 697 160 703 165 q 689 149 692 156 q 653 126 675 135 q 633 121 643 124 q 613 118 624 118 q 590 121 600 118 q 572 126 581 124 q 538 149 553 133 q 506 185 522 165 q 474 221 489 204 q 442 253 457 236 q 413 286 428 269 q 367 244 392 264 q 319 203 343 224 q 256 153 288 178 q 192 104 224 129 q 143 92 168 92 q 127 94 133 94 q 114 96 121 94 q 64 124 83 104 q 49 144 54 132 q 37 165 39 156 q 33 188 35 174 q 35 226 26 206 q 44 247 39 238 q 56 264 49 257 q 68 281 58 274 q 88 292 78 288 q 106 306 94 299 q 124 321 117 314 q 171 358 147 339 q 218 399 194 376 q 235 413 226 406 q 253 428 243 419 q 242 435 247 431 q 231 444 238 439 q 225 451 228 449 q 215 457 222 453 q 163 494 189 476 q 111 529 138 513 q 71 568 86 543 q 65 583 68 578 q 60 596 63 588 q 60 651 54 625 q 65 665 63 658 q 71 678 68 671 q 100 707 83 696 q 135 726 118 725 q 179 728 156 731 q 219 718 201 728 q 225 712 222 714 q 231 707 228 710 q 279 674 254 690 q 328 640 304 657 q 369 608 347 625 q 410 576 390 592 q 442 610 425 593 q 476 646 460 626 q 516 691 497 669 q 553 736 535 713 q 578 753 567 746 q 604 763 589 760 q 618 764 611 763 q 631 765 625 765 q 685 750 664 765 q 710 736 694 746 q 720 720 715 729 q 728 701 725 711 z "},"÷":{"ha":879,"x_min":43,"x_max":838,"o":"m 832 497 q 833 485 832 492 q 838 469 835 478 q 828 429 838 449 q 804 394 822 407 q 790 381 797 388 q 771 372 782 375 q 731 363 756 363 q 667 363 699 363 q 601 360 635 363 q 490 360 546 360 q 376 358 435 360 q 265 354 321 356 q 151 350 210 353 q 122 353 136 350 q 97 363 108 356 q 87 373 92 369 q 75 381 82 376 q 47 429 57 403 q 44 443 44 436 q 43 457 44 450 q 45 476 43 467 q 54 497 47 486 q 75 532 58 517 q 110 554 90 547 q 131 560 121 558 q 151 561 140 561 q 215 567 183 565 q 275 568 247 568 q 391 572 336 569 q 504 576 446 574 q 615 577 558 576 q 731 578 672 578 q 758 574 746 578 q 785 561 771 571 q 793 554 789 557 q 804 549 797 551 q 822 524 815 536 q 832 497 829 513 m 342 721 q 340 735 342 728 q 339 750 339 743 q 340 771 338 761 q 347 789 343 781 q 369 824 354 813 q 404 847 382 840 q 447 857 424 857 q 499 843 476 857 q 510 835 504 840 q 522 824 515 829 q 550 778 542 804 q 553 764 553 771 q 556 750 553 757 q 544 710 556 725 q 535 689 539 697 q 522 675 531 681 q 506 660 514 665 q 489 651 499 656 q 468 646 478 649 q 447 643 458 643 q 392 657 417 643 q 369 675 381 663 q 353 695 360 685 q 342 721 346 706 m 556 201 q 556 190 556 196 q 557 175 557 183 q 556 154 557 164 q 549 133 554 144 q 539 115 544 124 q 526 99 533 107 q 510 86 518 92 q 492 78 501 81 q 471 69 481 71 q 450 68 461 68 q 421 71 435 68 q 394 82 407 74 q 384 91 390 88 q 372 99 378 94 q 358 121 364 110 q 347 147 351 132 q 345 161 346 154 q 342 175 344 168 q 344 196 342 186 q 353 218 347 206 q 372 251 360 238 q 389 263 381 258 q 407 272 397 268 q 428 281 418 278 q 450 283 439 283 q 504 267 481 283 q 526 251 514 258 q 542 228 535 239 q 556 201 550 217 z "},"A":{"ha":753,"x_min":33,"x_max":729,"o":"m 714 803 q 720 766 717 785 q 725 729 724 747 q 727 627 729 678 q 724 525 725 576 q 717 424 719 475 q 711 321 714 374 q 709 265 710 296 q 707 201 708 233 q 704 138 706 169 q 701 81 703 106 q 689 33 701 56 q 680 24 685 28 q 672 15 675 19 q 625 -7 649 -1 q 596 -12 613 -12 q 576 -11 586 -12 q 558 -3 565 -10 q 538 5 547 0 q 521 15 529 10 q 500 46 508 28 q 490 81 490 60 q 492 114 492 94 q 492 153 492 133 q 494 193 493 174 q 496 228 494 213 l 490 228 q 435 222 463 225 q 378 217 407 219 q 365 215 371 217 q 353 214 360 214 q 299 206 325 208 q 243 196 272 203 q 244 139 243 168 q 246 81 246 110 q 242 57 246 69 q 231 33 239 44 q 215 15 224 26 q 168 -8 194 -4 q 154 -10 161 -8 q 140 -12 147 -12 q 119 -10 129 -14 q 97 -3 108 -7 q 65 15 81 0 q 52 28 58 21 q 44 44 46 36 q 35 81 35 60 q 35 103 35 90 q 33 129 35 117 q 33 226 33 178 q 35 324 33 274 q 40 421 38 372 q 49 518 42 469 q 68 625 58 572 q 96 731 78 678 q 111 776 103 754 q 129 822 119 799 q 154 876 140 850 q 188 925 168 901 q 208 948 197 936 q 229 974 218 960 q 247 988 239 981 q 263 999 254 994 q 292 1017 278 1008 q 322 1033 306 1026 q 353 1046 336 1040 q 385 1053 369 1051 q 410 1056 397 1054 q 435 1057 422 1057 q 458 1056 446 1057 q 483 1053 469 1054 q 506 1049 493 1053 q 528 1041 518 1044 q 550 1033 539 1038 q 559 1028 554 1031 q 567 1022 564 1025 q 588 1010 578 1017 q 608 996 597 1004 q 631 973 621 985 q 653 949 642 961 q 667 930 660 939 q 678 910 674 921 q 692 878 685 894 q 704 844 699 863 q 709 824 707 835 q 714 803 711 814 m 390 403 q 447 409 418 407 q 506 413 475 411 q 508 463 507 438 q 508 514 508 489 q 516 633 513 574 q 508 753 519 693 q 502 790 507 772 q 490 826 497 808 q 438 869 469 869 q 374 836 406 868 q 351 805 363 821 q 332 771 340 789 q 323 749 326 760 q 315 724 319 739 q 283 627 296 676 q 263 529 271 578 q 257 482 258 504 q 253 438 256 460 q 249 410 251 422 q 247 385 247 399 q 319 396 283 392 q 390 403 354 400 z "},"B":{"ha":774,"x_min":40,"x_max":753,"o":"m 546 456 q 675 399 629 436 q 737 318 721 363 q 741 226 753 274 q 698 135 729 178 q 619 58 667 92 q 515 8 572 24 q 385 -12 450 -11 q 331 -16 357 -15 q 276 -14 304 -17 q 211 -8 247 -12 q 142 7 175 -4 q 86 41 110 18 q 58 103 63 64 q 52 196 54 149 q 47 289 50 243 q 42 454 43 372 q 42 619 40 536 q 47 778 44 699 q 53 936 50 857 q 53 945 53 940 q 57 956 54 950 q 71 1003 57 981 q 79 1010 74 1006 q 88 1022 85 1015 q 110 1037 99 1031 q 136 1046 121 1043 q 150 1048 143 1046 q 164 1050 157 1050 l 182 1050 q 251 1060 217 1056 q 321 1068 285 1065 q 385 1068 353 1071 q 412 1067 399 1068 q 439 1063 425 1065 q 465 1057 451 1058 q 540 1033 497 1051 q 562 1024 550 1028 q 585 1013 574 1019 q 603 999 593 1006 q 625 985 614 993 q 633 977 628 982 q 643 968 639 972 q 660 952 651 961 q 675 935 668 943 q 683 924 679 929 q 690 915 686 919 q 699 893 694 904 q 711 871 704 882 q 716 860 714 865 q 719 849 718 854 q 724 824 724 836 q 728 799 725 813 q 729 788 729 793 q 729 775 729 782 l 729 749 q 694 631 724 686 q 622 526 665 576 q 588 490 607 507 q 546 456 568 474 m 501 710 q 509 803 526 767 q 451 858 492 839 q 359 878 411 876 q 265 871 307 881 q 261 767 261 818 q 256 635 257 701 q 256 501 256 568 q 306 531 281 517 q 357 561 331 546 q 413 605 385 582 q 465 654 440 628 q 485 682 476 668 q 501 710 494 696 m 268 176 q 370 177 321 174 q 476 197 419 181 q 507 213 494 204 q 522 231 519 221 q 513 253 524 242 q 476 275 503 264 q 377 298 428 293 q 268 303 326 303 l 261 303 q 263 240 263 271 q 268 176 264 210 z "},"C":{"ha":739,"x_min":38,"x_max":715,"o":"m 682 824 q 698 783 692 804 q 711 739 704 763 q 711 690 715 717 q 704 679 707 685 q 697 667 701 674 q 660 635 686 647 q 648 630 654 632 q 635 624 642 628 q 614 622 625 622 q 592 624 603 621 q 573 627 582 624 q 553 635 564 631 q 539 645 546 640 q 528 661 532 650 q 507 690 514 668 q 497 730 503 710 q 481 769 490 750 q 438 835 463 806 q 361 874 397 883 q 296 807 325 864 q 272 740 282 774 q 256 671 261 706 q 251 613 251 643 q 251 497 247 556 q 263 378 256 439 q 276 308 269 343 q 299 239 283 274 q 309 224 304 232 q 319 208 314 215 q 327 199 322 201 q 336 193 332 197 q 346 188 340 190 q 354 183 351 185 q 372 178 364 181 q 390 175 381 176 q 451 174 414 172 q 513 178 489 176 q 567 186 539 183 q 622 186 593 194 q 647 178 635 183 q 686 144 671 167 q 691 133 689 139 q 696 121 693 128 q 696 85 704 104 q 686 50 696 67 q 673 35 679 42 q 660 24 667 29 q 641 13 650 17 q 622 6 632 8 q 600 3 611 4 q 579 -1 589 1 q 547 -5 567 -3 q 507 -8 528 -7 q 466 -10 486 -10 q 432 -11 446 -11 q 410 -12 421 -14 q 389 -11 399 -11 q 319 -3 350 -8 q 256 21 283 6 q 218 38 235 26 q 193 56 206 47 q 169 76 181 65 q 149 99 160 88 q 132 122 139 110 q 122 139 126 132 q 114 153 117 146 q 100 181 107 168 q 89 208 93 194 q 78 244 83 225 q 69 279 72 263 q 53 385 60 329 q 47 430 49 408 q 44 474 46 451 q 39 563 40 518 q 44 651 38 607 q 60 749 50 700 q 89 847 69 799 q 100 874 93 861 q 114 901 107 886 q 123 919 119 911 q 132 933 126 926 q 152 958 142 947 q 174 981 163 969 q 185 994 178 988 q 201 1007 193 1000 q 217 1019 207 1013 q 235 1029 226 1025 q 251 1040 242 1035 q 290 1054 271 1050 q 311 1060 300 1057 q 333 1063 322 1061 q 357 1065 344 1065 q 378 1067 364 1067 q 401 1063 389 1065 q 424 1060 413 1061 q 433 1058 429 1058 q 443 1057 438 1058 q 465 1049 454 1054 q 486 1040 475 1044 q 495 1035 492 1038 q 506 1031 499 1033 q 514 1026 510 1028 q 522 1022 518 1025 q 539 1009 531 1015 q 554 996 547 1003 q 571 983 564 990 q 585 969 578 976 q 608 944 597 957 q 628 919 619 932 q 657 874 644 897 q 682 824 669 850 z "},"D":{"ha":1019,"x_min":40,"x_max":983,"o":"m 957 721 q 972 667 968 693 q 979 614 975 640 q 983 572 982 592 q 982 529 983 551 q 955 387 976 457 q 889 244 933 317 q 857 199 875 221 q 819 158 839 178 q 754 103 786 122 q 709 72 732 86 q 658 44 686 57 q 639 35 649 39 q 618 25 629 31 q 438 -19 536 -12 q 238 -14 339 -25 q 193 14 208 -4 q 176 32 182 22 q 161 76 161 54 q 162 90 161 83 q 163 103 163 96 q 172 117 167 110 q 185 135 178 125 q 213 158 196 149 q 230 166 219 164 q 251 169 240 168 q 290 168 272 172 l 290 176 q 298 237 294 206 q 303 297 301 268 q 311 419 310 358 q 311 540 313 479 q 303 658 308 601 q 290 774 299 715 q 274 860 285 814 q 224 850 247 856 q 172 838 200 844 q 119 838 144 833 q 106 843 113 840 q 93 849 100 846 q 58 882 69 864 q 49 906 51 892 q 46 942 40 924 q 58 975 46 960 q 69 989 63 982 q 83 1003 76 996 q 119 1018 100 1014 q 145 1024 132 1021 q 172 1031 158 1028 q 363 1057 268 1049 q 558 1051 458 1065 q 601 1041 578 1047 q 646 1028 624 1035 q 701 1008 674 1018 q 751 983 728 999 q 781 965 767 975 q 808 944 794 956 q 824 932 817 938 q 839 919 832 926 q 865 895 854 908 q 886 868 876 882 q 914 829 897 854 q 930 799 922 814 q 943 765 938 783 q 951 743 949 754 q 957 721 954 732 m 742 389 q 776 551 771 468 q 744 717 781 635 q 730 745 738 732 q 713 769 722 758 q 691 792 703 782 q 667 811 679 801 q 633 831 651 822 q 599 849 615 840 q 549 863 574 856 q 499 872 524 869 q 481 874 492 874 q 485 842 483 858 q 492 811 488 826 q 504 715 499 763 q 513 622 510 668 q 515 540 515 581 q 515 456 515 499 q 514 373 515 413 q 510 290 513 333 q 505 235 508 263 q 499 179 501 207 q 509 184 504 182 q 518 189 514 186 q 569 212 546 199 q 615 239 592 225 q 651 270 635 254 q 685 304 668 286 q 717 344 703 324 q 742 389 731 365 z "},"E":{"ha":697,"x_min":36,"x_max":664,"o":"m 646 157 q 655 140 651 150 q 658 122 658 129 q 657 85 664 103 q 649 68 654 76 q 636 53 643 60 q 624 39 632 46 q 608 29 617 32 q 575 18 592 22 q 543 7 558 14 q 501 -4 522 0 q 460 -12 479 -8 q 401 -18 431 -15 q 344 -21 372 -21 l 308 -21 q 275 -16 290 -18 q 246 -8 260 -14 q 215 -1 229 -6 q 185 11 200 4 q 169 21 178 15 q 150 33 160 26 q 138 46 144 43 q 117 67 126 57 q 103 88 108 76 q 78 139 88 111 q 65 173 69 156 q 58 208 61 190 q 46 297 51 253 q 39 386 40 340 q 38 465 36 426 q 39 543 39 503 q 40 624 40 583 q 43 706 40 665 q 45 786 44 746 q 50 867 46 826 q 52 910 51 888 q 60 953 53 932 q 66 970 61 961 q 76 986 71 979 q 85 1000 79 996 q 96 1015 90 1007 q 110 1029 101 1022 q 125 1039 117 1036 q 135 1045 131 1042 q 147 1053 140 1049 q 267 1074 200 1078 q 313 1072 290 1074 q 357 1068 335 1069 q 463 1059 410 1064 q 569 1050 517 1054 q 597 1040 583 1044 q 617 1025 610 1035 q 627 1015 622 1021 q 635 1007 632 1010 q 644 983 642 996 q 647 958 647 971 q 647 946 647 953 q 646 932 646 939 q 638 917 643 925 q 626 901 633 908 q 596 876 614 886 q 553 867 576 867 q 534 866 544 865 q 514 869 524 867 q 471 874 488 869 q 408 878 439 876 q 346 883 378 881 q 315 885 329 883 q 283 889 300 886 l 268 889 q 267 867 267 878 q 267 846 267 857 q 265 810 267 828 q 264 774 264 793 q 260 656 263 714 q 257 539 258 597 q 329 538 293 538 q 400 542 365 539 q 427 538 413 542 q 454 528 442 535 q 478 514 465 519 q 506 471 500 492 q 507 459 506 464 q 508 447 508 454 q 507 428 510 436 q 499 410 504 421 q 478 382 497 396 q 460 369 469 375 q 444 363 451 364 q 422 354 432 356 q 400 353 411 353 l 346 353 q 258 353 303 349 q 261 310 258 331 q 267 269 264 290 q 271 246 268 258 q 275 221 274 233 q 283 201 281 211 q 289 185 285 192 q 294 176 290 178 l 294 175 q 297 173 297 175 q 300 171 297 171 q 309 169 304 169 q 318 167 314 169 q 360 165 339 164 q 400 169 381 167 q 450 179 425 174 q 501 192 475 185 q 551 203 524 203 q 567 201 560 203 q 581 200 574 200 q 607 190 596 196 q 631 176 618 185 q 638 165 633 171 q 646 157 643 160 z "},"F":{"ha":678,"x_min":38,"x_max":654,"o":"m 650 985 q 651 972 650 978 q 651 960 651 967 q 651 940 654 949 q 644 921 649 932 q 636 905 642 914 q 622 892 631 896 q 588 868 607 875 q 566 863 576 865 q 543 863 556 860 l 472 863 q 406 865 439 864 q 340 868 372 865 l 278 868 q 276 847 276 857 q 272 828 275 838 q 269 782 271 804 q 264 736 268 760 q 258 603 261 669 q 254 469 254 536 q 312 471 276 469 q 384 474 347 472 q 456 475 421 475 q 514 474 490 475 q 569 458 543 471 q 579 451 575 456 q 590 443 583 447 q 615 400 611 426 q 619 388 618 393 q 621 376 619 383 q 619 356 621 365 q 613 336 618 347 q 603 322 608 329 q 590 306 597 314 q 554 286 575 290 q 535 279 546 282 q 514 279 525 276 l 451 279 q 410 278 436 279 q 355 277 383 278 q 299 276 326 276 q 258 274 272 275 q 261 172 258 222 q 269 69 264 122 q 265 45 269 57 q 253 22 260 33 q 245 11 250 15 q 236 3 240 7 q 214 -15 225 -8 q 189 -22 203 -21 q 175 -24 182 -22 q 161 -28 168 -26 q 139 -25 150 -28 q 119 -21 128 -22 q 98 -10 107 -17 q 82 3 89 -4 q 60 33 68 17 q 51 69 51 47 q 51 86 51 79 q 49 100 51 93 q 43 223 46 163 q 40 346 40 283 q 39 467 38 407 q 42 589 40 528 q 47 711 44 651 q 57 833 50 771 q 60 865 58 849 q 64 896 61 881 q 67 919 65 908 q 71 944 68 931 q 101 1004 85 982 q 136 1038 117 1026 q 181 1055 156 1050 q 238 1064 206 1060 q 255 1063 247 1063 q 272 1063 263 1063 q 408 1059 340 1060 q 543 1058 476 1058 q 600 1043 575 1058 q 610 1036 606 1040 q 622 1029 615 1032 q 650 985 642 1007 z "},"G":{"ha":824,"x_min":32,"x_max":792,"o":"m 763 522 q 772 494 769 508 q 778 465 775 481 q 788 394 785 431 q 790 322 792 358 q 785 283 788 303 q 778 243 782 263 q 772 219 775 232 q 763 196 769 207 q 750 161 758 178 q 732 129 742 144 q 725 119 729 122 q 718 111 721 115 q 686 72 703 88 q 626 24 660 46 q 614 19 619 22 q 601 14 608 17 q 550 -6 575 -1 q 537 -8 543 -7 q 522 -10 531 -10 q 492 -15 507 -14 q 463 -17 478 -17 q 449 -17 456 -17 q 436 -15 443 -17 q 407 -11 421 -12 q 381 -7 393 -10 q 366 -4 374 -6 q 350 0 358 -3 q 326 10 338 6 q 300 22 314 15 q 265 40 281 29 q 232 63 249 51 q 181 106 204 82 q 138 157 158 129 q 124 181 131 168 q 110 203 117 193 q 75 274 89 242 q 59 327 67 301 q 47 378 51 353 q 37 448 40 414 q 33 515 33 482 q 33 572 32 543 q 39 628 35 600 q 61 765 43 697 q 114 893 79 833 q 126 921 119 910 q 140 943 133 932 q 167 973 154 958 q 193 1003 179 988 q 213 1018 203 1010 q 235 1033 224 1026 q 245 1041 239 1038 q 258 1047 251 1044 q 310 1067 281 1061 q 336 1071 322 1071 q 363 1076 350 1075 q 392 1078 376 1078 q 419 1076 406 1078 q 446 1071 432 1075 q 488 1064 468 1069 q 526 1051 507 1058 q 561 1031 546 1042 q 594 1007 576 1019 q 623 981 610 994 q 647 951 636 967 q 662 933 656 943 q 676 911 668 922 q 692 876 683 893 q 703 842 700 860 q 703 790 711 814 q 698 776 700 783 q 693 765 696 769 q 676 745 686 753 q 654 731 665 738 q 640 724 646 726 q 629 718 635 721 q 585 718 606 715 q 544 731 561 718 q 528 741 536 736 q 514 754 521 746 q 502 771 507 763 q 496 790 497 779 q 490 803 492 796 q 486 817 489 811 q 475 833 479 826 q 467 847 471 839 q 447 863 457 854 q 425 875 438 872 q 385 879 403 883 q 351 863 367 875 q 323 831 336 850 q 299 792 310 813 q 273 724 282 757 q 258 658 264 690 q 256 633 256 646 q 254 610 256 621 q 251 521 251 565 q 256 432 251 476 q 269 373 261 403 q 289 315 276 343 q 311 280 300 296 q 333 247 322 264 q 354 227 343 236 q 376 208 365 218 q 395 198 386 201 q 414 190 404 194 q 431 184 422 186 q 446 179 439 182 l 475 179 q 541 226 519 192 q 571 306 563 261 q 571 406 575 358 q 565 437 568 422 q 557 467 561 451 l 535 467 q 483 461 506 467 q 428 461 457 457 q 415 467 421 465 q 401 472 408 469 q 381 488 390 479 q 364 508 371 496 q 358 519 361 514 q 354 532 356 525 q 349 552 350 543 q 350 571 349 561 q 353 590 350 582 q 364 608 357 597 q 392 633 376 625 q 428 651 408 647 q 475 659 451 657 q 522 663 499 661 l 593 663 q 612 660 603 661 q 633 658 621 660 q 640 656 636 658 q 647 654 643 654 q 678 639 668 644 q 704 621 689 633 q 717 608 711 615 q 731 594 724 601 q 734 590 732 592 q 738 585 736 588 q 745 569 740 576 q 754 551 750 561 q 759 537 757 544 q 763 522 761 529 z "},"H":{"ha":767,"x_min":36,"x_max":757,"o":"m 725 1074 q 738 1060 732 1067 q 746 1044 743 1053 q 757 1008 757 1029 q 747 906 751 956 q 740 804 743 856 q 730 622 735 713 q 724 439 725 531 q 721 257 722 347 q 722 75 719 167 q 713 38 722 56 q 689 4 704 19 q 667 -8 678 -3 q 643 -17 656 -14 q 628 -19 636 -19 q 614 -21 621 -19 q 592 -19 603 -21 q 571 -14 582 -18 q 552 -6 560 -11 q 538 4 544 0 q 525 19 531 11 q 517 36 519 28 q 508 55 510 46 q 507 75 507 64 q 507 278 503 176 l 507 329 q 436 319 471 322 q 365 311 401 315 q 313 305 338 308 q 264 299 289 301 l 257 299 q 263 190 258 243 q 271 85 268 136 q 257 36 271 56 q 242 18 250 25 q 219 1 232 7 q 193 -10 207 -6 q 179 -10 186 -10 q 165 -11 172 -11 q 143 -11 154 -14 q 124 -4 132 -8 q 106 3 113 -1 q 90 18 99 7 q 76 31 82 24 q 65 46 69 39 q 58 85 58 61 q 50 182 54 133 q 43 278 46 231 q 38 451 39 365 q 38 624 36 536 q 44 797 40 711 q 58 971 47 883 q 71 1017 58 996 q 78 1028 75 1024 q 88 1038 82 1033 q 110 1053 99 1046 q 135 1063 121 1060 q 150 1063 142 1063 q 165 1064 158 1064 q 204 1058 181 1065 q 239 1038 224 1053 q 253 1024 247 1032 q 263 1008 258 1015 q 268 989 265 997 q 271 971 271 981 q 262 873 265 922 q 257 776 258 824 q 252 632 254 703 q 250 488 250 561 q 255 488 253 488 q 258 489 257 489 q 282 492 269 492 q 306 493 294 492 q 365 501 336 497 q 425 508 393 506 q 467 515 446 511 q 513 521 489 518 q 514 581 514 550 q 517 642 514 611 q 528 824 522 733 q 542 1008 533 914 q 556 1054 542 1035 q 563 1065 558 1058 q 572 1074 568 1071 q 594 1088 583 1082 q 621 1097 606 1094 q 635 1101 628 1100 q 649 1103 642 1101 q 671 1101 660 1103 q 689 1094 682 1100 q 709 1086 700 1090 q 725 1074 718 1082 z "},"´":{"ha":360,"x_min":46,"x_max":315,"o":"m 64 1014 q 90 1042 74 1024 q 126 1079 107 1060 q 161 1116 144 1099 q 189 1143 178 1133 q 202 1154 196 1149 q 215 1164 208 1160 q 223 1174 218 1171 q 233 1179 228 1176 q 257 1185 247 1185 q 278 1179 267 1185 q 290 1174 285 1176 q 297 1164 294 1171 q 302 1158 300 1161 q 307 1151 304 1154 q 315 1119 315 1136 q 313 1103 313 1114 q 297 1074 308 1085 q 269 1047 286 1064 q 233 1010 251 1029 q 196 972 214 990 q 168 944 178 954 q 157 933 163 939 q 146 922 151 926 q 128 908 138 913 q 104 903 115 901 q 81 908 94 901 q 72 914 76 911 q 64 922 67 917 q 59 928 61 925 q 54 935 57 932 q 46 967 46 949 q 47 976 46 971 q 47 986 47 981 q 64 1014 51 1001 z "},"¿":{"ha":699,"x_min":25,"x_max":679,"o":"m 56 -71 q 28 15 32 -31 q 32 113 25 60 q 39 138 36 125 q 47 165 42 151 q 59 188 54 176 q 68 211 64 200 q 82 239 76 224 q 100 263 92 250 q 119 290 108 276 q 158 338 139 314 q 194 386 178 363 q 256 478 232 432 q 265 503 263 490 q 271 529 268 515 l 271 540 q 286 588 271 564 q 294 597 292 593 q 300 604 297 601 q 346 628 318 621 q 359 631 353 631 q 372 632 365 631 q 394 631 383 632 q 411 624 404 629 q 444 604 431 619 q 465 576 461 594 q 472 559 469 568 q 472 540 475 550 q 472 529 472 535 q 471 517 472 524 q 468 492 468 503 q 465 468 468 481 q 458 447 463 458 q 447 424 454 435 q 419 363 438 396 q 408 345 413 354 q 396 326 403 336 q 368 290 382 307 q 339 254 354 274 q 288 190 313 222 q 243 119 263 157 q 235 96 238 108 q 229 72 232 83 q 228 53 228 63 q 228 35 228 43 q 235 13 229 22 q 243 -4 238 4 q 256 -15 253 -10 q 267 -22 263 -18 q 276 -28 271 -25 q 294 -31 286 -29 q 308 -33 301 -32 q 344 -33 325 -35 q 363 -29 353 -32 q 385 -24 374 -26 q 402 -17 393 -21 q 419 -4 411 -12 q 433 7 426 3 q 446 19 439 11 q 457 35 451 28 q 467 50 463 43 q 472 69 469 61 q 478 86 474 76 l 478 126 q 493 174 478 151 q 499 182 496 178 q 508 193 503 186 q 551 215 521 206 q 565 216 558 215 q 579 217 572 217 q 618 210 603 217 q 634 203 626 207 q 649 193 642 199 q 669 163 663 181 q 678 144 676 153 q 679 126 679 136 l 679 100 q 677 73 679 85 q 674 49 675 61 q 671 35 674 42 q 665 19 668 28 q 663 8 665 14 q 658 -7 661 1 q 647 -30 651 -18 q 635 -53 642 -42 q 627 -65 631 -60 q 619 -76 624 -69 q 603 -95 611 -86 q 583 -115 594 -104 q 574 -125 579 -121 q 563 -133 568 -129 q 542 -150 553 -143 q 521 -162 531 -157 q 483 -183 501 -174 q 444 -199 464 -192 q 386 -214 415 -210 q 304 -218 346 -221 q 286 -217 296 -218 q 265 -214 276 -215 q 259 -212 263 -214 q 253 -211 256 -211 q 239 -208 246 -210 q 224 -204 232 -207 q 205 -197 214 -200 q 188 -190 196 -194 q 182 -187 185 -189 q 175 -185 179 -186 q 164 -179 169 -182 q 153 -174 158 -176 q 135 -162 142 -168 q 122 -150 129 -157 q 111 -142 113 -147 q 92 -125 100 -133 q 78 -104 85 -117 q 69 -94 72 -100 q 63 -85 65 -89 q 56 -71 58 -81 m 269 765 q 268 778 268 772 q 265 790 268 783 q 274 826 265 810 q 294 854 282 844 q 309 867 301 861 q 328 874 317 872 q 367 882 342 882 q 417 869 396 882 q 428 862 424 867 q 436 854 432 857 q 453 837 447 847 q 465 815 460 826 q 466 802 465 808 q 467 790 467 796 q 465 772 467 781 q 458 756 464 763 q 449 739 454 747 q 436 724 443 731 q 406 707 425 714 q 367 697 388 697 q 314 711 336 697 q 304 718 310 715 q 294 724 299 721 q 280 744 288 735 q 269 765 272 754 z "},"¡":{"ha":344,"x_min":18,"x_max":344,"o":"m 49 -154 q 36 -140 42 -147 q 28 -125 31 -132 q 18 -87 18 -107 l 39 50 q 54 174 46 113 q 71 297 63 235 q 83 420 78 358 q 97 544 89 482 q 111 592 97 572 q 118 601 115 597 q 128 611 121 606 q 176 633 146 628 q 189 636 181 636 q 204 638 197 636 q 225 636 215 638 q 243 629 235 635 q 278 611 264 622 q 301 581 293 599 q 308 564 304 572 q 311 544 311 556 q 303 475 307 508 q 296 406 300 442 q 282 282 289 343 q 268 158 275 221 q 250 35 260 96 q 232 -87 240 -25 q 218 -135 232 -114 q 210 -144 215 -140 q 200 -154 204 -149 q 179 -169 190 -165 q 154 -179 168 -174 q 140 -180 147 -179 q 125 -181 132 -181 q 104 -179 114 -181 q 85 -172 94 -178 q 65 -166 74 -171 q 49 -154 56 -161 m 135 775 q 131 789 133 782 q 129 803 129 796 q 140 844 129 826 q 149 863 143 854 q 161 879 154 872 q 177 892 168 886 q 197 900 186 897 q 216 908 206 907 q 238 910 226 910 q 292 897 267 910 q 303 886 299 890 q 313 879 307 882 q 339 833 332 860 q 342 818 342 826 q 344 803 343 810 q 343 782 344 793 q 335 760 342 771 q 313 728 325 740 q 278 706 301 715 q 238 696 260 696 q 182 711 208 696 q 172 719 178 714 q 161 728 167 724 q 146 749 153 739 q 135 775 139 760 z "},"˚":{"ha":497,"x_min":56,"x_max":460,"o":"m 454 908 q 456 894 456 901 q 460 879 457 888 l 460 868 q 458 850 460 860 q 456 832 457 840 q 452 822 454 826 q 449 814 450 817 q 447 806 449 807 q 442 790 444 797 q 436 776 439 783 q 431 768 433 771 q 425 761 428 765 q 414 746 419 753 q 401 733 408 739 q 397 726 400 729 q 392 719 394 722 q 368 699 376 708 q 365 697 367 697 q 361 694 363 697 q 344 686 350 690 q 329 680 336 682 q 318 675 322 678 q 312 674 315 674 q 307 672 308 674 q 297 669 303 671 q 288 668 292 668 q 268 665 278 667 q 247 664 258 664 q 227 665 236 664 q 207 668 218 667 q 198 669 203 668 q 188 672 193 671 q 174 677 181 675 q 161 682 168 679 q 157 685 160 683 q 153 689 154 686 q 135 698 142 692 q 121 711 128 704 q 108 722 114 714 q 101 731 106 726 q 94 739 97 735 q 86 750 92 742 q 81 758 83 753 q 78 768 78 764 q 64 806 65 788 q 63 808 63 807 q 61 813 63 810 q 60 826 61 819 q 56 840 58 832 q 58 858 56 853 q 60 876 58 867 q 64 897 61 886 q 69 910 67 903 q 76 924 72 917 q 77 926 76 925 q 78 929 78 928 q 84 938 82 935 q 89 947 86 940 q 128 995 104 974 q 182 1031 153 1017 q 244 1050 211 1044 q 308 1053 276 1056 q 319 1051 318 1053 q 337 1046 328 1050 q 353 1039 346 1042 q 364 1035 360 1038 q 371 1031 368 1033 q 383 1022 378 1026 q 394 1013 389 1018 q 398 1009 396 1010 q 400 1006 400 1008 q 403 1002 401 1003 q 407 999 406 1001 q 417 988 414 993 q 424 976 419 982 q 429 970 426 972 q 433 961 432 968 q 447 933 440 953 q 449 925 449 932 q 452 917 450 922 q 454 908 454 913 m 307 876 q 289 902 304 897 q 256 901 274 907 q 223 882 238 896 q 210 853 208 868 l 208 853 q 207 851 207 853 l 207 846 q 210 836 210 840 q 213 833 213 833 q 215 829 213 832 q 219 826 217 828 q 222 822 221 825 q 226 821 225 821 q 231 818 228 821 q 235 815 232 815 q 240 815 238 815 l 256 815 q 263 817 260 815 q 271 821 265 818 q 283 828 279 821 q 297 838 290 835 q 300 845 299 842 q 303 851 301 849 q 306 857 306 854 q 307 863 306 860 l 307 876 z "},"¨":{"ha":483,"x_min":50,"x_max":443,"o":"m 53 925 q 51 937 53 932 q 50 949 50 942 q 58 982 50 965 q 75 1008 64 994 q 88 1018 82 1014 q 101 1026 94 1022 q 118 1031 110 1029 q 135 1033 126 1033 q 156 1029 146 1033 q 178 1019 167 1025 q 194 1008 189 1011 q 207 992 201 1001 q 214 971 213 982 q 217 961 217 967 q 219 949 218 956 q 213 915 219 928 q 206 902 210 908 q 194 890 201 896 q 168 869 185 876 q 152 865 161 867 q 135 865 143 863 q 93 875 111 865 q 85 883 89 879 q 75 890 82 886 q 63 907 68 897 q 53 925 57 917 m 276 925 q 275 937 276 932 q 274 949 274 942 q 282 982 274 965 q 299 1008 288 994 q 312 1018 306 1014 q 325 1026 318 1022 q 342 1031 333 1029 q 358 1033 350 1033 q 380 1029 369 1033 q 401 1019 390 1025 q 418 1008 413 1011 q 431 992 425 1001 q 438 971 436 982 q 441 961 440 967 q 443 949 442 956 q 436 915 443 928 q 429 902 433 908 q 418 890 425 896 q 392 869 408 876 q 376 865 385 867 q 358 865 367 863 q 317 875 335 865 q 309 883 313 879 q 299 890 306 886 q 286 907 292 897 q 276 925 281 917 z "},"˜":{"ha":644,"x_min":28,"x_max":618,"o":"m 289 804 q 285 809 288 807 q 278 817 282 811 q 250 851 261 842 q 230 855 239 860 q 213 831 221 850 q 194 783 206 813 q 181 766 188 774 q 167 751 175 758 q 157 744 161 746 q 146 740 153 743 q 101 736 126 733 q 91 738 96 738 q 82 742 86 739 q 68 751 75 744 q 57 760 61 757 q 45 774 50 767 q 38 790 40 782 q 33 822 28 804 q 33 839 32 832 q 38 853 35 846 q 59 902 49 879 q 88 944 69 925 q 101 960 90 953 q 103 964 103 963 q 104 969 104 965 q 115 977 110 972 q 128 986 121 982 q 133 992 131 990 q 139 997 136 994 q 156 1008 147 1003 q 174 1017 164 1013 q 189 1021 185 1019 q 219 1028 207 1028 q 228 1029 224 1029 q 233 1030 231 1029 q 236 1031 235 1031 q 251 1030 243 1029 q 267 1029 260 1031 q 306 1021 286 1026 q 310 1017 307 1018 q 318 1013 314 1015 q 334 1006 326 1010 q 349 996 342 1003 q 364 981 357 988 q 376 967 371 974 q 388 954 381 961 q 399 938 393 947 q 410 924 404 929 q 421 918 415 918 q 433 929 426 918 l 446 954 q 448 960 449 957 q 450 967 447 963 q 465 1004 450 989 q 483 1021 472 1014 q 521 1038 500 1035 q 533 1037 528 1036 q 546 1038 539 1038 q 560 1034 553 1038 q 575 1026 568 1031 q 588 1017 582 1024 q 601 1003 594 1010 q 608 989 604 996 q 613 974 611 982 q 617 940 618 957 q 614 930 615 935 q 611 922 613 925 q 599 881 607 899 q 571 829 588 853 q 560 815 567 822 q 549 801 554 808 q 535 788 542 794 q 519 775 528 782 q 515 769 518 771 q 507 764 511 767 q 479 750 494 756 q 475 747 478 750 l 474 746 q 442 739 457 742 q 438 738 440 739 q 432 738 436 736 q 419 737 426 736 q 403 739 411 738 q 399 738 401 739 q 396 738 397 738 q 382 742 389 740 q 368 747 375 744 q 364 748 365 749 q 361 749 363 747 q 344 756 351 751 q 331 764 338 761 q 322 770 325 768 q 315 775 319 772 q 303 790 310 782 q 289 804 296 797 z "},"ˆ":{"ha":503,"x_min":35,"x_max":476,"o":"m 465 781 q 474 732 476 760 q 451 688 472 704 l 436 676 q 422 668 429 669 q 408 664 415 667 q 393 663 400 663 q 378 667 386 664 q 349 682 360 671 q 331 703 339 688 q 321 723 325 713 q 310 744 317 733 q 301 764 306 753 q 290 788 296 775 q 277 811 283 800 q 267 829 271 822 q 225 768 246 799 q 185 706 204 738 q 171 690 178 697 q 156 678 164 682 q 147 674 150 676 q 138 668 143 671 q 96 668 115 665 q 76 678 86 675 q 56 699 63 688 q 48 710 51 704 q 43 724 44 715 q 42 754 35 739 q 50 783 42 771 l 56 796 q 83 836 69 815 q 113 878 97 857 q 144 925 128 901 q 181 971 161 949 q 232 1015 204 1001 q 288 1026 260 1029 q 342 1002 317 1022 q 383 946 367 982 q 396 923 390 935 q 407 899 401 911 q 437 840 419 875 q 465 781 454 806 z "},"¸":{"ha":379,"x_min":38,"x_max":343,"o":"m 250 435 q 294 403 272 424 q 328 358 315 383 q 342 304 342 333 q 326 244 343 275 q 322 231 324 238 q 313 218 319 225 q 308 210 311 214 q 303 201 306 207 q 297 195 300 199 q 289 189 294 192 q 283 182 286 186 q 278 175 281 178 q 267 167 272 171 q 257 157 263 164 q 247 151 251 157 q 231 143 240 149 q 215 135 224 139 q 197 129 207 132 q 170 122 185 124 q 143 117 156 121 l 124 117 q 89 122 101 117 q 57 138 68 126 q 52 145 54 142 q 47 151 50 149 q 38 188 38 169 q 38 196 38 192 q 39 206 39 200 q 51 229 43 218 q 59 239 54 235 q 71 249 64 243 q 97 254 85 254 q 119 254 107 256 l 138 254 q 169 265 153 257 q 194 284 186 274 q 195 305 201 294 q 158 322 189 315 q 149 324 154 324 q 142 326 144 325 q 131 331 136 329 q 119 338 125 333 q 111 340 117 338 q 101 349 106 344 q 92 358 96 353 l 90 358 q 65 440 61 394 q 78 538 68 485 q 85 554 81 546 q 94 568 90 563 q 110 578 99 572 q 126 587 117 585 q 143 589 135 589 q 153 588 149 589 q 160 586 157 586 q 183 574 178 582 q 194 566 190 571 q 203 554 199 561 q 210 529 210 543 q 210 501 215 519 q 201 453 203 475 q 218 449 210 449 q 235 442 226 444 q 250 435 243 439 z "},":":{"ha":290,"x_min":42,"x_max":260,"o":"m 72 563 q 60 577 65 569 q 51 596 54 585 q 43 615 44 606 q 42 638 42 625 l 42 639 q 63 703 42 675 q 121 743 85 732 q 135 745 128 744 q 149 746 142 746 q 170 744 160 746 q 192 738 181 743 q 225 717 210 731 q 256 652 251 686 q 240 582 260 618 q 233 572 238 576 q 225 563 228 568 q 178 533 201 539 q 164 531 171 533 q 149 529 157 529 q 128 531 138 526 q 107 538 118 535 q 72 563 88 544 m 72 144 q 60 159 65 151 q 51 178 54 167 q 43 197 44 188 q 42 219 42 207 l 42 221 q 63 285 42 257 q 121 325 85 314 q 135 327 128 326 q 149 328 142 328 q 170 326 160 328 q 192 319 181 325 q 225 299 210 313 q 256 234 251 268 q 240 164 260 200 q 233 154 238 158 q 225 144 228 150 q 178 115 201 121 q 164 113 171 115 q 149 111 157 111 q 128 113 138 108 q 107 119 118 117 q 72 144 88 126 z "},"⁄":{"ha":657,"x_min":24,"x_max":701,"o":"m 676 1106 q 685 1093 682 1101 q 693 1076 689 1085 q 682 1004 701 1039 q 644 935 664 969 q 606 864 625 900 q 542 739 574 801 q 481 611 510 676 q 423 490 450 551 q 368 367 396 429 q 351 325 360 346 q 333 282 343 304 q 267 118 299 201 q 208 -49 236 35 q 199 -69 204 -58 q 182 -87 193 -81 q 174 -94 178 -92 q 164 -103 169 -96 q 130 -113 149 -111 q 92 -112 111 -115 q 75 -106 82 -110 q 61 -94 68 -101 q 35 -68 47 -85 q 28 -36 28 -51 q 29 -1 24 -17 q 39 28 31 13 q 78 135 57 81 q 121 244 99 190 q 167 361 143 304 q 217 476 192 418 q 265 581 240 529 q 314 685 290 633 q 363 789 338 738 q 414 893 389 840 q 469 996 442 944 q 524 1100 496 1047 q 549 1123 535 1113 q 578 1136 563 1133 q 615 1140 596 1142 q 650 1132 635 1138 q 665 1119 657 1125 q 676 1106 672 1113 z "},"‚":{"ha":282,"x_min":32,"x_max":247,"o":"m 35 129 q 63 186 39 164 q 122 214 86 208 q 194 204 160 221 q 240 149 229 188 q 247 99 247 126 q 240 42 246 71 q 220 -13 233 14 q 189 -62 207 -40 q 154 -90 175 -81 q 114 -99 133 -100 q 79 -87 94 -99 q 61 -49 64 -75 q 60 -32 60 -39 q 63 -17 61 -25 q 65 -1 64 -10 q 65 22 65 7 q 58 45 64 35 q 47 67 53 56 q 36 92 40 78 q 35 129 32 107 z "},"„":{"ha":531,"x_min":32,"x_max":497,"o":"m 35 129 q 63 186 39 164 q 122 214 86 208 q 194 204 160 221 q 240 149 229 188 q 247 99 247 126 q 240 42 246 71 q 220 -13 233 14 q 189 -62 207 -40 q 154 -90 175 -81 q 114 -99 133 -100 q 79 -87 94 -99 q 61 -49 64 -75 q 60 -32 60 -39 q 63 -17 61 -25 q 65 -1 64 -10 q 65 22 65 7 q 58 45 64 35 q 47 67 53 56 q 36 92 40 78 q 35 129 32 107 m 285 129 q 313 186 289 164 q 372 214 336 208 q 444 204 410 221 q 490 149 479 188 q 497 99 497 126 q 490 42 496 71 q 470 -13 483 14 q 439 -62 457 -40 q 404 -90 425 -81 q 364 -99 383 -100 q 329 -87 344 -99 q 311 -49 314 -75 q 310 -32 310 -39 q 313 -17 311 -25 q 315 -1 314 -10 q 315 22 315 7 q 308 45 314 35 q 297 67 303 56 q 286 92 290 78 q 285 129 282 107 z "},"…":{"ha":879,"x_min":42,"x_max":846,"o":"m 72 33 q 60 48 65 40 q 51 67 54 56 q 43 86 44 76 q 42 108 42 96 l 42 110 q 63 174 42 146 q 121 214 85 203 q 135 216 128 215 q 149 217 142 217 q 170 215 160 217 q 192 208 181 214 q 225 188 210 201 q 256 123 251 157 q 240 53 260 89 q 233 43 238 47 q 225 33 228 39 q 178 4 201 10 q 164 2 171 4 q 149 0 157 0 q 128 1 138 -3 q 107 8 118 6 q 72 33 88 15 m 365 33 q 353 48 358 40 q 344 67 347 56 q 336 86 338 76 q 335 108 335 96 l 335 110 q 356 174 335 146 q 414 214 378 203 q 428 216 421 215 q 442 217 435 217 q 463 215 453 217 q 485 208 474 214 q 518 188 503 201 q 549 123 544 157 q 533 53 553 89 q 526 43 531 47 q 518 33 521 39 q 471 4 494 10 q 457 2 464 4 q 442 0 450 0 q 421 1 431 -3 q 400 8 411 6 q 365 33 381 15 m 658 33 q 646 48 651 40 q 638 67 640 56 q 629 86 631 76 q 628 108 628 96 l 628 110 q 649 174 628 146 q 707 214 671 203 q 721 216 714 215 q 735 217 728 217 q 756 215 746 217 q 778 208 767 214 q 811 188 796 201 q 842 123 838 157 q 826 53 846 89 q 819 43 824 47 q 811 33 814 39 q 764 4 788 10 q 750 2 757 4 q 735 0 743 0 q 714 1 724 -3 q 693 8 704 6 q 658 33 674 15 z "},"·":{"ha":293,"x_min":42,"x_max":260,"o":"m 72 375 q 60 390 65 382 q 51 408 54 397 q 43 428 44 418 q 42 450 42 438 l 42 451 q 63 516 42 488 q 121 556 85 544 q 135 558 128 557 q 149 558 142 558 q 170 557 160 558 q 192 550 181 556 q 225 529 210 543 q 256 465 251 499 q 240 394 260 431 q 233 385 238 389 q 225 375 228 381 q 178 346 201 351 q 164 344 171 346 q 149 342 157 342 q 128 343 138 339 q 107 350 118 347 q 72 375 88 357 z "},"•":{"ha":364,"x_min":38,"x_max":326,"o":"m 78 351 q 62 371 69 361 q 50 396 54 381 q 40 421 42 408 q 38 450 38 433 l 38 453 q 65 538 38 500 q 142 590 93 575 q 159 592 150 592 q 179 593 168 593 q 208 591 194 593 q 236 582 221 589 q 279 556 261 574 q 320 469 314 515 q 300 376 326 424 q 290 364 297 369 q 279 351 283 358 q 250 326 264 336 q 217 313 236 317 q 200 310 210 313 q 179 307 190 307 q 151 309 165 304 q 124 318 138 314 q 78 351 99 326 z "},"±":{"ha":849,"x_min":35,"x_max":819,"o":"m 808 642 q 812 626 811 632 q 815 613 813 619 q 806 572 815 588 q 783 535 799 554 q 749 514 765 521 q 707 504 731 504 q 645 502 676 503 q 583 499 614 501 l 560 499 q 560 431 560 465 q 561 361 561 397 q 558 335 561 349 q 546 310 554 322 q 531 288 533 294 q 508 269 521 276 q 481 258 496 263 q 456 254 469 258 q 411 264 431 254 q 394 274 403 267 q 378 288 386 281 q 365 303 371 294 q 357 322 360 313 q 349 341 350 329 q 347 361 347 353 q 346 418 347 389 q 344 475 344 447 l 344 490 q 244 486 294 488 q 146 483 194 485 q 117 487 131 483 q 92 497 103 490 q 79 506 85 501 q 69 514 74 511 q 50 536 57 525 q 39 563 43 547 q 38 576 39 569 q 38 590 38 583 q 47 629 35 615 q 69 667 51 653 q 85 681 75 676 q 101 688 94 685 q 122 695 113 692 q 146 699 132 699 q 206 700 175 700 q 269 701 238 700 q 305 703 288 701 q 342 706 322 706 l 342 882 q 357 939 342 908 q 364 947 360 942 q 372 956 368 951 q 421 985 393 976 q 434 986 428 986 q 447 989 440 986 q 490 979 472 989 q 524 956 508 974 q 546 921 539 944 q 557 882 557 906 l 557 767 l 557 714 q 632 715 594 714 q 707 721 669 717 q 735 717 722 721 q 761 706 747 713 q 772 695 768 700 q 783 688 776 690 q 799 665 792 676 q 808 642 806 654 m 818 144 q 819 131 818 138 q 819 115 819 124 q 818 94 819 106 q 813 76 817 83 q 803 56 810 65 q 790 40 796 47 q 774 27 782 33 q 756 18 765 21 q 735 10 744 11 q 714 8 725 8 l 700 8 l 425 8 l 149 8 q 119 12 133 8 q 93 21 106 15 q 82 33 88 28 q 72 40 76 38 q 54 63 60 51 q 42 86 49 75 q 41 101 42 94 q 40 115 40 108 q 42 138 40 126 q 50 160 43 149 q 59 176 53 168 q 72 194 65 185 q 88 207 79 201 q 107 214 96 213 q 127 223 117 219 q 149 224 138 226 l 303 224 l 578 224 l 714 224 q 741 219 728 224 q 768 207 754 214 q 778 201 774 204 q 790 194 783 197 q 818 144 810 175 z "},"‰":{"ha":1426,"x_min":31,"x_max":1393,"o":"m 86 629 q 83 633 86 631 q 79 636 81 635 q 69 650 75 644 q 61 663 64 656 q 51 680 56 671 q 43 700 46 689 q 41 709 42 704 q 38 719 40 714 q 33 741 35 731 q 32 763 32 751 q 31 774 31 768 q 31 785 31 779 q 33 805 32 794 q 36 826 33 815 q 39 838 38 833 q 42 847 40 842 q 46 865 44 861 q 54 886 50 876 q 64 904 58 896 q 118 985 79 949 q 203 1038 157 1021 q 299 1046 250 1054 q 382 993 347 1038 q 389 985 385 989 q 397 978 393 982 q 410 960 404 968 q 421 942 415 953 q 440 904 431 926 q 444 892 443 897 q 446 882 446 888 q 451 860 449 871 q 454 839 453 850 q 456 826 454 832 q 457 814 457 821 q 453 792 454 804 q 450 769 453 781 q 447 760 447 764 q 446 749 447 756 q 439 727 443 738 q 431 706 435 717 q 425 696 428 701 q 418 686 422 690 q 407 668 414 676 q 394 651 400 660 q 386 644 390 649 q 378 636 382 639 q 363 622 371 628 q 346 608 356 615 q 335 605 340 607 q 325 603 331 603 q 307 591 317 596 q 288 583 297 586 q 277 581 282 582 q 265 579 272 581 q 222 575 244 575 l 213 575 q 197 576 204 576 q 181 579 189 576 q 158 586 164 582 q 146 590 151 588 q 133 594 140 592 q 133 597 133 597 q 132 599 132 597 q 124 601 126 599 q 119 604 122 603 q 107 611 113 607 q 94 624 101 615 q 86 629 89 626 m 290 804 q 290 829 292 814 q 276 868 286 858 q 252 873 265 878 q 226 853 239 868 q 203 818 213 838 q 199 804 200 811 q 194 788 197 797 l 194 765 q 197 760 196 763 q 197 751 197 757 q 201 746 201 747 q 203 744 203 746 q 207 743 204 743 q 209 742 208 742 q 211 740 210 742 q 215 739 213 740 q 219 738 217 738 l 231 738 q 238 739 235 738 q 246 742 242 740 q 254 747 250 744 q 261 751 258 749 q 275 764 268 760 q 280 772 278 768 q 286 779 282 776 q 288 792 288 786 q 290 804 289 797 m 922 351 q 926 331 925 340 q 929 310 928 321 l 929 288 q 926 268 928 279 q 924 247 925 257 q 917 226 921 232 q 910 207 914 215 q 900 189 906 199 q 890 170 896 179 q 878 154 883 161 q 855 131 868 140 q 828 113 842 121 q 820 106 825 107 q 811 101 815 104 q 805 100 808 101 q 799 97 801 99 q 787 90 793 94 q 771 85 781 86 q 738 76 756 78 q 706 71 721 75 l 685 71 q 662 72 674 71 q 640 76 650 74 q 628 76 633 76 q 617 79 624 76 q 611 83 614 82 q 601 85 608 85 q 588 91 596 88 q 572 99 581 94 q 554 110 564 104 q 536 124 544 117 q 528 131 533 128 q 522 138 524 135 q 508 157 515 149 q 494 176 501 165 q 492 183 494 181 q 485 199 488 192 q 479 213 483 206 q 474 235 475 224 q 470 257 472 247 q 468 278 468 267 l 468 301 q 471 322 469 311 q 475 343 472 332 q 485 364 478 358 q 489 381 486 374 q 494 396 492 388 q 499 404 494 400 q 505 414 501 408 q 513 426 508 419 q 515 429 514 428 q 518 435 515 431 q 606 506 556 486 q 708 520 656 526 q 810 485 761 514 q 896 408 860 456 q 907 389 900 403 q 915 369 913 379 q 922 351 918 360 m 701 235 q 714 238 710 236 q 725 242 718 239 q 736 247 732 244 q 744 251 740 249 q 749 257 747 254 q 753 261 750 260 q 759 267 757 264 q 763 274 761 271 q 758 315 769 299 q 726 338 746 331 q 686 344 707 346 q 657 333 665 343 q 642 306 647 322 q 636 275 636 290 q 645 248 636 260 q 674 235 654 236 l 701 235 m 690 761 q 630 670 661 715 q 567 581 599 625 q 505 490 535 536 q 446 401 475 444 q 383 310 413 354 q 324 218 354 265 q 268 123 296 169 q 217 26 240 76 q 197 5 210 14 q 169 -11 183 -4 q 104 -3 136 -19 q 82 21 89 6 q 67 46 71 29 q 65 79 63 67 q 75 110 65 97 q 82 122 78 117 q 88 135 86 128 q 142 229 115 182 q 197 321 168 276 q 256 415 226 369 q 318 506 286 461 q 378 595 349 550 q 442 685 408 640 q 503 774 474 729 q 563 865 533 819 q 622 958 592 913 q 679 1053 651 1004 q 700 1075 688 1065 q 725 1090 713 1085 q 760 1092 743 1094 q 792 1082 778 1089 q 803 1072 797 1079 q 814 1058 810 1065 q 823 1047 821 1054 q 828 1032 825 1039 q 829 1001 836 1017 q 826 983 828 990 q 819 968 825 976 q 813 957 817 963 q 807 944 810 951 q 749 853 778 897 q 690 761 719 808 m 1022 104 q 1019 108 1022 106 q 1015 111 1017 110 q 1006 125 1011 119 q 997 138 1000 131 q 987 155 992 146 q 979 175 982 164 q 977 184 978 179 q 974 194 976 189 q 969 216 971 206 q 968 238 968 226 q 967 249 967 243 q 967 260 967 254 q 969 280 968 269 q 972 301 969 290 q 975 313 974 308 q 978 322 976 317 q 982 340 981 336 q 990 361 986 351 q 1000 379 994 371 q 1054 460 1015 424 q 1140 513 1093 496 q 1235 521 1186 529 q 1318 468 1283 513 q 1325 460 1321 464 q 1333 453 1329 457 q 1346 435 1340 443 q 1357 417 1351 428 q 1376 379 1367 401 q 1381 367 1379 372 q 1382 357 1382 363 q 1387 335 1385 346 q 1390 314 1389 325 q 1392 301 1390 307 q 1393 289 1393 296 q 1390 267 1390 279 q 1386 244 1389 256 q 1383 235 1383 239 q 1382 224 1383 231 q 1375 202 1379 213 q 1367 181 1371 192 q 1361 171 1364 176 q 1354 161 1358 165 q 1343 143 1350 151 q 1331 126 1336 135 q 1322 119 1326 124 q 1314 111 1318 114 q 1299 97 1307 103 q 1282 83 1292 90 q 1272 80 1276 82 q 1261 78 1267 78 q 1243 66 1253 71 q 1224 58 1233 61 q 1213 56 1218 57 q 1201 54 1208 56 q 1158 50 1181 50 l 1149 50 q 1133 51 1140 51 q 1117 54 1125 51 q 1094 61 1100 57 q 1082 65 1088 63 q 1069 69 1076 67 q 1069 72 1069 72 q 1068 74 1068 72 q 1060 76 1063 74 q 1056 79 1058 78 q 1043 86 1049 82 q 1031 99 1038 90 q 1022 104 1025 101 m 1226 279 q 1226 304 1228 289 q 1212 343 1222 333 q 1188 348 1201 353 q 1162 328 1175 343 q 1139 293 1149 313 q 1135 279 1136 286 q 1131 263 1133 272 l 1131 240 q 1133 235 1132 238 q 1133 226 1133 232 q 1138 221 1138 222 q 1140 219 1139 221 q 1143 218 1140 218 q 1145 217 1144 217 q 1147 215 1146 217 q 1151 214 1149 215 q 1156 213 1153 213 l 1167 213 q 1174 214 1171 213 q 1182 217 1178 215 q 1190 222 1186 219 q 1197 226 1194 224 q 1211 239 1204 235 q 1216 247 1214 243 q 1222 254 1218 251 q 1224 267 1224 261 q 1226 279 1225 272 z "},"™":{"ha":779,"x_min":32,"x_max":738,"o":"m 321 1038 q 322 1032 322 1035 q 324 1026 322 1029 q 319 1015 324 1021 q 311 1006 318 1010 q 297 997 303 999 q 282 994 292 994 l 242 994 l 222 994 l 222 946 q 223 888 222 917 q 224 829 224 860 q 224 772 224 800 q 225 714 225 743 q 224 706 225 710 q 219 696 222 701 q 213 690 217 694 q 203 685 208 688 q 194 682 197 683 q 182 681 190 681 q 164 683 171 681 q 151 690 160 685 q 143 701 149 692 q 141 707 142 704 q 140 714 140 710 q 140 747 140 731 q 139 779 140 763 l 139 894 l 139 992 q 124 991 132 992 q 110 989 117 990 q 72 986 90 986 q 38 1003 53 986 q 33 1010 38 1006 q 32 1025 32 1014 q 38 1038 32 1029 q 42 1043 40 1040 q 50 1046 44 1046 q 64 1051 53 1049 q 92 1056 78 1054 q 118 1058 106 1057 q 159 1062 139 1061 q 199 1064 179 1063 q 240 1064 219 1064 q 282 1063 260 1064 q 292 1061 288 1063 q 301 1057 296 1060 q 311 1051 306 1057 q 317 1046 314 1049 q 321 1038 319 1043 m 733 969 q 729 842 729 904 q 732 780 729 811 q 738 717 735 749 q 733 700 738 706 q 730 696 731 697 q 726 692 729 694 q 717 688 721 689 q 707 683 713 686 l 694 683 q 679 686 683 683 q 665 692 671 689 q 656 704 658 694 q 653 710 654 707 q 653 717 653 713 q 649 752 650 735 q 644 786 647 769 q 643 828 643 807 q 643 869 643 849 q 641 866 642 867 q 639 863 640 865 q 610 813 625 838 q 578 763 594 788 q 563 750 574 754 q 553 746 558 749 q 529 746 540 743 q 524 748 526 747 q 519 750 522 749 q 517 751 519 750 l 514 751 q 513 753 513 751 q 501 763 506 756 q 494 774 494 767 q 481 797 488 785 q 468 821 475 810 q 452 851 460 836 q 435 881 444 865 l 435 842 l 435 724 q 431 707 435 713 l 424 700 q 404 690 418 693 l 393 690 q 385 690 390 690 q 378 692 381 690 q 370 696 374 694 q 364 700 367 697 q 358 705 361 703 q 354 710 356 707 q 350 724 350 718 l 350 789 q 350 849 350 819 q 351 908 350 878 q 353 967 353 938 q 357 1026 354 996 q 364 1043 357 1033 q 370 1049 367 1046 q 379 1056 374 1053 q 400 1060 389 1060 q 422 1056 411 1060 q 428 1051 425 1053 q 435 1046 432 1049 q 447 1035 442 1042 q 450 1029 449 1032 q 453 1024 451 1026 q 463 1007 458 1015 q 471 989 468 999 q 499 941 486 965 q 524 892 511 917 q 540 857 531 874 q 570 905 556 881 q 600 953 585 929 q 628 1006 614 979 q 657 1057 643 1032 q 668 1065 661 1063 q 683 1072 674 1069 q 693 1074 690 1072 q 706 1072 697 1072 q 719 1065 715 1069 q 729 1061 728 1063 q 733 1055 732 1058 q 736 1049 733 1051 q 737 1044 736 1046 q 738 1040 738 1043 q 735 1004 736 1022 q 733 969 733 986 z "},"ß":{"ha":847,"x_min":6,"x_max":800,"o":"m 771 451 q 790 383 783 422 q 799 338 797 361 q 800 292 800 315 q 799 282 800 286 q 799 274 799 278 q 795 252 796 263 q 790 233 794 242 q 781 200 788 213 q 765 162 774 181 q 742 126 757 143 q 726 106 735 115 q 710 85 718 96 q 686 67 697 75 q 664 50 675 58 q 626 29 646 38 q 588 14 607 21 q 575 8 582 10 q 561 4 568 7 q 531 0 546 1 q 501 -3 517 -1 q 475 -1 489 -3 q 446 4 461 1 q 419 11 431 4 q 392 22 404 15 q 372 35 381 28 q 362 47 365 42 q 354 57 358 51 q 340 111 340 83 q 342 124 340 118 q 343 138 343 131 q 363 172 350 160 q 376 188 368 181 q 393 200 385 194 q 433 213 413 213 q 455 215 444 215 q 475 213 465 214 q 485 208 481 210 q 494 206 489 207 l 506 206 q 521 213 515 208 q 543 224 532 214 q 552 231 547 226 q 561 240 557 236 q 567 248 564 243 q 572 257 571 253 q 582 288 579 269 q 582 308 582 299 q 581 329 582 318 q 563 389 576 358 q 543 426 554 408 q 519 460 532 443 q 506 478 513 468 q 497 497 500 489 q 486 519 492 508 q 478 542 481 531 q 472 558 472 556 q 467 590 469 575 q 465 621 465 604 q 470 649 468 635 q 478 676 472 663 q 483 692 481 685 q 490 710 486 700 q 501 737 496 724 q 514 765 507 750 q 528 789 521 776 q 542 815 535 801 q 546 831 543 822 q 551 847 549 840 l 551 856 q 549 860 551 857 q 546 865 549 863 q 541 869 543 868 q 536 874 539 871 q 524 881 529 878 q 511 886 518 883 q 471 899 489 894 l 422 899 q 406 894 414 896 q 392 889 399 892 q 381 883 385 886 q 372 876 378 881 q 354 863 363 874 q 344 847 349 856 q 335 832 339 839 q 314 746 319 789 q 307 681 310 714 q 301 613 304 647 q 300 470 300 542 q 294 325 300 399 q 291 289 292 307 q 288 251 290 271 q 281 210 283 232 q 274 167 278 189 q 253 108 267 135 q 236 68 246 88 q 211 31 226 49 q 172 -6 196 8 q 159 -10 165 -8 q 146 -17 153 -12 q 86 -17 117 -22 q 74 -10 81 -12 q 63 -6 68 -8 q 44 6 51 0 q 32 21 38 11 q 13 57 17 36 q 10 99 6 75 q 13 118 10 110 q 22 135 17 126 q 49 176 39 153 q 60 219 56 199 q 69 261 65 240 q 71 274 69 268 q 72 285 72 279 q 81 450 81 368 q 83 615 82 532 q 86 655 86 636 q 89 696 86 674 q 94 742 92 719 q 99 789 96 765 q 106 821 103 804 q 115 853 108 838 q 129 892 121 872 q 146 933 138 911 q 193 1004 164 969 q 206 1015 200 1010 q 218 1026 211 1019 q 240 1044 229 1036 q 264 1060 251 1053 q 292 1075 278 1069 q 321 1086 306 1081 q 337 1090 328 1089 q 354 1093 346 1090 q 385 1100 369 1097 q 417 1103 400 1103 q 433 1106 424 1106 q 451 1106 442 1106 q 476 1104 464 1106 q 500 1100 489 1103 q 524 1097 513 1099 q 546 1093 535 1096 q 560 1090 553 1090 q 578 1086 568 1089 q 604 1075 590 1081 q 629 1063 618 1069 q 642 1056 636 1060 q 654 1046 649 1053 q 678 1030 667 1038 q 699 1011 689 1022 q 718 990 710 1000 q 735 969 726 981 q 757 919 749 949 q 765 893 763 907 q 769 867 767 879 l 769 839 q 750 761 765 793 q 734 722 742 742 q 717 683 726 703 q 705 663 711 672 q 696 646 699 654 q 689 628 692 636 q 683 613 686 621 l 683 606 q 686 599 686 603 q 703 570 693 583 q 724 544 714 557 q 771 451 749 501 z "},"©":{"ha":1157,"x_min":51,"x_max":1110,"o":"m 1100 611 q 1105 581 1103 596 q 1110 551 1107 567 l 1110 522 q 1101 433 1110 476 q 1085 363 1096 397 q 1060 296 1074 328 q 1045 267 1053 281 q 1028 242 1038 254 q 993 197 1014 218 q 974 175 988 188 q 917 124 949 144 q 887 101 901 113 q 856 81 872 90 q 815 60 836 69 q 775 44 794 51 q 746 33 760 39 q 715 25 732 28 q 672 16 693 19 q 626 10 650 13 q 594 7 610 8 q 563 6 579 6 q 531 7 546 6 q 500 10 515 8 q 455 16 476 13 q 411 25 433 19 l 346 47 q 303 66 324 57 q 263 89 282 75 q 249 97 256 93 q 235 107 242 100 q 211 125 222 115 q 189 146 200 135 q 156 178 171 161 q 129 213 142 194 q 97 267 111 236 q 81 306 89 286 q 69 347 74 325 l 63 376 q 58 406 60 392 q 56 433 57 419 q 56 494 51 465 q 60 551 56 528 q 64 569 63 561 q 67 583 65 576 q 73 614 69 599 q 83 644 76 629 q 119 724 99 685 q 144 760 131 743 q 174 796 158 776 q 215 842 190 821 q 227 853 222 847 q 238 864 232 858 l 286 899 q 313 916 299 908 q 342 931 326 924 q 381 951 361 942 q 422 967 401 960 q 560 994 489 993 q 699 979 631 996 q 833 931 768 963 q 954 858 897 900 q 974 840 964 850 q 996 818 985 829 l 1032 771 q 1041 758 1036 764 q 1050 746 1046 753 q 1057 733 1053 740 q 1064 719 1061 726 l 1085 665 q 1100 611 1096 638 m 838 343 q 855 374 846 358 q 871 404 864 389 q 883 440 878 421 q 893 478 889 458 q 894 515 893 497 q 893 550 894 532 q 885 581 889 567 q 875 611 882 596 q 863 634 869 624 q 849 656 856 644 q 806 700 831 679 q 735 740 772 724 q 602 773 674 768 q 464 750 531 778 q 388 707 426 733 q 357 679 372 694 q 329 649 342 664 q 294 583 308 624 q 272 510 279 550 q 272 432 268 471 q 278 403 274 418 q 289 372 283 388 q 301 347 294 358 q 314 325 307 336 l 353 288 q 418 251 383 265 q 465 235 440 242 q 513 225 489 228 q 617 225 564 221 q 665 235 640 228 q 713 251 689 242 q 750 272 732 261 q 786 296 768 282 q 838 343 813 317 m 746 669 q 757 654 753 663 q 765 638 761 646 q 766 626 765 632 q 767 615 767 621 q 765 595 767 604 q 757 576 764 586 q 751 567 754 571 q 746 560 747 563 q 733 549 739 553 q 719 542 726 546 q 690 538 704 535 q 658 542 672 536 q 649 547 653 544 q 642 551 646 550 q 632 554 638 554 q 582 554 608 558 q 572 553 576 554 q 560 550 567 551 q 551 544 554 547 q 543 540 547 542 l 531 529 q 521 513 524 521 q 520 505 521 508 q 519 497 519 501 q 519 483 515 490 q 520 476 519 479 q 521 465 521 472 l 531 453 q 539 446 533 451 q 543 442 540 443 q 549 439 546 442 q 556 436 551 436 q 563 433 560 436 l 578 433 q 583 436 579 436 q 589 439 586 436 q 628 449 607 449 q 638 447 633 449 q 649 446 643 446 q 683 426 668 442 q 690 419 686 424 q 696 411 693 414 q 706 382 706 397 q 706 350 708 365 q 690 324 701 335 q 668 306 681 311 q 652 297 660 299 q 638 290 644 294 l 608 283 q 583 279 596 281 q 560 281 571 278 q 542 282 551 281 q 524 283 533 283 q 517 286 521 286 q 511 288 514 286 q 494 294 503 290 q 479 300 486 297 l 467 307 q 454 315 458 311 q 428 335 438 325 q 397 372 411 351 q 385 394 390 383 q 375 415 381 404 q 370 429 372 422 q 368 443 368 436 q 364 460 365 453 q 363 478 363 468 q 361 493 361 483 q 362 500 361 496 q 363 507 363 504 q 364 525 363 517 q 368 540 365 533 q 375 564 371 553 q 385 586 379 575 l 400 611 q 431 649 414 633 q 447 663 438 656 q 467 678 457 671 q 511 697 490 690 q 543 707 524 703 q 588 712 565 710 q 632 711 611 714 q 668 707 651 711 q 676 706 672 707 q 683 704 679 704 q 688 703 686 704 q 693 701 690 701 q 705 696 699 699 q 717 690 711 693 q 746 669 733 682 z "},"®":{"ha":881,"x_min":53,"x_max":828,"o":"m 825 649 q 825 615 828 631 q 821 583 822 600 q 816 562 818 572 q 811 540 814 551 q 803 520 807 529 q 793 503 800 511 q 783 481 790 490 q 778 472 782 476 q 772 461 775 467 q 760 445 767 454 q 749 429 754 436 q 731 413 739 421 q 714 399 724 406 q 689 379 701 389 q 663 363 676 369 q 651 356 657 358 q 643 353 646 354 q 622 342 632 346 q 601 335 613 339 q 579 328 590 332 q 557 324 568 325 q 526 317 542 319 q 493 313 510 315 q 470 311 482 313 q 447 310 458 310 q 424 311 435 310 q 400 313 413 313 q 365 317 383 315 q 331 324 347 319 q 309 328 321 325 q 286 338 297 332 q 225 365 251 349 q 197 383 211 374 q 171 404 183 393 q 153 419 161 411 q 139 433 146 426 q 119 460 128 447 q 101 488 110 472 q 88 515 94 500 q 74 544 81 531 q 67 565 71 556 q 63 586 64 575 q 58 608 60 597 q 57 631 57 619 q 54 641 54 636 q 54 650 54 646 q 53 673 53 661 q 54 697 54 685 q 59 728 57 713 q 67 758 61 743 q 77 789 71 774 q 89 819 83 804 q 100 840 94 829 q 110 858 106 850 q 118 871 113 865 q 129 882 124 876 q 139 895 135 889 q 149 908 143 901 q 165 924 156 915 q 181 938 174 932 q 419 1036 293 1032 q 665 947 544 1040 q 692 928 679 939 q 717 904 704 917 q 738 881 728 893 q 758 857 749 868 q 770 837 765 847 q 782 818 775 826 q 787 806 785 811 q 792 796 789 801 q 808 758 799 776 q 818 711 814 738 q 825 649 825 679 m 657 574 q 663 596 661 585 q 668 618 665 607 q 668 669 672 642 q 662 698 665 685 q 656 726 658 711 q 626 771 639 754 q 603 797 615 785 q 579 818 592 808 q 513 856 547 840 q 442 875 478 871 q 369 869 406 879 q 296 832 332 860 q 272 811 283 821 q 251 789 261 801 q 238 766 244 778 q 225 743 231 754 q 217 718 221 731 q 213 692 214 706 q 213 638 208 665 q 217 612 214 625 q 225 586 221 599 q 237 565 231 575 q 250 544 243 554 q 265 530 257 538 q 279 517 272 522 q 303 501 290 507 q 328 488 315 494 q 362 477 343 482 q 400 468 381 472 q 493 468 446 464 q 530 477 513 472 q 565 488 547 482 q 611 514 586 497 q 626 528 618 521 q 640 542 633 535 q 649 556 644 549 q 657 574 654 564 m 569 601 q 589 576 585 593 q 586 542 596 560 q 575 531 583 535 q 560 524 567 526 q 544 524 553 522 q 529 529 536 525 q 509 539 518 535 q 490 550 500 543 q 450 572 471 561 q 410 592 429 582 q 414 568 411 581 q 419 544 417 556 q 421 528 422 536 q 417 514 419 521 q 405 501 413 506 q 389 493 397 496 l 372 493 q 358 497 364 493 q 339 524 342 507 q 333 540 333 535 q 318 617 325 579 q 306 692 311 654 q 302 710 303 701 q 299 731 301 719 q 297 740 299 735 q 296 750 296 744 q 293 776 292 764 l 293 789 q 296 792 296 790 q 299 796 296 793 q 301 801 301 799 q 303 808 301 804 q 313 815 308 813 q 321 819 317 819 q 336 828 325 822 q 353 829 346 828 q 370 829 363 829 q 388 832 378 829 q 427 831 407 832 q 467 828 447 831 q 483 824 475 825 q 500 819 490 822 q 513 814 507 817 q 525 808 519 811 q 539 803 531 808 q 549 796 546 800 q 557 786 553 792 q 563 780 560 783 q 567 774 565 776 q 569 769 569 771 q 572 767 569 768 q 579 736 579 753 q 581 723 582 729 q 576 710 579 717 q 574 702 575 706 q 569 694 572 699 q 564 688 567 692 q 557 681 561 683 q 553 674 556 676 q 549 668 551 671 q 533 656 540 661 q 515 647 525 650 q 508 643 511 644 q 500 640 504 642 q 537 622 519 631 q 569 601 554 613 m 400 749 q 390 749 393 749 q 379 746 386 749 q 382 737 382 742 q 382 729 382 732 q 386 715 385 722 q 388 700 388 707 q 407 701 400 700 q 467 717 435 706 q 488 729 476 721 l 490 731 q 487 733 488 733 q 483 736 486 733 q 465 741 474 739 q 444 746 456 743 q 422 749 433 749 q 400 749 411 749 z "},"’":{"ha":256,"x_min":22,"x_max":226,"o":"m 36 1001 q 76 1034 51 1024 q 126 1042 100 1044 q 175 1027 151 1040 q 211 992 199 1014 q 226 924 225 971 q 217 828 226 878 q 188 735 208 778 q 140 681 168 693 q 101 670 121 672 q 65 674 81 668 q 40 697 49 681 q 35 743 31 714 q 42 785 38 763 q 43 828 46 807 q 33 889 43 856 q 22 958 22 922 q 26 981 22 971 q 36 1001 31 992 z "},"‘":{"ha":256,"x_min":24,"x_max":228,"o":"m 214 718 q 174 685 199 694 q 124 677 150 675 q 75 692 99 679 q 39 728 51 704 q 24 795 25 749 q 33 892 24 842 q 62 984 42 942 q 110 1039 82 1026 q 149 1049 128 1047 q 185 1045 169 1051 q 210 1022 201 1039 q 215 976 219 1006 q 208 935 213 957 q 207 892 204 913 q 217 831 207 864 q 228 761 228 797 q 224 738 228 749 q 214 718 219 728 z "},"”":{"ha":506,"x_min":22,"x_max":478,"o":"m 36 1001 q 76 1034 51 1024 q 126 1042 100 1044 q 175 1027 151 1040 q 211 992 199 1014 q 226 924 225 971 q 217 828 226 878 q 188 735 208 778 q 140 681 168 693 q 101 670 121 672 q 65 674 81 668 q 40 697 49 681 q 35 743 31 714 q 42 785 38 763 q 43 828 46 807 q 33 889 43 856 q 22 958 22 922 q 26 981 22 971 q 36 1001 31 992 m 288 1001 q 327 1034 303 1024 q 377 1042 351 1044 q 426 1027 403 1040 q 463 992 450 1014 q 477 924 476 971 q 469 828 478 878 q 440 735 460 778 q 392 681 419 693 q 352 670 372 672 q 316 674 332 668 q 291 697 300 681 q 286 743 282 714 q 293 785 289 763 q 294 828 297 807 q 284 889 294 856 q 274 958 274 922 q 278 981 274 971 q 288 1001 282 992 z "}}}
